<svg width="14" height="14" viewBox="0 0 14 14" fill="none" xmlns="http://www.w3.org/2000/svg">
<path d="M7 0C3.13425 0 0 3.13425 0 7C0 10.8657 3.13425 14 7 14C10.8657 14 14 10.8657 14 7C14 3.13425 10.8657 0 7 0ZM10.5 7.58333H7.58333V10.5C7.58333 10.8226 7.322 11.0833 7 11.0833C6.678 11.0833 6.41667 10.8226 6.41667 10.5V7.58333H3.5C3.178 7.58333 2.91667 7.32258 2.91667 7C2.91667 6.67742 3.178 6.41667 3.5 6.41667H6.41667V3.5C6.41667 3.17742 6.678 2.91667 7 2.91667C7.322 2.91667 7.58333 3.17742 7.58333 3.5V6.41667H10.5C10.822 6.41667 11.0833 6.67742 11.0833 7C11.0833 7.32258 10.822 7.58333 10.5 7.58333Z" fill="#0ED121"/>
</svg>
