<svg width="33" height="33" viewBox="0 0 33 33" fill="none" xmlns="http://www.w3.org/2000/svg">
<path d="M10.1591 0.85C5.02641 0.85 0.85 5.02641 0.85 10.1591V22.8409C0.85 27.9736 5.02641 32.15 10.1591 32.15H22.8409C27.9736 32.15 32.15 27.9736 32.15 22.8409V10.1591C32.15 5.02641 27.9736 0.85 22.8409 0.85H10.1591ZM10.1591 2.55909H22.8409C27.0463 2.55909 30.4409 5.95373 30.4409 10.1591V22.8409C30.4409 27.0463 27.0463 30.4409 22.8409 30.4409H10.1591C5.95373 30.4409 2.55909 27.0463 2.55909 22.8409V10.1591C2.55909 5.95373 5.95373 2.55909 10.1591 2.55909ZM24.9545 6.48636C24.0935 6.48636 23.3955 7.18439 23.3955 8.04545C23.3955 8.90652 24.0935 9.60454 24.9545 9.60454C25.8156 9.60454 26.5136 8.90652 26.5136 8.04545C26.5136 7.18439 25.8156 6.48636 24.9545 6.48636ZM16.5 8.6C12.1453 8.6 8.6 12.1453 8.6 16.5C8.6 20.8547 12.1453 24.4 16.5 24.4C20.8547 24.4 24.4 20.8547 24.4 16.5C24.4 12.1453 20.8547 8.6 16.5 8.6ZM16.5 10.3091C19.9275 10.3091 22.6909 13.0725 22.6909 16.5C22.6909 19.9275 19.9275 22.6909 16.5 22.6909C13.0725 22.6909 10.3091 19.9275 10.3091 16.5C10.3091 13.0725 13.0725 10.3091 16.5 10.3091Z" fill="#34495E" stroke="#34495E" stroke-width="0.3"/>
</svg>
