<svg id="eDAtIflvsio1" xmlns="http://www.w3.org/2000/svg" xmlns:xlink="http://www.w3.org/1999/xlink" viewBox="0 0 32768 32768" shape-rendering="geometricPrecision" text-rendering="geometricPrecision"><defs><linearGradient id="eDAtIflvsio3-fill" x1="-45048" y1="15564.8" x2="241217" y2="15564.8" spreadMethod="pad" gradientUnits="userSpaceOnUse" gradientTransform="translate(0 0)"><stop id="eDAtIflvsio3-fill-0" offset="0%" stop-color="#34495e"/><stop id="eDAtIflvsio3-fill-1" offset="100%" stop-color="#34495e"/></linearGradient><linearGradient id="eDAtIflvsio33-fill" x1="7302.68" y1="15565.1" x2="25465.3" y2="15565.1" spreadMethod="pad" gradientUnits="userSpaceOnUse" gradientTransform="translate(0 0)"><stop id="eDAtIflvsio33-fill-0" offset="0%" stop-color="#34495e"/><stop id="eDAtIflvsio33-fill-1" offset="100%" stop-color="#34495e"/></linearGradient><linearGradient id="eDAtIflvsio34-fill" x1="7302.68" y1="15919.3" x2="17924.1" y2="15919.3" spreadMethod="pad" gradientUnits="userSpaceOnUse" gradientTransform="translate(0 0)"><stop id="eDAtIflvsio34-fill-0" offset="0%" stop-color="#c4090b"/><stop id="eDAtIflvsio34-fill-1" offset="100%" stop-color="#c4090b"/></linearGradient></defs><rect width="14700" height="13088.240205" rx="0" ry="0" transform="matrix(2.229116 0 0 2.503621-.0026 0.003484)" fill="#fff" stroke-width="0"/><path d="M17625.3,19679.8l-381.5,560.3-278.5-824.7c199.6-116,417.5-213.7,655.7-290.7l4.3,555.1Z" fill="url(#eDAtIflvsio3-fill)"/><path id="eDAtIflvsio4" d="M20152.3,18612.2v-12778.84L17937.2,4128.77L17924.1,18645l2228.2-32.8Z" transform="translate(-.000211 15139.23)" fill="#202d3b"/><g id="eDAtIflvsio5" transform="translate(6579.216533 0.076789)"><path d="M10798.4,22977.6c-36.4,59-85.9,104.8-149.1,137.6-63.3,32.8-134.4,49.2-214,49.2-92.1-.4-174-21-246.4-62.3-72.4-41-128.8-98-169.1-171.1-40.31-73-60.62-155.9-60.62-248.7c0-92.7,19.99-181.2,59.62-256.2c39.7-75,95-134,166.1-176c71.2-41.9,151.8-62.9,242.2-62.9c73.1,0,140.3,14.8,201.2,44.2c60.9,29.5,110.1,70.8,148.4,123.3c38.1,52.7,61,112.4,68.9,179.2l-112.8,20.3c-4.9-50.8-20.9-96-48.5-135.6-27.5-39.7-63.9-70.8-108.4-92.8-44.6-21.9-94.1-33.1-148.5-33.1-65.8,0-124.8,16.4-176.6,49.5s-92.1,79-121.2,138.3c-29.2,59.3-43.3,126.5-43.3,202.2s14.8,137.9,44.6,194.9c29.5,57,71.1,101.6,123.8,133.4c52.8,31.8,113.4,47.8,180.9,47.8c60.6,0,114.7-12.4,161.9-37.6c47.2-25.3,83.2-60.3,108.8-105.2c25.5-44.9,37.5-82.5,36.2-139.8l113.2.5c-2,75.4-21,142.2-57,201.2l-.3-.3Zm-324.1-201.9v-99.6h379.1l1,40.3l1,60-381.1-.7Z" fill="#c4090b"/><path d="M11440.6,23044.1c-21.9,36.7-52.1,65.5-91.1,86.2-39,20.6-83.2,30.8-132.7,30.8-57.3,0-108.8-13.5-153.7-40s-79.6-63.9-104.5-111.7c-24.9-47.9-37.4-102.3-37.4-163.2c0-61,12.8-119.3,38.4-168.5c25.5-49.1,60.9-87.8,106.2-115.3c45.2-27.5,96.9-41.6,154.3-41.6c47.8,0,90.8,10.1,128.8,30.8c38,20.6,67.5,49.1,89.1,86.2c21.6,36.7,32.8,78.9,33.4,126.1.7,47.2-27.5,73.8-27.5,73.8c0-42.3-8.2-80-24.9-113.1s-40-59-69.8-77.3c-29.8-18.4-63.9-27.6-101.9-27.6s-74.1,9.9-104.9,29.2-54.7,46.2-72.1,80.6c-17.3,34.4-26.2,73.4-26.2,117.3s8.5,79.3,25.3,112.1c16.7,32.8,40.6,58.3,71.1,77c30.4,18.4,65.5,27.5,104.5,27.5s72.7-9.1,102.9-27.2c30.1-18.3,53.7-43.6,70.4-76.3c16.7-32.8,25.3-69.8,25.3-111.1l29.1,70.1c0,47.2-10.8,89.2-32.7,126.2l.6-1Zm3.6,103.5v-616.3h124.2l-.6,616.3h-123.6Z" fill="#c4090b"/><path d="M11672.3,22195.1h124.2v952.5h-124.2v-952.5Z" fill="#c4090b"/><path d="M11865,22531.6h138.9l181.2,444l179.6-444h137.9l-301.4,649.1h-30.2l-306-649.1Z" fill="#c4090b"/><path d="M13016.4,23044.1c-21.9,36.7-52.1,65.5-91.1,86.2-39,20.6-83.2,30.8-132.7,30.8-57.3,0-108.8-13.5-153.7-40-44.8-26.5-79.6-63.9-104.5-111.7-24.9-47.9-37.3-102.3-37.3-163.2c0-61,12.7-119.3,38.3-168.5c25.6-49.1,60.9-87.8,106.2-115.3c45.2-27.5,97-41.6,154.3-41.6c47.8,0,90.8,10.1,128.8,30.8c38,20.6,67.5,49.1,89.1,86.2c21.6,36.7,32.8,78.9,33.4,126.1l-27.5,73.8c0-42.3-8.2-80-24.9-113.1s-40-59-69.8-77.3c-29.8-18.4-63.9-27.6-101.9-27.6s-74.1,9.9-104.9,29.2-54.7,46.2-72,80.6c-17.4,34.4-26.3,73.4-26.3,117.3s8.6,79.3,25.3,112.1s40.6,58.3,71.1,77c30.5,18.4,65.5,27.5,104.5,27.5s72.8-9.1,102.9-27.2c30.1-18.3,53.7-43.6,70.4-76.3c16.8-32.8,25.3-69.8,25.3-111.1l29.1,70.1c0,47.2-10.8,89.2-32.7,126.2l.6-1Zm-236.6-743.5c12.2,0,23.6,2,34.5,5.9c10.8,3.9,23.5,9.5,38.3,16.7c12.4,6.2,22.9,10.8,31.1,13.4c8.2,2.7,16.1,4.3,23.9,4.3c14.8,0,29.2-3,43.6-8.5c14.4-5.9,27.9-14.1,40-25.3v97.4c-11.1,8.5-23.6,15-38.3,20.3-14.5,4.9-29.5,7.5-45.3,7.5-10.8,0-21.6-1.6-31.4-5.2-10.2-3.6-22-8.5-35.4-15.4-13.1-6.6-24.3-11.5-33.1-14.8s-18-4.9-27.2-4.9c-34.7,0-63.6,8.5-86.8,25.9v-94c24.5-15.4,53.4-23,86.8-23l-.7-.3ZM13020,23148v-616.4h124.2l-.6,616.4h-123.6Z" fill="#c4090b"/><path d="M13386.4,23118.2c-49.5-27.2-88.2-64.9-115.7-113.4s-41.6-103.9-41.6-165.5s13.8-116.3,41.6-165.2c27.9-48.5,66.5-86.5,116-113.3c49.5-27.2,105.5-40.7,168.1-40.7s118.6,13.5,168.1,40.7s87.8,64.8,115.7,113.3c27.8,48.5,41.6,103.6,41.6,165.2s-13.8,117-41.6,165.5c-27.9,48.5-66.2,86.5-115.7,113.4-49.5,27.1-105.5,40.6-168.1,40.6s-119.3-13.5-168.7-40.6h.3Zm271.6-87.2c30.2-18.7,53.8-44.9,70.5-78s25.2-71.1,25.2-113c0-42-8.5-80-25.5-113.1-17.1-33.1-40.7-59-70.8-77.7-30.2-18.6-64.9-28.1-103.6-28.1-38.6,0-73.4,9.1-103.8,27.8-30.5,18.7-54.1,44.6-71.2,77.7-17,33.1-25.5,71.1-25.5,113c0,42,8.5,80.6,25.9,113.7c17,33.1,40.9,59,71.4,77.7s64.9,27.8,103.9,27.8s73.4-9.5,103.5-28.1v.3Z" fill="#c4090b"/><path d="M9042.66,23139.4c-32.12-15.7-56.69-38.9-73.73-69.4s-25.56-66.5-25.56-108.2c0-9.5,0-17,.66-21.9c2.62-37.7,14.74-71.8,36.7-102.6c21.95-30.8,51.11-59.9,87.81-87.8c36.7-27.8,90.12-64.5,160.57-109.8c38.34-24.5,69.79-46.5,94.04-65.8c24.25-19.4,43.25-39.7,57.02-60.6c13.76-21,21.3-43.6,21.95-67.5.33-26.3-5.9-50.5-19.33-72.8-13.44-22.3-31.13-40.3-53.41-53.4-22.29-13.1-46.53-20-71.77-20-23.92,0-46.2,6.6-67.5,20s-38.34,31.1-50.79,53.4c-12.78,22.6-19,46.9-19,72.8c0,25.8,4.91,48.1,14.41,68.4c9.84,20.4,21.96,38.4,36.71,54.4c14.74,16.1,34.73,35.4,60.29,58c5.9,5.3,11.79,10.8,18.02,16.7s12.78,11.8,19.33,17.7l-69.14,65.6c-40.96-30.8-75.36-60.3-102.89-88.5-27.52-28.2-49.48-58.3-65.53-90.8-16.06-32.1-24.25-66.8-24.25-104.2c0-45.5,11.14-86.8,33.42-123.8c22.28-37.1,52.76-65.9,91.42-86.9c38.67-20.9,81.6-31.4,128.78-31.4c47.19,0,89.13,10.5,128.12,31.1c39,20.6,69.47,49.5,92.08,86.5c22.61,36.7,33.75,78,33.75,123.9c0,40-9.5,76-28.83,108.1-19.34,32.1-43.91,60.6-74.06,85.5-30.14,24.9-68.16,52.1-114.03,81.3l-39.98,27.2c-49.81,33.4-87.49,59.6-112.72,79-25.56,19.3-46.2,38.6-62.59,58.3-16.38,19.7-25.88,40.3-28.18,61.3-.65,8.5-.98,14.4-.98,17.7c0,26.8,7.21,48.8,21.95,65.5c14.75,16.7,35.07,24.9,61.61,24.9c7.21,0,16.38-1,27.52-2.9c36.38-6.9,78.97-29.5,128.45-67.9c49.48-38.3,99.62-85.8,150.08-142.2s96.34-114.3,136.64-173.3l61.94,83.5c-48.83,69.5-100.93,134.7-156.31,195.3s-112.06,111.1-169.74,151.1c-57.67,40-111.08,61.6-160.23,64.9-42.93,1.9-80.28-4.9-112.4-20.7l-.32.3Zm465.96-133c9.17,12.5,21.3,22.6,36.37,30.5c15.07,8.2,32.77,11.8,53.08,11.5c30.15-.7,57.35-5.3,81.92-13.2v105.9c-38.66,10.5-74.38,15.4-107.15,15.4-27.85,0-52.75-5.6-74.38-16.7-21.95-11.2-39.32-25.3-53.08-42.6-16.72-20.7-31.79-43.3-44.57-67.5-12.78-24.3-27.2-54.1-42.93-89.2l86.18-57c19.34,51.1,40.97,92.1,64.23,122.6l.33.3Z" fill="#c4090b"/></g><g id="eDAtIflvsio13" transform="translate(11224.320312-373.749609)"><path d="M9775.68,23589h395.22v71.5h-302.16v255.6h272.66v71.7h-272.66v262.8h-93.06v-661.6Z" fill="#202d3b"/><path d="M10128.6,24250.9l316.9-686.8h17l28.2,88.8-263.5,598h-98.6ZM10629,24053l24.2,66.9h-406.3l28.2-66.6h353.9v-.3Zm-208.1-400.1l26.5-88.8h17.1l310.9,686.8h-96.6l-257.6-598h-.3Z" fill="#202d3b"/><path d="M10817,23742.1c29.9-52.1,71.5-92.5,124.6-121.6c53-29.2,113-43.6,180.2-43.6c33.4,0,66.5,4.9,99.3,15.1c32.7,9.8,62.2,23.9,88.4,41.6c26.3,17.7,46.9,38,61.7,60.6l-50.2,48.8c-11.1-18.3-27.2-34.4-48.2-48.8-20.9-14.1-44.5-25.2-70.7-33.4s-53.1-12.1-80.3-12.1c-49.2,0-93.1,11.4-132.1,34.4-39,22.9-69.1,55-91.4,96-21.9,40.9-33.4,87.8-33.7,140.2h-93.1c.7-66.2,15.7-125.1,45.9-177.2h-.4Zm81.3,317.8c22,41.3,52.4,73.4,91.4,96.3c39,23,82.9,34.4,132.1,34.4c27.5,0,54.7-4.2,81.6-12.4c26.8-8.2,51.1-20,73.1-35.1c21.9-15,38.9-32.1,51.4-51.1l49.2,53.1c-16.1,22.6-37.7,42.6-65.3,60.6-27.2,17.7-57.6,31.5-90.7,41.6-33.1,9.9-66.2,15.1-99.3,15.1-67.2,0-127.2-14.7-180.2-43.6-53.1-29.1-94.4-69.8-124.6-121.5-30.1-51.8-45.2-111.1-45.8-177.3h93c.7,52.4,11.8,99.3,33.8,140.6l.3-.7Z" fill="#202d3b"/><path d="M11447.5,23588.4h93.1v662.5h-93.1v-662.5Z" fill="#202d3b"/><path d="M11722.4,23588.4v662.5h-93v-662.5h93Zm289,590.8v71.7h-362v-71.7h362Z" fill="#202d3b"/><path d="M12070.1,23588.4h93.1v662.5h-93.1v-662.5Z" fill="#202d3b"/><path d="M12733.6,23588v71.8h-514.1v-71.8h514.1Zm-210,.4v662.5h-93.4v-662.5h93.4Z" fill="#202d3b"/><path d="M12790,23588.4h93.1v662.5h-93.1v-662.5Z" fill="#202d3b"/><path d="M12971.9,24250.9v-661.9h384.7v71.8h-291.7v590.1h-93Zm394.2-71.7v71.7h-331v-71.7h331Zm-31.2-255.3v71.8h-293.6v-71.8h293.6Z" fill="#202d3b"/><path d="M13527,24239.8c-41.7-14.1-79.7-34.1-114.1-60l26.9-67.1c32.4,23.6,65.9,41.9,99.9,54.7c34.1,12.8,66.2,19,97,19c45.6,0,80.6-9.5,105.5-28.5s37.7-45.6,38.1-80c0-29.1-12.5-56.3-37.4-80.9s-60.3-44.9-106.5-61c-61.9-21.3-109.4-48.5-142.9-82.2-33.4-33.8-50.1-71.1-50.1-112.4c0-34.7,8.2-64.2,24.2-88.8c16.1-24.6,39.7-42.9,70.8-56c31.2-12.8,68.8-19,113.1-19c32.4,0,64.9,4.5,97.3,13.7c32.1,9.2,61.9,22.3,89.5,39l-26.9,64.6c-21.6-14.5-45.6-25.6-71.4-33.5-25.9-7.8-51.8-11.8-78.4-11.8-40.3,0-71.4,8.2-93.4,24.6-21.9,16.4-32.7,39.7-32.7,69.8c0,25.9,12.4,49.8,37,72.4c24.6,22.3,59.6,41.3,105.2,57.1c61.9,20.6,109.4,49.4,142.9,85.8c33.4,36.7,50.1,78.6,50.1,125.8c0,37.4-8.5,69.2-25.2,95.4s-41.3,46.2-73.8,60c-32.4,13.7-71.7,20.6-117.9,20.6-42.6,0-84.9-6.9-126.5-21l-.3-.3Z" fill="#202d3b"/></g><rect width="6810.9641" height="19444.37" rx="0" ry="0" transform="matrix(1.78198 0 0 0.735839 15063.100593 18645)" fill="#fff" stroke-width="0"/><path id="eDAtIflvsio25" d="M17937.2,4128.77l-2953,2328.17l23.5,4290.96l2929.5-6619.13Z" transform="translate(9000.000685-.000693)" fill="#202d3b"/><path id="eDAtIflvsio26" d="M12230.7,2457.6l2364.2,1115.1l52.4,7175.2h-2588.7" transform="translate(10606.569641-.000488)" fill="#202d3b"/><path id="eDAtIflvsio27" d="M10518.5,8198.23L12230.7,2457.6L10518.5,3820.75v4377.48Z" transform="translate(32.443787-8647.486142)" fill="#202d3b"/><path id="eDAtIflvsio28" d="M10518.5,8198.23l1549-490.87-1549,3040.54v-2549.67Z" transform="translate(-2855.409264 6312.269873)" fill="#202d3b"/><g id="eDAtIflvsio29" transform="translate(-2846.54982 6.35)"><path d="M20537,11816.5l2078.047458,3106.178078L23953.4,14890.8h1507.3L20537,11816.5Z" fill="#202d3b"/><path d="M20545.5,11829.2v6815.8h3407.9v-4063.2l-3407.9-2752.6Z" fill="#202d3b"/></g><g id="eDAtIflvsio32" transform="translate(6662.499842 18346.197055)"><path d="M25351.6,23148.6l34.1,4407.3-381.8,560.7-414.8-1229.1c-406.6,536.7-936.5,960.7-1590.9,1271.4-720.2,342.1-1529.6,513.1-2427.8,513.1-1067.9,0-2018.8-223.8-2853.1-671.7-833.9-448-1485-1069.9-1952.6-1865.9-467.9-796.2-701.6-1702.3-701.6-2718.1s232.7-1953.9,698.3-2764.9c266.1-463,613.1-854.3,1060.7-1147.6l371.9,1100.7l595.7-874.9-5.2-653.4c72.7-20.3,147.5-38.6,224.1-54.7c1194.1-254.9,7456.7,50.8,7456.7,50.8l-1326.8,1401.1c0,0-3821.4,25.6-5015.4,102-790.1,50.7-1401.8,495.7-1698.1,1070.2-295.9,574.4-368.9,1041-368.9,1770.7c0,729.8,149.1,1349.8,446.9,1909.4c298.2,559.7,714.4,997.5,1248.2,1312.4c534.1,315.2,1140.3,472.8,1819.2,472.8c604.3,0,1141.7-115.3,1611.2-345.3c469.9-230.1,831-550.5,1083.7-960.8c252.3-410.6,381.4-732.4,368.9-1255l1308.1,18.7-5813-1063.4l839.2-356.5h5383.1Z" fill="url(#eDAtIflvsio33-fill)"/></g><path d="M17591.2,15272.5h-5382.8l-839.5,356.5l5819.9,1040.1-6.6,22.9-1308.1-18.7c12.2,522.7-116.6,844.5-368.9,1255.1-252.7,410.5-613.8,730.7-1083.7,960.7-469.9,230.4-1006.9,345.4-1611.2,345.4-678.9,0-1285.1-157.6-1819.3-472.9-534.1-314.9-949.9-752.3-1248.09-1312.3-297.86-559.7-446.96-1196-446.96-1909.4s73.08-1196.4,368.97-1770.8c295.9-574.1,907.98-1019.4,1698.08-1069.9c1194-76.6,5015.1-101.9,5015.1-101.9l151.7-160.2l1394.3-1394.3h-4423.7l23.3,12.5c-1424.1-24.9-2782-15.4-3275.5,89.8-1068.24,228-1781.28,819.5-2246.91,1630.2-465.63,810.6-698.61,1732.1-698.61,2764.6s233.96,1921.8,701.89,2718.1c467.6,796.3,1118.37,1418.2,1952.64,1865.8c833.99,448,1785.19,671.8,2853.09,671.8c898.2,0,1707.6-171.1,2427.8-513.2c654.1-310.6,1184.2-734.6,1590.9-1271.1l414.8,1228.8l381.5-560.3-34.1-4407.3Z" fill="url(#eDAtIflvsio34-fill)"/><g id="eDAtIflvsio35" transform="translate(4364.720619 0.077765)"><path d="M5686.56,22977.6c-36.37,59-85.85,104.8-149.1,137.6-63.24,32.8-134.34,49.2-213.97,49.2-92.08-.4-174-21-246.42-62.3-72.41-41-128.77-98-169.08-171.1-40.3-73-60.62-155.9-60.62-248.7c0-92.7,19.99-181.2,59.64-256.2s95.03-134,166.13-176c71.11-41.9,151.72-62.9,242.16-62.9c73.07,0,140.24,14.8,201.19,44.2c60.95,29.5,110.1,70.8,148.44,123.3c38.01,52.7,60.95,112.4,68.81,179.2l-112.72,20.3c-4.91-50.8-20.97-96-48.49-135.6-27.53-39.7-63.9-70.8-108.47-92.8-44.56-21.9-94.04-33.1-148.43-33.1-65.87,0-124.85,16.4-176.62,49.5-51.78,33.1-92.08,79-121.25,138.3-29.16,59.3-43.25,126.5-43.25,202.2s14.75,137.9,44.56,194.9c29.5,57,71.11,101.6,123.87,133.4c52.75,31.8,113.38,47.8,180.88,47.8c60.62,0,114.69-12.4,161.87-37.6c47.19-25.3,83.23-60.3,108.79-105.2s37.68-96.4,36.37-153.7l113.05,14.4c-1.96,75.4-20.97,142.2-57.01,201.2l-.33-.3Zm-324.08-201.9v-99.6h379.13l.98,40.3.99,60-381.1-.7Z" fill="#c4090b"/><path d="M5966.4,23118.2c-49.48-27.2-88.15-64.9-115.67-113.4-27.53-48.5-41.62-103.9-41.62-165.5s13.76-116.3,41.62-165.2c27.85-48.5,66.52-86.5,116-113.3c49.48-27.2,105.51-40.7,168.1-40.7c62.58,0,118.62,13.5,168.1,40.7s87.81,64.8,115.67,113.3c27.85,48.5,41.61,103.6,41.61,165.2s-13.76,117-41.61,165.5c-27.86,48.5-66.19,86.5-115.67,113.4-49.48,27.1-105.52,40.6-168.1,40.6-62.59,0-119.28-13.5-168.76-40.6h.33Zm271.64-87.2c30.15-18.7,53.74-44.9,70.46-78c16.71-33.1,25.23-71.1,25.23-113c0-42-8.52-80-25.56-113.1s-40.63-59-70.78-77.7c-30.15-18.6-64.88-28.1-103.55-28.1-38.66,0-73.4,9.1-103.87,27.8-30.48,18.7-54.07,44.6-71.11,77.7s-25.56,71.1-25.56,113c0,42,8.52,80.6,25.89,113.7c17.04,33.1,40.96,59,71.43,77.7c30.48,18.7,64.88,27.8,103.88,27.8c38.99,0,73.4-9.5,103.54-28.1v.3Z" fill="#c4090b"/><path d="M6545.41,22531.6h124.19v616.4h-124.19v-616.4Zm134.67,72.4c18.68-27.5,41.29-48.5,67.83-62.9c26.55-14.1,55.05-21.3,85.86-21.3c41.94,0,79.3,9.8,111.08,29.8c32.11,19.7,56.69,47.9,74.38,84.2c17.7,36.4,26.22,78.4,26.22,126.5l-124.19,1.3c0-28.5-5.25-53.4-15.73-75-10.49-21.6-24.91-38.3-43.58-50.5-18.68-12.1-39.98-17.7-64.23-17.7s-44.56,5.9-63.57,17.7c-19,11.8-34.08,28.5-45.22,49.8-11.47,21.3-18.02,45.9-19.66,73.4l-28.51-54.7c7.21-39.3,20.32-72.4,39-100.3l.32-.3Zm241.83,155h124.19v388.3h-124.19v-388.3Zm119.93-154c19.34-27.5,42.93-48.5,71.11-62.9s58.98-21.6,92.41-21.6c43.25,0,80.93,9.8,113.05,29.8c32.11,20,57.01,48.2,74.71,84.5c17.69,36.4,26.21,79,26.21,127.8l-124.19,1.3c0-29.1-4.92-54.7-14.75-77s-23.92-39.3-41.94-51.1-38.99-18-62.91-18-45.88,5.9-64.88,17.4c-19.01,11.4-34.08,27.8-45.55,48.8-11.47,20.9-18.02,45.2-19.66,72.4l-42.93-53.4c6.88-38,19.99-70.8,39.32-98.3v.3Zm253.63,157.6h124.19v385.4h-124.19v-385.4Z" fill="#c4090b"/><path d="M7647.07,23122.7c-49.81-26.5-88.48-64.5-115.67-113-27.2-48.5-40.96-105.2-40.96-168.8c0-63.5,12.78-119.9,38.01-168.1c25.23-48.5,60.62-85.8,106.49-112.4c45.88-26.5,98.64-39.6,158.27-39.6c59.64,0,112.4,11.8,158.6,35.4s82.25,57,108.46,99.9c26.22,42.9,40.31,92.4,42.27,148.1.33,5.3,0,13.1,0,22.6-.65,9.9-.98,16.8-.98,21l-.65,29.5h-486.28c.65,36.7,9.5,69.5,26.54,98.3s40.63,50.8,70.45,66.5c30.15,15.8,64.23,23.6,102.24,23.6c35.06,0,68.81-6.9,100.92-20.6c32.12-13.8,56.36-31.8,72.75-54.1l86.83,58.7c-26.21,34-62.91,61.6-109.44,82.2-46.53,20.7-95.03,31.1-145.49,31.1-65.21,0-122.55-13.4-172.36-39.9v-.4Zm305.4-426.3c-14.75-24.2-35.39-43.2-61.94-57-26.54-13.8-57.34-20.3-92.07-20.3-34.74,0-67.18,6.9-95.36,20.3-27.85,13.8-49.81,32.8-65.53,57.4-15.73,24.5-23.93,52.7-24.25,84.2h361.43c-.33-31.8-7.87-60-22.61-84.6h.33Z" fill="#c4090b"/><path d="M8289.32,23139.8c-44.24-12.8-84.54-29.8-121.24-51.8l38.01-92.1c36.04,20.7,70.45,36.4,104.2,46.9s63.24,15.7,89.13,15.7c37.68,0,66.52-6.9,86.51-20.3s29.82-33.8,29.82-60.6c-.33-25.3-10.82-46.9-31.46-64.9-20.64-17.7-56.03-33.8-105.84-48.2-66.19-18.7-115.34-43.9-147.13-75-31.78-31.5-47.84-67.2-47.84-108.1c0-35.4,8.85-64.9,26.54-89.2c17.7-23.9,41.95-41.9,73.07-54c30.81-12.2,65.87-18.1,105.19-18.1c79.3,0,150.08,18.7,212.01,56.4l-21.96,93.4c-24.9-16.4-54.06-29.5-87.49-39-33.42-9.5-64.22-14.1-92.4-14.1-65.54,0-98.31,22.6-98.31,67.8c0,20.3,12.78,38.4,38.67,53.4c25.89,15.4,65.21,31.5,117.96,48.5c59.97,19.4,104.54,44.6,133.04,76.4c28.51,31.8,42.93,70.8,42.93,117.3c0,58.7-19.33,103.2-57.67,133.4-38.34,30.1-91.43,44.9-159.26,44.5-39.97,0-81.92-6.2-126.15-19l-.33.7Z" fill="#c4090b"/></g><rect width="12071.869881" height="11972.4" rx="0" ry="0" transform="matrix(.626827 0 0 0.97237 20152.299789 174.893874)" fill="#fff" stroke-width="0"/>
<script><![CDATA[
!function(t,n){"object"==typeof exports&&"undefined"!=typeof module?module.exports=n():"function"==typeof __SVGATOR_DEFINE__&&__SVGATOR_DEFINE__.amd?__SVGATOR_DEFINE__(n):((t="undefined"!=typeof globalThis?globalThis:t||self).__SVGATOR_PLAYER__=t.__SVGATOR_PLAYER__||{},t.__SVGATOR_PLAYER__["5c7f360c"]=n())}(this,(function(){"use strict";function t(t,n){var e=Object.keys(t);if(Object.getOwnPropertySymbols){var r=Object.getOwnPropertySymbols(t);n&&(r=r.filter((function(n){return Object.getOwnPropertyDescriptor(t,n).enumerable}))),e.push.apply(e,r)}return e}function n(n){for(var e=1;e<arguments.length;e++){var r=null!=arguments[e]?arguments[e]:{};e%2?t(Object(r),!0).forEach((function(t){u(n,t,r[t])})):Object.getOwnPropertyDescriptors?Object.defineProperties(n,Object.getOwnPropertyDescriptors(r)):t(Object(r)).forEach((function(t){Object.defineProperty(n,t,Object.getOwnPropertyDescriptor(r,t))}))}return n}function e(t){return(e="function"==typeof Symbol&&"symbol"==typeof Symbol.iterator?function(t){return typeof t}:function(t){return t&&"function"==typeof Symbol&&t.constructor===Symbol&&t!==Symbol.prototype?"symbol":typeof t})(t)}function r(t,n){if(!(t instanceof n))throw new TypeError("Cannot call a class as a function")}function i(t,n){for(var e=0;e<n.length;e++){var r=n[e];r.enumerable=r.enumerable||!1,r.configurable=!0,"value"in r&&(r.writable=!0),Object.defineProperty(t,r.key,r)}}function o(t,n,e){return n&&i(t.prototype,n),e&&i(t,e),t}function u(t,n,e){return n in t?Object.defineProperty(t,n,{value:e,enumerable:!0,configurable:!0,writable:!0}):t[n]=e,t}function a(t){return(a=Object.setPrototypeOf?Object.getPrototypeOf:function(t){return t.__proto__||Object.getPrototypeOf(t)})(t)}function l(t,n){return(l=Object.setPrototypeOf||function(t,n){return t.__proto__=n,t})(t,n)}function s(){if("undefined"==typeof Reflect||!Reflect.construct)return!1;if(Reflect.construct.sham)return!1;if("function"==typeof Proxy)return!0;try{return Boolean.prototype.valueOf.call(Reflect.construct(Boolean,[],(function(){}))),!0}catch(t){return!1}}function f(t,n,e){return(f=s()?Reflect.construct:function(t,n,e){var r=[null];r.push.apply(r,n);var i=new(Function.bind.apply(t,r));return e&&l(i,e.prototype),i}).apply(null,arguments)}function c(t,n){if(n&&("object"==typeof n||"function"==typeof n))return n;if(void 0!==n)throw new TypeError("Derived constructors may only return object or undefined");return function(t){if(void 0===t)throw new ReferenceError("this hasn't been initialised - super() hasn't been called");return t}(t)}function h(t,n,e){return(h="undefined"!=typeof Reflect&&Reflect.get?Reflect.get:function(t,n,e){var r=function(t,n){for(;!Object.prototype.hasOwnProperty.call(t,n)&&null!==(t=a(t)););return t}(t,n);if(r){var i=Object.getOwnPropertyDescriptor(r,n);return i.get?i.get.call(e):i.value}})(t,n,e||t)}function v(t){return function(t){if(Array.isArray(t))return y(t)}(t)||function(t){if("undefined"!=typeof Symbol&&null!=t[Symbol.iterator]||null!=t["@@iterator"])return Array.from(t)}(t)||function(t,n){if(!t)return;if("string"==typeof t)return y(t,n);var e=Object.prototype.toString.call(t).slice(8,-1);"Object"===e&&t.constructor&&(e=t.constructor.name);if("Map"===e||"Set"===e)return Array.from(t);if("Arguments"===e||/^(?:Ui|I)nt(?:8|16|32)(?:Clamped)?Array$/.test(e))return y(t,n)}(t)||function(){throw new TypeError("Invalid attempt to spread non-iterable instance.\nIn order to be iterable, non-array objects must have a [Symbol.iterator]() method.")}()}function y(t,n){(null==n||n>t.length)&&(n=t.length);for(var e=0,r=new Array(n);e<n;e++)r[e]=t[e];return r}function g(t,n,e){if(Number.isInteger(t))return t;var r=Math.pow(10,n);return Math[e]((+t+Number.EPSILON)*r)/r}Number.isInteger||(Number.isInteger=function(t){return"number"==typeof t&&isFinite(t)&&Math.floor(t)===t}),Number.EPSILON||(Number.EPSILON=2220446049250313e-31);var d=p(Math.pow(10,-6));function p(t){var n=arguments.length>1&&void 0!==arguments[1]?arguments[1]:6;return g(t,n,"round")}function m(t,n){var e=arguments.length>2&&void 0!==arguments[2]?arguments[2]:d;return Math.abs(t-n)<e}p(Math.pow(10,-2)),p(Math.pow(10,-4));var b=Math.PI/180;function w(t){return t}function A(t,n,e){var r=1-e;return 3*e*r*(t*r+n*e)+e*e*e}function _(){var t=arguments.length>0&&void 0!==arguments[0]?arguments[0]:0,n=arguments.length>1&&void 0!==arguments[1]?arguments[1]:0,e=arguments.length>2&&void 0!==arguments[2]?arguments[2]:1,r=arguments.length>3&&void 0!==arguments[3]?arguments[3]:1;return t<0||t>1||e<0||e>1?null:m(t,n)&&m(e,r)?w:function(i){if(i<=0)return t>0?i*n/t:0===n&&e>0?i*r/e:0;if(i>=1)return e<1?1+(i-1)*(r-1)/(e-1):1===e&&t<1?1+(i-1)*(n-1)/(t-1):1;for(var o,u=0,a=1;u<a;){var l=A(t,e,o=(u+a)/2);if(m(i,l))break;l<i?u=o:a=o}return A(n,r,o)}}function x(){return 1}function k(t){return 1===t?1:0}function S(){var t=arguments.length>0&&void 0!==arguments[0]?arguments[0]:1,n=arguments.length>1&&void 0!==arguments[1]?arguments[1]:0;if(1===t){if(0===n)return k;if(1===n)return x}var e=1/t;return function(t){return t>=1?1:(t+=n*e)-t%e}}var O=Math.sin,j=Math.cos,M=Math.acos,E=Math.asin,P=Math.tan,I=Math.atan2,R=Math.PI/180,F=180/Math.PI,N=Math.sqrt,T=function(){function t(){var n=arguments.length>0&&void 0!==arguments[0]?arguments[0]:1,e=arguments.length>1&&void 0!==arguments[1]?arguments[1]:0,i=arguments.length>2&&void 0!==arguments[2]?arguments[2]:0,o=arguments.length>3&&void 0!==arguments[3]?arguments[3]:1,u=arguments.length>4&&void 0!==arguments[4]?arguments[4]:0,a=arguments.length>5&&void 0!==arguments[5]?arguments[5]:0;r(this,t),this.m=[n,e,i,o,u,a],this.i=null,this.w=null,this.s=null}return o(t,[{key:"determinant",get:function(){var t=this.m;return t[0]*t[3]-t[1]*t[2]}},{key:"isIdentity",get:function(){if(null===this.i){var t=this.m;this.i=1===t[0]&&0===t[1]&&0===t[2]&&1===t[3]&&0===t[4]&&0===t[5]}return this.i}},{key:"point",value:function(t,n){var e=this.m;return{x:e[0]*t+e[2]*n+e[4],y:e[1]*t+e[3]*n+e[5]}}},{key:"translateSelf",value:function(){var t=arguments.length>0&&void 0!==arguments[0]?arguments[0]:0,n=arguments.length>1&&void 0!==arguments[1]?arguments[1]:0;if(!t&&!n)return this;var e=this.m;return e[4]+=e[0]*t+e[2]*n,e[5]+=e[1]*t+e[3]*n,this.w=this.s=this.i=null,this}},{key:"rotateSelf",value:function(){var t=arguments.length>0&&void 0!==arguments[0]?arguments[0]:0;if(t%=360){var n=O(t*=R),e=j(t),r=this.m,i=r[0],o=r[1];r[0]=i*e+r[2]*n,r[1]=o*e+r[3]*n,r[2]=r[2]*e-i*n,r[3]=r[3]*e-o*n,this.w=this.s=this.i=null}return this}},{key:"scaleSelf",value:function(){var t=arguments.length>0&&void 0!==arguments[0]?arguments[0]:1,n=arguments.length>1&&void 0!==arguments[1]?arguments[1]:1;if(1!==t||1!==n){var e=this.m;e[0]*=t,e[1]*=t,e[2]*=n,e[3]*=n,this.w=this.s=this.i=null}return this}},{key:"skewSelf",value:function(t,n){if(n%=360,(t%=360)||n){var e=this.m,r=e[0],i=e[1],o=e[2],u=e[3];t&&(t=P(t*R),e[2]+=r*t,e[3]+=i*t),n&&(n=P(n*R),e[0]+=o*n,e[1]+=u*n),this.w=this.s=this.i=null}return this}},{key:"resetSelf",value:function(){var t=arguments.length>0&&void 0!==arguments[0]?arguments[0]:1,n=arguments.length>1&&void 0!==arguments[1]?arguments[1]:0,e=arguments.length>2&&void 0!==arguments[2]?arguments[2]:0,r=arguments.length>3&&void 0!==arguments[3]?arguments[3]:1,i=arguments.length>4&&void 0!==arguments[4]?arguments[4]:0,o=arguments.length>5&&void 0!==arguments[5]?arguments[5]:0,u=this.m;return u[0]=t,u[1]=n,u[2]=e,u[3]=r,u[4]=i,u[5]=o,this.w=this.s=this.i=null,this}},{key:"recomposeSelf",value:function(){var t=arguments.length>0&&void 0!==arguments[0]?arguments[0]:null,n=arguments.length>1&&void 0!==arguments[1]?arguments[1]:null,e=arguments.length>2&&void 0!==arguments[2]?arguments[2]:null,r=arguments.length>3&&void 0!==arguments[3]?arguments[3]:null,i=arguments.length>4&&void 0!==arguments[4]?arguments[4]:null;return this.isIdentity||this.resetSelf(),t&&(t.x||t.y)&&this.translateSelf(t.x,t.y),n&&this.rotateSelf(n),e&&(e.x&&this.skewSelf(e.x,0),e.y&&this.skewSelf(0,e.y)),!r||1===r.x&&1===r.y||this.scaleSelf(r.x,r.y),i&&(i.x||i.y)&&this.translateSelf(i.x,i.y),this}},{key:"decompose",value:function(){var t=arguments.length>0&&void 0!==arguments[0]?arguments[0]:0,n=arguments.length>1&&void 0!==arguments[1]?arguments[1]:0,e=this.m,r=e[0]*e[0]+e[1]*e[1],i=[[e[0],e[1]],[e[2],e[3]]],o=N(r);if(0===o)return{origin:{x:p(e[4]),y:p(e[5])},translate:{x:p(t),y:p(n)},scale:{x:0,y:0},skew:{x:0,y:0},rotate:0};i[0][0]/=o,i[0][1]/=o;var u=e[0]*e[3]-e[1]*e[2]<0;u&&(o=-o);var a=i[0][0]*i[1][0]+i[0][1]*i[1][1];i[1][0]-=i[0][0]*a,i[1][1]-=i[0][1]*a;var l=N(i[1][0]*i[1][0]+i[1][1]*i[1][1]);if(0===l)return{origin:{x:p(e[4]),y:p(e[5])},translate:{x:p(t),y:p(n)},scale:{x:p(o),y:0},skew:{x:0,y:0},rotate:0};i[1][0]/=l,i[1][1]/=l,a/=l;var s=0;return i[1][1]<0?(s=M(i[1][1])*F,i[0][1]<0&&(s=360-s)):s=E(i[0][1])*F,u&&(s=-s),a=I(a,N(i[0][0]*i[0][0]+i[0][1]*i[0][1]))*F,u&&(a=-a),{origin:{x:p(e[4]),y:p(e[5])},translate:{x:p(t),y:p(n)},scale:{x:p(o),y:p(l)},skew:{x:p(a),y:0},rotate:p(s)}}},{key:"clone",value:function(){var t=this.m;return new this.constructor(t[0],t[1],t[2],t[3],t[4],t[5])}},{key:"toString",value:function(){var t=arguments.length>0&&void 0!==arguments[0]?arguments[0]:" ";if(null===this.s){var n=this.m.map((function(t){return p(t)}));1===n[0]&&0===n[1]&&0===n[2]&&1===n[3]?this.s="translate("+n[4]+t+n[5]+")":this.s="matrix("+n.join(t)+")"}return this.s}}],[{key:"create",value:function(t){return t?Array.isArray(t)?f(this,v(t)):t instanceof this?t.clone():(new this).recomposeSelf(t.origin,t.rotate,t.skew,t.scale,t.translate):new this}}]),t}();function q(t,n,e){return t>=.5?e:n}function B(t,n,e){return 0===t||n===e?n:t*(e-n)+n}function D(t,n,e){var r=B(t,n,e);return r<=0?0:r}function L(t,n,e){var r=B(t,n,e);return r<=0?0:r>=1?1:r}function C(t,n,e){return 0===t?n:1===t?e:{x:B(t,n.x,e.x),y:B(t,n.y,e.y)}}function V(t,n,e){var r=function(t,n,e){return Math.round(B(t,n,e))}(t,n,e);return r<=0?0:r>=255?255:r}function G(t,n,e){return 0===t?n:1===t?e:{r:V(t,n.r,e.r),g:V(t,n.g,e.g),b:V(t,n.b,e.b),a:B(t,null==n.a?1:n.a,null==e.a?1:e.a)}}function z(t,n){for(var e=[],r=0;r<t;r++)e.push(n);return e}function Y(t,n){if(--n<=0)return t;var e=(t=Object.assign([],t)).length;do{for(var r=0;r<e;r++)t.push(t[r])}while(--n>0);return t}var $,U=function(){function t(n){r(this,t),this.list=n,this.length=n.length}return o(t,[{key:"setAttribute",value:function(t,n){for(var e=this.list,r=0;r<this.length;r++)e[r].setAttribute(t,n)}},{key:"removeAttribute",value:function(t){for(var n=this.list,e=0;e<this.length;e++)n[e].removeAttribute(t)}},{key:"style",value:function(t,n){for(var e=this.list,r=0;r<this.length;r++)e[r].style[t]=n}}]),t}(),Q=/-./g,H=function(t,n){return n.toUpperCase()};function J(t){return"function"==typeof t?t:q}function Z(t){return t?"function"==typeof t?t:Array.isArray(t)?function(t){var n=arguments.length>1&&void 0!==arguments[1]?arguments[1]:w;if(!Array.isArray(t))return n;switch(t.length){case 1:return S(t[0])||n;case 2:return S(t[0],t[1])||n;case 4:return _(t[0],t[1],t[2],t[3])||n}return n}(t,null):function(t,n){var e=arguments.length>2&&void 0!==arguments[2]?arguments[2]:w;switch(t){case"linear":return w;case"steps":return S(n.steps||1,n.jump||0)||e;case"bezier":case"cubic-bezier":return _(n.x1||0,n.y1||0,n.x2||0,n.y2||0)||e}return e}(t.type,t.value,null):null}function K(t,n,e){var r=arguments.length>3&&void 0!==arguments[3]&&arguments[3],i=n.length-1;if(t<=n[0].t)return r?[0,0,n[0].v]:n[0].v;if(t>=n[i].t)return r?[i,1,n[i].v]:n[i].v;var o,u=n[0],a=null;for(o=1;o<=i;o++){if(!(t>n[o].t)){a=n[o];break}u=n[o]}return null==a?r?[i,1,n[i].v]:n[i].v:u.t===a.t?r?[o,1,a.v]:a.v:(t=(t-u.t)/(a.t-u.t),u.e&&(t=u.e(t)),r?[o,t,e(t,u.v,a.v)]:e(t,u.v,a.v))}function W(t,n){var e=arguments.length>2&&void 0!==arguments[2]?arguments[2]:null;return t&&t.length?"function"!=typeof n?null:("function"!=typeof e&&(e=null),function(r){var i=K(r,t,n);return null!=i&&e&&(i=e(i)),i}):null}function X(t,n){return t.t-n.t}function tt(t,n,r,i,o){var u,a="@"===r[0],l="#"===r[0],s=$[r],f=q;switch(a?(u=r.substr(1),r=u.replace(Q,H)):l&&(r=r.substr(1)),e(s)){case"function":if(f=s(i,o,K,Z,r,a,n,t),l)return f;break;case"string":f=W(i,J(s));break;case"object":if((f=W(i,J(s.i),s.f))&&"function"==typeof s.u)return s.u(n,f,r,a,t)}return f?function(t,n,e){if(arguments.length>3&&void 0!==arguments[3]&&arguments[3])return t instanceof U?function(r){return t.style(n,e(r))}:function(r){return t.style[n]=e(r)};if(Array.isArray(n)){var r=n.length;return function(i){var o=e(i);if(null==o)for(var u=0;u<r;u++)t[u].removeAttribute(n);else for(var a=0;a<r;a++)t[a].setAttribute(n,o)}}return function(r){var i=e(r);null==i?t.removeAttribute(n):t.setAttribute(n,i)}}(n,r,f,a):null}function nt(t,n,r,i){if(!i||"object"!==e(i))return null;var o=null,u=null;return Array.isArray(i)?u=function(t){if(!t||!t.length)return null;for(var n=0;n<t.length;n++)t[n].e&&(t[n].e=Z(t[n].e));return t.sort(X)}(i):(u=i.keys,o=i.data||null),u?tt(t,n,r,u,o):null}function et(t,n,e){if(!e)return null;var r=[];for(var i in e)if(e.hasOwnProperty(i)){var o=nt(t,n,i,e[i]);o&&r.push(o)}return r.length?r:null}function rt(t,n){if(!n.settings.duration||n.settings.duration<0)return null;var e,r,i,o,u,a=function(t,n){if(!n)return null;var e=[];if(Array.isArray(n))for(var r=n.length,i=0;i<r;i++){var o=n[i];if(2===o.length){var u=null;if("string"==typeof o[0])u=t.getElementById(o[0]);else if(Array.isArray(o[0])){u=[];for(var a=0;a<o[0].length;a++)if("string"==typeof o[0][a]){var l=t.getElementById(o[0][a]);l&&u.push(l)}u=u.length?1===u.length?u[0]:new U(u):null}if(u){var s=et(t,u,o[1]);s&&(e=e.concat(s))}}}else for(var f in n)if(n.hasOwnProperty(f)){var c=t.getElementById(f);if(c){var h=et(t,c,n[f]);h&&(e=e.concat(h))}}return e.length?e:null}(t,n.elements);return a?(e=a,r=n.settings,i=r.duration,o=e.length,u=null,function(t,n){var a=r.iterations||1/0,l=(r.alternate&&a%2==0)^r.direction>0?i:0,s=t%i,f=1+(t-s)/i;n*=r.direction,r.alternate&&f%2==0&&(n=-n);var c=!1;if(f>a)s=l,c=!0,-1===r.fill&&(s=r.direction>0?0:i);else if(n<0&&(s=i-s),s===u)return!1;u=s;for(var h=0;h<o;h++)e[h](s);return c}):null}function it(t,n){for(var e=n.querySelectorAll("svg"),r=0;r<e.length;r++)if(e[r].id===t.root&&!e[r].svgatorAnimation)return e[r].svgatorAnimation=!0,e[r];return null}function ot(t){var n=function(t){return t.shadowRoot};return document?Array.from(t.querySelectorAll(":not("+["a","area","audio","br","canvas","circle","datalist","embed","g","head","hr","iframe","img","input","link","object","path","polygon","rect","script","source","style","svg","title","track","video"].join()+")")).filter(n).map(n):[]}function ut(t){var n=arguments.length>1&&void 0!==arguments[1]?arguments[1]:document,e=arguments.length>2&&void 0!==arguments[2]?arguments[2]:0,r=it(t,n);if(r)return r;if(e>=20)return null;for(var i=ot(n),o=0;o<i.length;o++){var u=ut(t,i[o],e+1);if(u)return u}return null}function at(t,n){if($=n,!t||!t.root||!Array.isArray(t.animations))return null;var e=ut(t);if(!e)return null;var r=t.animations.map((function(t){return rt(e,t)})).filter((function(t){return!!t}));return r.length?{svg:e,animations:r,animationSettings:t.animationSettings,options:t.options||void 0}:null}function lt(t){var n=arguments.length>1&&void 0!==arguments[1]?arguments[1]:null,e=arguments.length>2&&void 0!==arguments[2]?arguments[2]:Number,r=arguments.length>3&&void 0!==arguments[3]?arguments[3]:"undefined"!=typeof BigInt&&BigInt,i="0x"+(t.replace(/[^0-9a-fA-F]+/g,"")||27);return n&&r&&e.isSafeInteger&&!e.isSafeInteger(+i)?e(r(i))%n+n:+i}function st(t,n,e){return!t||!e||n>t.length?t:t.substring(0,n)+st(t.substring(n+1),e,e)}function ft(t){var n=arguments.length>1&&void 0!==arguments[1]?arguments[1]:27;return!t||t%n?t%n:[0,1].includes(n)?n:ft(t/n,n)}function ct(t,n,e){if(t&&t.length){var r=lt(e),i=ft(r)+5,o=st(t,ft(r,5),i);return o=o.replace(/\x7c$/g,"==").replace(/\x2f$/g,"="),o=function(t,n,e){var r=+("0x"+t.substring(0,4));t=t.substring(4);for(var i=lt(n,r)%r+e%27,o=[],u=0;u<t.length;u+=2)if("|"!==t[u]){var a=+("0x"+t[u]+t[u+1])-i;o.push(a)}else{var l=+("0x"+t.substring(u+1,u+1+4))-i;u+=3,o.push(l)}return String.fromCharCode.apply(String,o)}(o=(o=atob(o)).replace(/[\x41-\x5A]/g,""),n,r),o=JSON.parse(o)}}var ht=[{key:"alternate",def:!1},{key:"fill",def:1},{key:"iterations",def:0},{key:"direction",def:1},{key:"speed",def:1},{key:"fps",def:100}],vt=function(){function t(n,e){var i=this,o=arguments.length>2&&void 0!==arguments[2]?arguments[2]:null;r(this,t),this._id=0,this._running=!1,this._rollingBack=!1,this._animations=n,this._settings=e,(!o||o<"2022-05-02")&&delete this._settings.speed,ht.forEach((function(t){i._settings[t.key]=i._settings[t.key]||t.def})),this.duration=e.duration,this.offset=e.offset||0,this.rollbackStartOffset=0}return o(t,[{key:"alternate",get:function(){return this._settings.alternate}},{key:"fill",get:function(){return this._settings.fill}},{key:"iterations",get:function(){return this._settings.iterations}},{key:"direction",get:function(){return this._settings.direction}},{key:"speed",get:function(){return this._settings.speed}},{key:"fps",get:function(){return this._settings.fps}},{key:"maxFiniteDuration",get:function(){return this.iterations>0?this.iterations*this.duration:this.duration}},{key:"_apply",value:function(t){for(var n=arguments.length>1&&void 0!==arguments[1]?arguments[1]:{},e=this._animations,r=e.length,i=0,o=0;o<r;o++)n[o]?i++:(n[o]=e[o](t,1),n[o]&&i++);return i}},{key:"_rollback",value:function(t){var n=this,e=1/0,r=null;this.rollbackStartOffset=t,this._rollingBack=!0,this._running=!0;this._id=window.requestAnimationFrame((function i(o){if(n._rollingBack){null==r&&(r=o);var u=Math.round(t-(o-r)*n.speed);if(u>n.duration&&e!==1/0){var a=!!n.alternate&&u/n.duration%2>1,l=u%n.duration;u=(l+=a?n.duration:0)||n.duration}var s=(n.fps?1e3/n.fps:0)*n.speed,f=Math.max(0,u);f<=e-s&&(n.offset=f,e=f,n._apply(f));var c=n.iterations>0&&-1===n.fill&&u>=n.maxFiniteDuration;(u<=0||n.offset<u||c)&&n.stop(),n._id=window.requestAnimationFrame(i)}}))}},{key:"_start",value:function(){var t=this,n=arguments.length>0&&void 0!==arguments[0]?arguments[0]:0,e=-1/0,r=null,i={};this._running=!0;var o=function o(u){null==r&&(r=u);var a=Math.round((u-r)*t.speed+n),l=(t.fps?1e3/t.fps:0)*t.speed;if(a>=e+l&&!t._rollingBack&&(t.offset=a,e=a,t._apply(a,i)===t._animations.length))return void t.pause(!0);t._id=window.requestAnimationFrame(o)};this._id=window.requestAnimationFrame(o)}},{key:"_pause",value:function(){this._id&&window.cancelAnimationFrame(this._id),this._running=!1}},{key:"play",value:function(){if(!this._running)return this._rollingBack?this._rollback(this.offset):this._start(this.offset)}},{key:"stop",value:function(){this._pause(),this.offset=0,this.rollbackStartOffset=0,this._rollingBack=!1,this._apply(0)}},{key:"reachedToEnd",value:function(){return this.iterations>0&&this.offset>=this.iterations*this.duration}},{key:"restart",value:function(){var t=arguments.length>0&&void 0!==arguments[0]&&arguments[0];this.stop(t),this.play(t)}},{key:"pause",value:function(){this._pause()}},{key:"reverse",value:function(){this.direction=-this.direction}}],[{key:"build",value:function(t,n){delete t.animationSettings,t.options=ct(t.options,t.root,"5c7f360c"),t.animations.map((function(n){n.settings=ct(n.s,t.root,"5c7f360c"),delete n.s,t.animationSettings||(t.animationSettings=n.settings)}));var e=t.version;if(!(t=at(t,n)))return null;var r=t.options||{},i=new this(t.animations,t.animationSettings,e);return{el:t.svg,options:r,player:i}}},{key:"push",value:function(t){return this.build(t)}},{key:"init",value:function(){var t=this,n=window.__SVGATOR_PLAYER__&&window.__SVGATOR_PLAYER__["5c7f360c"];Array.isArray(n)&&n.splice(0).forEach((function(n){return t.build(n)}))}}]),t}();function yt(t){return p(t)+""}function gt(t){var n=arguments.length>1&&void 0!==arguments[1]?arguments[1]:" ";return t&&t.length?t.map(yt).join(n):""}function dt(t){if(!t)return"transparent";if(null==t.a||t.a>=1){var n=function(t){return 1===(t=parseInt(t).toString(16)).length?"0"+t:t},e=function(t){return t.charAt(0)===t.charAt(1)},r=n(t.r),i=n(t.g),o=n(t.b);return e(r)&&e(i)&&e(o)&&(r=r.charAt(0),i=i.charAt(0),o=o.charAt(0)),"#"+r+i+o}return"rgba("+t.r+","+t.g+","+t.b+","+t.a+")"}function pt(t){return t?"url(#"+t+")":"none"}!function(){for(var t=0,n=["ms","moz","webkit","o"],e=0;e<n.length&&!window.requestAnimationFrame;++e)window.requestAnimationFrame=window[n[e]+"RequestAnimationFrame"],window.cancelAnimationFrame=window[n[e]+"CancelAnimationFrame"]||window[n[e]+"CancelRequestAnimationFrame"];window.requestAnimationFrame||(window.requestAnimationFrame=function(n){var e=Date.now(),r=Math.max(0,16-(e-t)),i=window.setTimeout((function(){n(e+r)}),r);return t=e+r,i},window.cancelAnimationFrame=window.clearTimeout)}();var mt={f:null,i:function(t,n,e){return 0===t?n:1===t?e:{x:D(t,n.x,e.x),y:D(t,n.y,e.y)}},u:function(t,n){return function(e){var r=n(e);t.setAttribute("rx",yt(r.x)),t.setAttribute("ry",yt(r.y))}}},bt={f:null,i:function(t,n,e){return 0===t?n:1===t?e:{width:D(t,n.width,e.width),height:D(t,n.height,e.height)}},u:function(t,n){return function(e){var r=n(e);t.setAttribute("width",yt(r.width)),t.setAttribute("height",yt(r.height))}}};Object.freeze({M:2,L:2,Z:0,H:1,V:1,C:6,Q:4,T:2,S:4,A:7});var wt={},At=null;function _t(t){var n=function(){if(At)return At;if("object"!==("undefined"==typeof document?"undefined":e(document))||!document.createElementNS)return{};var t=document.createElementNS("http://www.w3.org/2000/svg","svg");return t&&t.style?(t.style.position="absolute",t.style.opacity="0.01",t.style.zIndex="-9999",t.style.left="-9999px",t.style.width="1px",t.style.height="1px",At={svg:t}):{}}().svg;if(!n)return function(t){return null};var r=document.createElementNS(n.namespaceURI,"path");r.setAttributeNS(null,"d",t),r.setAttributeNS(null,"fill","none"),r.setAttributeNS(null,"stroke","none"),n.appendChild(r);var i=r.getTotalLength();return function(t){var n=r.getPointAtLength(i*t);return{x:n.x,y:n.y}}}function xt(t){return wt[t]?wt[t]:wt[t]=_t(t)}function kt(t,n,e,r){if(!t||!r)return!1;var i=["M",t.x,t.y];if(n&&e&&(i.push("C"),i.push(n.x),i.push(n.y),i.push(e.x),i.push(e.y)),n?!e:e){var o=n||e;i.push("Q"),i.push(o.x),i.push(o.y)}return n||e||i.push("L"),i.push(r.x),i.push(r.y),i.join(" ")}function St(t,n,e,r){var i=arguments.length>4&&void 0!==arguments[4]?arguments[4]:1,o=kt(t,n,e,r),u=xt(o);try{return u(i)}catch(t){return null}}function Ot(t,n,e){return t+(n-t)*e}function jt(t,n,e){var r=arguments.length>3&&void 0!==arguments[3]&&arguments[3],i={x:Ot(t.x,n.x,e),y:Ot(t.y,n.y,e)};return r&&(i.a=Mt(t,n)),i}function Mt(t,n){return Math.atan2(n.y-t.y,n.x-t.x)}function Et(t,n,e,r){var i=1-r;return i*i*t+2*i*r*n+r*r*e}function Pt(t,n,e,r){return 2*(1-r)*(n-t)+2*r*(e-n)}function It(t,n,e,r){var i=arguments.length>4&&void 0!==arguments[4]&&arguments[4],o=St(t,n,null,e,r);return o||(o={x:Et(t.x,n.x,e.x,r),y:Et(t.y,n.y,e.y,r)}),i&&(o.a=Rt(t,n,e,r)),o}function Rt(t,n,e,r){return Math.atan2(Pt(t.y,n.y,e.y,r),Pt(t.x,n.x,e.x,r))}function Ft(t,n,e,r,i){var o=i*i;return i*o*(r-t+3*(n-e))+3*o*(t+e-2*n)+3*i*(n-t)+t}function Nt(t,n,e,r,i){var o=1-i;return 3*(o*o*(n-t)+2*o*i*(e-n)+i*i*(r-e))}function Tt(t,n,e,r,i){var o=arguments.length>5&&void 0!==arguments[5]&&arguments[5],u=St(t,n,e,r,i);return u||(u={x:Ft(t.x,n.x,e.x,r.x,i),y:Ft(t.y,n.y,e.y,r.y,i)}),o&&(u.a=qt(t,n,e,r,i)),u}function qt(t,n,e,r,i){return Math.atan2(Nt(t.y,n.y,e.y,r.y,i),Nt(t.x,n.x,e.x,r.x,i))}function Bt(t,n,e){var r=arguments.length>3&&void 0!==arguments[3]&&arguments[3];if(Lt(n)){if(Ct(e))return It(n,e.start,e,t,r)}else if(Lt(e)){if(Vt(n))return It(n,n.end,e,t,r)}else{if(Vt(n))return Ct(e)?Tt(n,n.end,e.start,e,t,r):It(n,n.end,e,t,r);if(Ct(e))return It(n,e.start,e,t,r)}return jt(n,e,t,r)}function Dt(t,n,e){var r=Bt(t,n,e,!0);return r.a=function(t){return arguments.length>1&&void 0!==arguments[1]&&arguments[1]?t+Math.PI:t}(r.a)/b,r}function Lt(t){return!t.type||"corner"===t.type}function Ct(t){return null!=t.start&&!Lt(t)}function Vt(t){return null!=t.end&&!Lt(t)}var Gt=new T;var zt={f:yt,i:B},Yt={f:yt,i:L};function $t(t,n,e){return t.map((function(t){return function(t,n,e){var r=t.v;if(!r||"g"!==r.t||r.s||!r.v||!r.r)return t;var i=e.getElementById(r.r),o=i&&i.querySelectorAll("stop")||[];return r.s=r.v.map((function(t,n){var e=o[n]&&o[n].getAttribute("offset");return{c:t,o:e=p(parseInt(e)/100)}})),delete r.v,t}(t,0,e)}))}var Ut={gt:"gradientTransform",c:{x:"cx",y:"cy"},rd:"r",f:{x:"x1",y:"y1"},to:{x:"x2",y:"y2"}};function Qt(t,n,r,i,o,u,a,l){return $t(t,0,l),n=function(t,n,e){for(var r,i,o,u=t.length-1,a={},l=0;l<=u;l++)(r=t[l]).e&&(r.e=n(r.e)),r.v&&"g"===(i=r.v).t&&i.r&&(o=e.getElementById(i.r))&&(a[i.r]={e:o,s:o.querySelectorAll("stop")});return a}(t,i,l),function(i){var o=r(i,t,Ht);if(!o)return"none";if("c"===o.t)return dt(o.v);if("g"===o.t){if(!n[o.r])return pt(o.r);var u=n[o.r];return function(t,n){for(var e=t.s,r=e.length;r<n.length;r++){var i=e[e.length-1].cloneNode();i.id=Kt(i.id),t.e.appendChild(i),e=t.s=t.e.querySelectorAll("stop")}for(var o=0,u=e.length,a=n.length-1;o<u;o++)e[o].setAttribute("stop-color",dt(n[Math.min(o,a)].c)),e[o].setAttribute("offset",n[Math.min(o,a)].o)}(u,o.s),Object.keys(Ut).forEach((function(t){if(void 0!==o[t])if("object"!==e(Ut[t])){var n,r="gt"===t?(n=o[t],Array.isArray(n)?"matrix("+n.join(" ")+")":""):o[t],i=Ut[t];u.e.setAttribute(i,r)}else Object.keys(Ut[t]).forEach((function(n){if(void 0!==o[t][n]){var e=o[t][n],r=Ut[t][n];u.e.setAttribute(r,e)}}))})),pt(o.r)}return"none"}}function Ht(t,e,r){if(0===t)return e;if(1===t)return r;if(e&&r){var i=e.t;if(i===r.t)switch(e.t){case"c":return{t:i,v:G(t,e.v,r.v)};case"g":if(e.r===r.r){var o={t:i,s:Jt(t,e.s,r.s),r:e.r};return e.gt&&r.gt&&(o.gt=function(t,n,e){var r=n.length;if(r!==e.length)return q(t,n,e);for(var i=new Array(r),o=0;o<r;o++)i[o]=B(t,n[o],e[o]);return i}(t,e.gt,r.gt)),e.c?(o.c=C(t,e.c,r.c),o.rd=D(t,e.rd,r.rd)):e.f&&(o.f=C(t,e.f,r.f),o.to=C(t,e.to,r.to)),o}}if("c"===e.t&&"g"===r.t||"c"===r.t&&"g"===e.t){var u="c"===e.t?e:r,a="g"===e.t?n({},e):n({},r),l=a.s.map((function(t){return{c:u.v,o:t.o}}));return a.s="c"===e.t?Jt(t,l,a.s):Jt(t,a.s,l),a}}return q(t,e,r)}function Jt(t,n,e){if(n.length===e.length)return n.map((function(n,r){return Zt(t,n,e[r])}));for(var r=Math.max(n.length,e.length),i=[],o=0;o<r;o++){var u=Zt(t,n[Math.min(o,n.length-1)],e[Math.min(o,e.length-1)]);i.push(u)}return i}function Zt(t,n,e){return{o:L(t,n.o,e.o||0),c:G(t,n.c,e.c||{})}}function Kt(t){return t.replace(/-fill-([0-9]+)$/,(function(t,n){return"-fill-"+(+n+1)}))}var Wt={fill:Qt,"fill-opacity":Yt,stroke:Qt,"stroke-opacity":Yt,"stroke-width":zt,"stroke-dashoffset":{f:yt,i:B},"stroke-dasharray":{f:function(t){var n=arguments.length>1&&void 0!==arguments[1]?arguments[1]:" ";return t&&t.length>0&&(t=t.map((function(t){return p(t,4)}))),gt(t,n)},i:function(t,n,e){var r,i,o,u=n.length,a=e.length;if(u!==a)if(0===u)n=z(u=a,0);else if(0===a)a=u,e=z(u,0);else{var l=(o=(r=u)*(i=a)/function(t,n){for(var e;n;)e=n,n=t%n,t=e;return t||1}(r,i))<0?-o:o;n=Y(n,Math.floor(l/u)),e=Y(e,Math.floor(l/a)),u=a=l}for(var s=[],f=0;f<u;f++)s.push(p(D(t,n[f],e[f])));return s}},opacity:Yt,transform:function(t,n,r,i){if(!(t=function(t,n){if(!t||"object"!==e(t))return null;var r=!1;for(var i in t)t.hasOwnProperty(i)&&(t[i]&&t[i].length?(t[i].forEach((function(t){t.e&&(t.e=n(t.e))})),r=!0):delete t[i]);return r?t:null}(t,i)))return null;var o=function(e,i,o){var u=arguments.length>3&&void 0!==arguments[3]?arguments[3]:null;return t[e]?r(i,t[e],o):n&&n[e]?n[e]:u};return n&&n.a&&t.o?function(n){var e=r(n,t.o,Dt);return Gt.recomposeSelf(e,o("r",n,B,0)+e.a,o("k",n,C),o("s",n,C),o("t",n,C)).toString()}:function(t){return Gt.recomposeSelf(o("o",t,Bt,null),o("r",t,B,0),o("k",t,C),o("s",t,C),o("t",t,C)).toString()}},r:zt,"#size":bt,"#radius":mt,_:function(t,n){if(Array.isArray(t))for(var e=0;e<t.length;e++)this[t[e]]=n;else this[t]=n}},Xt=function(t){!function(t,n){if("function"!=typeof n&&null!==n)throw new TypeError("Super expression must either be null or a function");t.prototype=Object.create(n&&n.prototype,{constructor:{value:t,writable:!0,configurable:!0}}),n&&l(t,n)}(u,t);var n,e,i=(n=u,e=s(),function(){var t,r=a(n);if(e){var i=a(this).constructor;t=Reflect.construct(r,arguments,i)}else t=r.apply(this,arguments);return c(this,t)});function u(){return r(this,u),i.apply(this,arguments)}return o(u,null,[{key:"build",value:function(t){var n=h(a(u),"build",this).call(this,t,Wt);if(!n)return null;n.el,n.options,function(t,n,e){t.play()}(n.player)}}]),u}(vt);return Xt.init(),Xt}));
(function(s,i,o,w,d,a,b){w[o]=w[o]||{};w[o][s]=w[o][s]||[];w[o][s].push(i);})('5c7f360c',{"root":"eDAtIflvsio1","version":"2022-05-04","animations":[{"elements":{"eDAtIflvsio4":{"transform":{"data":{"t":{"x":-19038.200195,"y":-11386.885254}},"keys":{"o":[{"t":0,"v":{"x":19038.199984,"y":26526.115254,"type":"cusp"}},{"t":500,"v":{"x":19038.2,"y":11386.885,"type":"cusp"}}]}}},"eDAtIflvsio5":{"transform":{"data":{"t":{"x":-11919.689941,"y":-22683.949219}},"keys":{"o":[{"t":80,"v":{"x":18498.906474,"y":22684.026008,"type":"cusp"}},{"t":570,"v":{"x":11919.73105,"y":22684.026008,"type":"cusp"}}]}}},"eDAtIflvsio13":{"transform":{"data":{"t":{"x":-11823.189941,"y":-23913.25}},"keys":{"o":[{"t":570,"v":{"x":23047.510253,"y":23539.500391,"type":"cusp"}},{"t":740,"v":{"x":16258.711358,"y":23907.5,"type":"cusp"}},{"t":1000,"v":{"x":11820.400001,"y":23907.5,"type":"cusp"}}]}}},"eDAtIflvsio25":{"transform":{"data":{"t":{"x":-16460.699707,"y":-7438.335205}},"keys":{"o":[{"t":500,"v":{"x":25460.700392,"y":7438.334512,"type":"cusp"}},{"t":1000,"v":{"x":16384.00026,"y":7707.36,"type":"cusp"}},{"t":1170,"v":{"x":16460.652134,"y":7438.334717,"type":"cusp"}}]}}},"eDAtIflvsio26":{"transform":{"data":{"t":{"x":-13352.949707,"y":-6602.750488}},"keys":{"o":[{"t":500,"v":{"x":23959.519348,"y":6602.75,"type":"cusp"}},{"t":1000,"v":{"x":13352.95,"y":6602.75,"type":"cusp"}}]}}},"eDAtIflvsio27":{"transform":{"data":{"t":{"x":-11374.600098,"y":-5327.915283}},"keys":{"o":[{"t":110,"v":{"x":11407.043885,"y":-3319.570859,"type":"cusp"}},{"t":500,"v":{"x":11407.043885,"y":-2219.570859,"type":"cusp"}},{"t":600,"v":{"x":11327.741207,"y":-2870.311233,"type":"corner"}},{"t":1000,"v":{"x":11379.705547,"y":5327.937374,"type":"cusp"}},{"t":1170,"v":{"x":11374.278989,"y":5327.937374,"type":"cusp"}}]}}},"eDAtIflvsio28":{"transform":{"data":{"t":{"x":-11293,"y":-9227.630127}},"keys":{"o":[{"t":500,"v":{"x":8437.590736,"y":15539.9,"type":"cusp"}},{"t":1000,"v":{"x":11292.999264,"y":9227.63,"type":"cusp"}},{"t":1170,"v":{"x":11306.051886,"y":9227.63,"type":"cusp"}}]}}},"eDAtIflvsio29":{"transform":{"data":{"t":{"x":-22998.849609,"y":-15230.75}},"keys":{"o":[{"t":0,"v":{"x":20152.299789,"y":15237.1,"type":"cusp"}},{"t":140,"v":{"x":22998.850001,"y":15237.1,"type":"cusp"}}]}}},"eDAtIflvsio32":{"transform":{"data":{"t":{"x":-20264.200195,"y":-23796.015625}},"keys":{"o":[{"t":0,"v":{"x":26926.700037,"y":42142.21268,"type":"cusp"}},{"t":360,"v":{"x":20264.2,"y":23796.10061,"type":"cusp"}}]}}},"eDAtIflvsio35":{"transform":{"data":{"t":{"x":-6740.050293,"y":-22675.799805}},"keys":{"o":[{"t":0,"v":{"x":11104.770912,"y":22675.87757,"type":"cusp"}},{"t":500,"v":{"x":6740.036771,"y":22675.87757,"type":"cusp"}}]}}}},"s":"MPDA1ZGE0NGI4ZDllOWJI4YTlkOTI5ODk3NGIP2MzVjNTk1OTU5NTU0GYjhkOTI5YlM4ZThjOPWQ5Mjk4OTc0YjYzNWVE1NTRiOTI5ZFY4ZTlAiOGE5ZDkyOTg5NzljMNGI2M0w1YTU1NGI4ZEjkyOTU5NTRiNjM1YTTU1NGI4YTk1OWQ4ZTlFiOTc4YTlkOGU0YjYzBOGY4YTk1OWNIOGU1NFTRiOWNBOTlFOGU4ZTEhkNGI2MzVhNTU0YjhDmOTlNOWM0YjYzNWE1EOTU5YTY/"}],"options":"MFDAxMDg4MmY4MDgxNmTU3ZjgxMmZNNDcyZjcI5N2NWNmU3MUYyZjhhA"},'__SVGATOR_PLAYER__',window,document)
]]></script>
</svg>
