<svg width="31" height="31" viewBox="0 0 31 31" fill="none" xmlns="http://www.w3.org/2000/svg">
<path fill-rule="evenodd" clip-rule="evenodd" d="M26.4842 4.50535C23.5679 1.60224 19.6929 0 15.5656 0C7.05876 0 0.131186 6.89112 0.131186 15.3594C0.126139 18.0666 0.837566 20.7085 2.18978 23.039L0 31L8.18392 28.8603C10.4342 30.0859 12.9772 30.7288 15.5605 30.7338H15.5656C24.0724 30.7338 30.995 23.8427 31 15.3694C31 11.2659 29.3955 7.40846 26.4842 4.50535ZM15.5656 28.1371H15.5605C13.2598 28.1371 10.9994 27.5193 9.03158 26.359L8.56234 26.0828L3.70345 27.3485L5.00016 22.6372L4.69743 22.1551C3.41081 20.1209 2.7347 17.7703 2.7347 15.3594C2.7347 8.32259 8.4917 2.59673 15.5706 2.59673C18.9966 2.59673 22.2157 3.92774 24.6375 6.33863C27.0594 8.75454 28.3914 11.959 28.3914 15.3694C28.3914 22.4112 22.6344 28.1371 15.5656 28.1371ZM22.5991 18.5739C22.2157 18.383 20.3185 17.4538 19.9653 17.3283C19.6121 17.1977 19.3548 17.1374 19.0975 17.5191C18.8402 17.9059 18.1035 18.7698 17.8765 19.0259C17.6545 19.2771 17.4274 19.3122 17.0439 19.1214C16.6554 18.9305 15.4142 18.5237 13.9409 17.2127C12.7956 16.1982 12.0186 14.9375 11.7966 14.5557C11.5695 14.169 11.7713 13.9631 11.9631 13.7722C12.1396 13.6014 12.3516 13.3252 12.5433 13.0992C12.735 12.8782 12.8006 12.7174 12.9318 12.4613C13.0579 12.2051 12.9924 11.9791 12.8965 11.7882C12.8006 11.5974 12.0286 9.70382 11.7057 8.93535C11.3929 8.18697 11.075 8.29245 10.8379 8.27738C10.6159 8.26734 10.3586 8.26734 10.1012 8.26734C9.84391 8.26734 9.42513 8.36277 9.07194 8.74952C8.71875 9.13124 7.72477 10.0604 7.72477 11.949C7.72477 13.8375 9.10726 15.6657 9.29899 15.9219C9.49072 16.173 12.0186 20.0506 15.8885 21.7131C16.8068 22.1099 17.5233 22.3459 18.0833 22.5217C19.0067 22.813 19.8493 22.7728 20.5153 22.6774C21.257 22.5669 22.7959 21.7482 23.1188 20.8492C23.4367 19.9551 23.4367 19.1866 23.3408 19.0259C23.245 18.8652 22.9876 18.7698 22.5991 18.5739Z" fill="#34495E"/>
</svg>
