<svg width="33" height="33" viewBox="0 0 33 33" fill="none" xmlns="http://www.w3.org/2000/svg">
<path d="M14.9932 19.6472H11.4315V17.3636H14.9932H15.0932V17.2636V13.9654C15.0932 11.9489 15.5763 10.6406 16.3575 9.82676C17.1379 9.01371 18.2977 8.59502 19.9374 8.59502C21.1428 8.59502 21.6729 8.66174 22.1283 8.71904C22.1413 8.72068 22.1542 8.72231 22.1671 8.72393V10.5685H20.5429C19.5257 10.5685 18.6914 11.1372 18.2585 11.8938C17.8296 12.6436 17.699 13.533 17.699 14.4271V17.2622V17.3622H17.799H21.9963L21.6433 19.6458H17.799H17.699V19.7458V32V32.1145L17.8125 32.0991L18.612 31.9902C26.2247 30.9561 32.1 24.4275 32.1 16.5248C32.1 7.90396 25.1075 0.9 16.5 0.9C7.89254 0.9 0.9 7.90396 0.9 16.5248C0.9 24.351 6.6632 30.8275 14.1692 31.9569L14.9782 32.0796L15.0932 32.097V31.9807V19.7472V19.6472H14.9932ZM23.756 15.7508H19.3081V14.4271C19.3081 13.7031 19.441 13.0671 19.6541 12.6946C19.7636 12.5031 19.8642 12.3788 19.9923 12.2998C20.1197 12.2212 20.2865 12.1799 20.5429 12.1799H23.6762H23.7762V12.0799V7.35795V7.27057L23.6896 7.25885L23.0786 7.17616L23.0786 7.17616L23.0606 7.17371C22.6263 7.1148 21.6596 6.98367 19.9374 6.98367C18.0159 6.98367 16.351 7.50813 15.1977 8.7097C14.045 9.91056 13.4841 11.6902 13.4841 13.9654V15.7522H9.92241H9.82241V15.8522V21.1585V21.2585H9.92241H13.4841V30.1408C7.21672 28.7535 2.50909 23.2247 2.50909 16.5248C2.50909 8.77686 8.76482 2.51135 16.5 2.51135C24.2352 2.51135 30.4909 8.77686 30.4909 16.5248C30.4909 23.2993 25.6798 28.879 19.3081 30.1868V21.2572H22.9372H23.023L23.0361 21.1724L23.8548 15.8661L23.8726 15.7508H23.756Z" fill="#34495E" stroke="#34495E" stroke-width="0.2"/>
</svg>
