<svg width="51" height="65" viewBox="0 0 51 65" fill="none" xmlns="http://www.w3.org/2000/svg">
<path d="M50.5556 26.118C50.5556 49.0438 31.0861 61.9026 26.3198 64.7147C25.6729 65.0951 24.8798 65.0951 24.233 64.7147C19.4667 61.8997 0 49.038 0 26.118C0 11.6934 11.3172 0 25.2778 0C39.2383 0 50.5556 11.6934 50.5556 26.118Z" fill="#C72F31"/>
<rect x="3.61128" y="5.41675" width="43.3333" height="43.3333" rx="21.6667" fill="white"/>
<path d="M26.9194 31.4419L26.415 32.1829L26.0467 31.0922C26.3106 30.9388 26.5987 30.8096 26.9138 30.7078L26.9194 31.4419Z" fill="url(#paint0_linear_61_266)"/>
<path d="M30.2613 30.0301V13.1309L27.3319 10.8767L27.3146 30.0734L30.2613 30.0301Z" fill="#202D3B"/>
<path d="M27.3319 10.8767L23.4267 13.9556L23.4579 19.6301L27.3319 10.8767Z" fill="#202D3B"/>
<path d="M19.7854 8.66675L22.9119 10.1414L22.9813 19.6301H19.5579" fill="#202D3B"/>
<path d="M17.5213 16.2583L19.7854 8.66675L17.5213 10.4694V16.2583Z" fill="#202D3B"/>
<path d="M17.5213 16.2583L19.5696 15.6092L17.5213 19.6301V16.2583Z" fill="#202D3B"/>
<path d="M30.77 21.0432L35.2879 24.7001V25.1087H37.2813L30.77 21.0432Z" fill="#202D3B"/>
<path d="M30.7813 21.0601V30.0734H35.2879V24.7001L30.7813 21.0601Z" fill="#202D3B"/>
<path d="M37.137 36.0292L37.182 41.8575L36.6772 42.5989L36.1286 40.9735C35.5908 41.6833 34.8901 42.244 34.0248 42.6548C33.0723 43.1072 32.002 43.3334 30.8142 43.3334C29.402 43.3334 28.1444 43.0374 27.0412 42.4451C25.9383 41.8527 25.0773 41.0303 24.4589 39.9777C23.8401 38.9247 23.5312 37.7265 23.5312 36.3832C23.5312 35.0398 23.8388 33.7992 24.4546 32.7267C24.8065 32.1144 25.2654 31.597 25.8573 31.2092L26.3491 32.6647L27.1369 31.5077L27.13 30.6437C27.2262 30.6168 27.325 30.5925 27.4264 30.5713C29.0055 30.2342 37.2873 30.6385 37.2873 30.6385L35.5328 32.4914C35.5328 32.4914 30.4792 32.5252 28.9002 32.6262C27.8554 32.6933 27.0464 33.2818 26.6546 34.0414C26.2633 34.8011 26.1667 35.4181 26.1667 36.3832C26.1667 37.3482 26.3639 38.1681 26.7578 38.9082C27.1521 39.6483 27.7024 40.2273 28.4083 40.6437C29.1147 41.0606 29.9163 41.269 30.8142 41.269C31.6133 41.269 32.3239 41.1165 32.9449 40.8123C33.5663 40.5081 34.0438 40.0843 34.3779 39.5417C34.7116 38.9988 34.8823 38.5732 34.8659 37.8821L36.5957 37.9068L28.9084 36.5006L30.0182 36.0292H37.137Z" fill="url(#paint1_linear_61_266)"/>
<path d="M26.8743 25.6135H19.756L18.6458 26.085L26.3422 27.4604L26.3335 27.4907L24.6037 27.466C24.6197 28.1572 24.4494 28.5827 24.1157 29.1257C23.7816 29.6687 23.3041 30.0921 22.6827 30.3962C22.0613 30.7009 21.3511 30.853 20.552 30.853C19.6541 30.853 18.8525 30.6446 18.1461 30.2277C17.4398 29.8112 16.8899 29.2327 16.4956 28.4922C16.1017 27.752 15.9045 26.9105 15.9045 25.9671C15.9045 25.0238 16.0011 24.385 16.3924 23.6254C16.7837 22.8662 17.5932 22.2773 18.638 22.2106C20.217 22.1092 25.2701 22.0758 25.2701 22.0758L25.4708 21.8639L27.3146 20.0201H21.4646L21.4954 20.0365C19.6121 20.0036 17.8164 20.0162 17.1638 20.1553C15.7511 20.4569 14.8082 21.239 14.1924 22.3111C13.5766 23.3832 13.2685 24.6017 13.2685 25.9671C13.2685 27.3326 13.5779 28.5086 14.1967 29.5616C14.8151 30.6146 15.6757 31.4371 16.779 32.029C17.8818 32.6214 19.1398 32.9174 20.552 32.9174C21.7398 32.9174 22.8101 32.6912 23.7626 32.2388C24.6275 31.828 25.3286 31.2672 25.8664 30.5579L26.415 32.1829L26.9194 31.4419L26.8743 25.6135Z" fill="url(#paint2_linear_61_266)"/>
<path d="M16.5389 36.6115H17.0615V36.706H16.662V37.044H17.0225V37.1389H16.662V37.4864H16.5389V36.6115Z" fill="#202D3B"/>
<path d="M17.0056 37.4869L17.4246 36.5786H17.4472L17.4844 36.696L17.136 37.4869H17.0056ZM17.6673 37.2251L17.6994 37.3135H17.162L17.1993 37.2256H17.6673V37.2251ZM17.3921 36.696L17.4272 36.5786H17.4498L17.861 37.4869H17.7332L17.3926 36.696H17.3921Z" fill="#202D3B"/>
<path d="M17.916 36.8139C17.9555 36.745 18.0105 36.6917 18.0807 36.6531C18.1509 36.6146 18.2302 36.5955 18.319 36.5955C18.3632 36.5955 18.407 36.602 18.4503 36.6154C18.4937 36.6284 18.5327 36.6471 18.5673 36.6705C18.602 36.6939 18.6293 36.7207 18.6488 36.7506L18.5825 36.8152C18.5678 36.7909 18.5465 36.7697 18.5188 36.7506C18.4911 36.732 18.4599 36.7173 18.4252 36.7064C18.3905 36.6956 18.355 36.6904 18.319 36.6904C18.254 36.6904 18.196 36.7056 18.1444 36.7359C18.0928 36.7662 18.053 36.8087 18.0235 36.8629C17.9945 36.917 17.9793 36.979 17.9789 37.0483H17.8558C17.8567 36.9608 17.8766 36.8828 17.9165 36.8139H17.916ZM18.0235 37.2342C18.0525 37.2888 18.0928 37.3313 18.1444 37.3616C18.196 37.392 18.254 37.4071 18.319 37.4071C18.3554 37.4071 18.3914 37.4015 18.4269 37.3907C18.4625 37.3798 18.4945 37.3642 18.5236 37.3443C18.5526 37.3244 18.5751 37.3018 18.5916 37.2767L18.6566 37.3469C18.6354 37.3768 18.6068 37.4032 18.5704 37.4271C18.5344 37.4505 18.4941 37.4687 18.4503 37.4821C18.4066 37.4951 18.3628 37.502 18.319 37.502C18.2302 37.502 18.1509 37.4825 18.0807 37.4444C18.0105 37.4058 17.9559 37.3521 17.916 37.2836C17.8762 37.2152 17.8562 37.1367 17.8554 37.0492H17.9784C17.9793 37.1185 17.994 37.1805 18.0231 37.2351L18.0235 37.2342Z" fill="#202D3B"/>
<path d="M18.7498 36.6107H18.8728V37.4869H18.7498V36.6107Z" fill="#202D3B"/>
<path d="M19.1133 36.6107V37.4869H18.9903V36.6107H19.1133ZM19.4955 37.392V37.4869H19.0167V37.392H19.4955Z" fill="#202D3B"/>
<path d="M19.5731 36.6107H19.6962V37.4869H19.5731V36.6107Z" fill="#202D3B"/>
<path d="M20.4506 36.6102V36.7051H19.7707V36.6102H20.4506ZM20.1728 36.6107V37.4869H20.0493V36.6107H20.1728Z" fill="#202D3B"/>
<path d="M20.5251 36.6107H20.6482V37.4869H20.5251V36.6107Z" fill="#202D3B"/>
<path d="M20.7656 37.4869V36.6115H21.2744V36.7064H20.8887V37.4869H20.7656ZM21.2869 37.392V37.4869H20.8493V37.392H21.2869ZM21.2458 37.0544V37.1493H20.8575V37.0544H21.2458Z" fill="#202D3B"/>
<path d="M21.4997 37.4721C21.4447 37.4535 21.3944 37.4271 21.3489 37.3928L21.3844 37.304C21.4273 37.3352 21.4715 37.3595 21.5166 37.3764C21.5617 37.3933 21.6041 37.4015 21.6449 37.4015C21.7051 37.4015 21.7515 37.3889 21.7844 37.3638C21.8173 37.3387 21.8342 37.3036 21.8347 37.2581C21.8347 37.2195 21.8182 37.1835 21.7853 37.151C21.7523 37.1185 21.7055 37.0917 21.6444 37.0704C21.5625 37.0423 21.4997 37.0063 21.4555 36.9617C21.4113 36.917 21.3892 36.8676 21.3892 36.813C21.3892 36.7671 21.4 36.7281 21.4213 36.6956C21.4425 36.6631 21.4737 36.6388 21.5149 36.6215C21.556 36.6046 21.6059 36.5964 21.6644 36.5964C21.7073 36.5964 21.7502 36.6024 21.7931 36.6146C21.8355 36.6267 21.875 36.644 21.9114 36.6661L21.8758 36.7515C21.8472 36.7324 21.8156 36.7177 21.7814 36.7073C21.7471 36.6969 21.7129 36.6917 21.6778 36.6917C21.6245 36.6917 21.5833 36.7025 21.5543 36.7242C21.5253 36.7459 21.511 36.7766 21.511 36.8165C21.511 36.8507 21.5274 36.8824 21.5599 36.9123C21.5924 36.9417 21.6388 36.9669 21.699 36.9877C21.7809 37.015 21.8438 37.0531 21.888 37.1012C21.9322 37.1497 21.9543 37.2052 21.9543 37.2676C21.9543 37.317 21.943 37.359 21.9209 37.3937C21.8988 37.4284 21.8663 37.4548 21.8234 37.473C21.7805 37.4912 21.7285 37.5003 21.6674 37.5003C21.6111 37.5003 21.5552 37.4912 21.5001 37.4726L21.4997 37.4721Z" fill="#202D3B"/>
<path d="M11.1313 35.803C11.0832 35.881 11.0178 35.9416 10.9342 35.985C10.8505 36.0283 10.7565 36.05 10.6512 36.05C10.5294 36.0495 10.4211 36.0222 10.3253 35.9676C10.2296 35.9135 10.155 35.8381 10.1017 35.7414C10.0484 35.6448 10.0216 35.5352 10.0216 35.4125C10.0216 35.2899 10.048 35.1729 10.1004 35.0737C10.1529 34.9744 10.2261 34.8964 10.3201 34.841C10.4142 34.7855 10.5208 34.7578 10.6404 34.7578C10.737 34.7578 10.8258 34.7773 10.9064 34.8163C10.987 34.8553 11.052 34.9099 11.1027 34.9792C11.153 35.049 11.1833 35.1278 11.1937 35.2162L11.0447 35.2431C11.0382 35.1759 11.0169 35.1161 10.9805 35.0637C10.9441 35.0113 10.896 34.9701 10.8371 34.9411C10.7782 34.912 10.7127 34.8973 10.6408 34.8973C10.5537 34.8973 10.4757 34.919 10.4072 34.9627C10.3388 35.0065 10.2855 35.0672 10.2469 35.1456C10.2083 35.224 10.1897 35.3129 10.1897 35.413C10.1897 35.5131 10.2092 35.5954 10.2486 35.6708C10.2876 35.7462 10.3427 35.8051 10.4124 35.8472C10.4822 35.8892 10.5624 35.9104 10.6516 35.9104C10.7318 35.9104 10.8033 35.894 10.8657 35.8606C10.9281 35.8272 10.9758 35.7809 11.0096 35.7215C11.0434 35.6621 11.0594 35.5941 11.0577 35.5183L11.2072 35.5373C11.2046 35.637 11.1794 35.7254 11.1318 35.8034L11.1313 35.803ZM10.7028 35.536V35.4043H11.2041L11.2054 35.4576L11.2067 35.5369L10.7028 35.536Z" fill="#C4090B"/>
<path d="M11.5014 35.9889C11.436 35.9529 11.3848 35.9031 11.3484 35.8389C11.312 35.7748 11.2934 35.7016 11.2934 35.6201C11.2934 35.5386 11.3116 35.4663 11.3484 35.4017C11.3853 35.3376 11.4364 35.2873 11.5018 35.2518C11.5673 35.2158 11.6414 35.198 11.7241 35.198C11.8069 35.198 11.881 35.2158 11.9464 35.2518C12.0119 35.2877 12.0626 35.3376 12.0994 35.4017C12.1362 35.4658 12.1544 35.5386 12.1544 35.6201C12.1544 35.7016 12.1362 35.7748 12.0994 35.8389C12.0626 35.9031 12.0119 35.9533 11.9464 35.9889C11.881 36.0248 11.8069 36.0426 11.7241 36.0426C11.6414 36.0426 11.5664 36.0248 11.501 35.9889H11.5014ZM11.8606 35.8736C11.9005 35.8489 11.9317 35.8142 11.9538 35.7705C11.9759 35.7267 11.9872 35.6764 11.9872 35.621C11.9872 35.5655 11.9759 35.5152 11.9534 35.4715C11.9308 35.4277 11.8996 35.3935 11.8598 35.3688C11.8199 35.3441 11.774 35.3315 11.7228 35.3315C11.6717 35.3315 11.6258 35.3436 11.5855 35.3683C11.5452 35.393 11.514 35.4273 11.4914 35.471C11.4689 35.5148 11.4576 35.5651 11.4576 35.6205C11.4576 35.676 11.4689 35.7271 11.4919 35.7709C11.5144 35.8147 11.546 35.8489 11.5863 35.8736C11.6266 35.8983 11.6721 35.9104 11.7237 35.9104C11.7753 35.9104 11.8208 35.8979 11.8606 35.8732V35.8736Z" fill="#C4090B"/>
<path d="M12.2671 35.2132H12.4313V36.0283H12.2671V35.2132ZM12.4452 35.309C12.4699 35.2726 12.4998 35.2448 12.5349 35.2258C12.57 35.2071 12.6077 35.1976 12.6484 35.1976C12.7039 35.1976 12.7533 35.2106 12.7953 35.237C12.8378 35.263 12.8703 35.3003 12.8937 35.3484C12.9171 35.3965 12.9284 35.452 12.9284 35.5157L12.7641 35.5174C12.7641 35.4797 12.7572 35.4468 12.7433 35.4182C12.7295 35.3896 12.7104 35.3675 12.6857 35.3514C12.661 35.3354 12.6328 35.328 12.6008 35.328C12.5687 35.328 12.5418 35.3358 12.5167 35.3514C12.4916 35.367 12.4716 35.3891 12.4569 35.4173C12.4417 35.4455 12.4331 35.478 12.4309 35.5144L12.3932 35.442C12.4027 35.39 12.4201 35.3462 12.4448 35.3094L12.4452 35.309ZM12.765 35.5139H12.9292V36.0274H12.765V35.5139ZM12.9236 35.3103C12.9492 35.2739 12.9804 35.2461 13.0176 35.2271C13.0549 35.208 13.0956 35.1985 13.1398 35.1985C13.197 35.1985 13.2469 35.2115 13.2893 35.2379C13.3318 35.2643 13.3647 35.3016 13.3881 35.3497C13.4115 35.3978 13.4228 35.4541 13.4228 35.5187L13.2586 35.5204C13.2586 35.4819 13.2521 35.4481 13.2391 35.4186C13.2261 35.3891 13.2074 35.3666 13.1836 35.351C13.1598 35.3354 13.132 35.3272 13.1004 35.3272C13.0688 35.3272 13.0397 35.335 13.0146 35.3501C12.9895 35.3653 12.9695 35.387 12.9544 35.4147C12.9392 35.4424 12.9305 35.4745 12.9284 35.5105L12.8716 35.4398C12.8807 35.3896 12.898 35.3462 12.9236 35.3098V35.3103ZM13.259 35.5187H13.4232V36.0283H13.259V35.5187Z" fill="#C4090B"/>
<path d="M13.724 35.9949C13.6581 35.9598 13.607 35.9096 13.571 35.8454C13.535 35.7813 13.5168 35.7063 13.5168 35.6223C13.5168 35.5382 13.5337 35.4637 13.5671 35.4C13.6005 35.3358 13.6473 35.2864 13.7079 35.2513C13.7686 35.2162 13.8384 35.1989 13.9172 35.1989C13.9961 35.1989 14.0659 35.2145 14.127 35.2457C14.1881 35.2769 14.2357 35.3211 14.2704 35.3779C14.3051 35.4346 14.3237 35.5001 14.3263 35.5737C14.3267 35.5807 14.3263 35.5911 14.3263 35.6036C14.3254 35.6166 14.325 35.6257 14.325 35.6314L14.3241 35.6704H13.6811C13.6819 35.7189 13.6936 35.7622 13.7162 35.8004C13.7387 35.8385 13.7699 35.8675 13.8093 35.8883C13.8492 35.9091 13.8943 35.9195 13.9445 35.9195C13.9909 35.9195 14.0355 35.9104 14.078 35.8922C14.1205 35.874 14.1525 35.8502 14.1742 35.8207L14.289 35.8983C14.2544 35.9434 14.2058 35.9798 14.1443 36.0071C14.0828 36.0344 14.0186 36.0482 13.9519 36.0482C13.8657 36.0482 13.7898 36.0305 13.724 35.9954V35.9949ZM14.1278 35.4312C14.1083 35.3991 14.081 35.374 14.0459 35.3558C14.0108 35.3376 13.9701 35.3289 13.9242 35.3289C13.8782 35.3289 13.8353 35.338 13.7981 35.3558C13.7612 35.374 13.7322 35.3991 13.7114 35.4316C13.6906 35.4641 13.6798 35.5014 13.6793 35.543H14.1573C14.1569 35.5009 14.1469 35.4637 14.1274 35.4312H14.1278Z" fill="#C4090B"/>
<path d="M14.5733 36.0175C14.5148 36.0006 14.4615 35.978 14.413 35.949L14.4632 35.8272C14.5109 35.8545 14.5564 35.8753 14.601 35.8892C14.6457 35.9031 14.6847 35.91 14.7189 35.91C14.7687 35.91 14.8069 35.9009 14.8333 35.8831C14.8597 35.8654 14.8727 35.8385 14.8727 35.803C14.8723 35.7696 14.8584 35.741 14.8311 35.7172C14.8038 35.6938 14.757 35.6725 14.6912 35.6535C14.6036 35.6288 14.5386 35.5954 14.4966 35.5542C14.4546 35.5126 14.4333 35.4654 14.4333 35.4112C14.4333 35.3644 14.445 35.3254 14.4684 35.2934C14.4918 35.2617 14.5239 35.2379 14.5651 35.2219C14.6058 35.2058 14.6522 35.198 14.7042 35.198C14.809 35.198 14.9026 35.2227 14.9845 35.2726L14.9555 35.3961C14.9226 35.3744 14.884 35.3571 14.8398 35.3445C14.7956 35.3319 14.7549 35.3259 14.7176 35.3259C14.6309 35.3259 14.5876 35.3558 14.5876 35.4156C14.5876 35.4424 14.6045 35.4663 14.6387 35.4862C14.673 35.5066 14.725 35.5278 14.7947 35.5503C14.874 35.5759 14.933 35.6093 14.9707 35.6513C15.0084 35.6933 15.0274 35.7449 15.0274 35.8064C15.0274 35.884 15.0019 35.9429 14.9512 35.9828C14.9005 36.0227 14.8303 36.0422 14.7406 36.0417C14.6877 36.0417 14.6322 36.0335 14.5737 36.0166L14.5733 36.0175Z" fill="#C4090B"/>
<path d="M15.5695 36.017C15.5271 35.9962 15.4946 35.9655 15.472 35.9252C15.4495 35.8849 15.4382 35.8372 15.4382 35.7822C15.4382 35.7696 15.4382 35.7596 15.4391 35.7531C15.4426 35.7033 15.4586 35.6582 15.4876 35.6175C15.5167 35.5768 15.5552 35.5382 15.6038 35.5014C15.6523 35.4645 15.7229 35.416 15.8161 35.3562C15.8668 35.3237 15.9084 35.2947 15.9405 35.2691C15.9725 35.2435 15.9977 35.2167 16.0159 35.1889C16.0341 35.1612 16.044 35.1313 16.0449 35.0997C16.0453 35.065 16.0371 35.0329 16.0193 35.0035C16.0016 34.974 15.9782 34.9502 15.9487 34.9328C15.9192 34.9155 15.8872 34.9064 15.8538 34.9064C15.8222 34.9064 15.7927 34.9151 15.7645 34.9328C15.7364 34.9506 15.7138 34.974 15.6974 35.0035C15.6805 35.0334 15.6722 35.0654 15.6722 35.0997C15.6722 35.1339 15.6787 35.1634 15.6913 35.1902C15.7043 35.2171 15.7203 35.2409 15.7398 35.2622C15.7593 35.2834 15.7858 35.309 15.8196 35.3389C15.8274 35.3458 15.8352 35.3532 15.8434 35.361C15.8516 35.3688 15.8603 35.3766 15.869 35.3844L15.7775 35.471C15.7234 35.4303 15.6779 35.3913 15.6415 35.354C15.6051 35.3168 15.576 35.2769 15.5548 35.234C15.5336 35.1915 15.5227 35.1456 15.5227 35.0962C15.5227 35.036 15.5375 34.9814 15.5669 34.9324C15.5964 34.8834 15.6367 34.8453 15.6878 34.8176C15.739 34.7898 15.7957 34.776 15.8581 34.776C15.9205 34.776 15.976 34.7898 16.0276 34.8171C16.0791 34.8444 16.1194 34.8826 16.1493 34.9315C16.1792 34.9801 16.194 35.0347 16.194 35.0953C16.194 35.1482 16.1814 35.1959 16.1558 35.2383C16.1303 35.2808 16.0978 35.3185 16.0579 35.3514C16.018 35.3844 15.9678 35.4203 15.9071 35.4589L15.8542 35.4949C15.7884 35.5391 15.7385 35.5737 15.7052 35.5993C15.6714 35.6249 15.6441 35.6504 15.6224 35.6764C15.6007 35.7024 15.5882 35.7297 15.5851 35.7575C15.5843 35.7687 15.5838 35.7765 15.5838 35.7809C15.5838 35.8164 15.5934 35.8454 15.6129 35.8675C15.6324 35.8896 15.6592 35.9005 15.6943 35.9005C15.7039 35.9005 15.716 35.8992 15.7307 35.8966C15.7788 35.8875 15.8352 35.8576 15.9006 35.8069C15.966 35.7562 16.0323 35.6933 16.0991 35.6188C16.1658 35.5443 16.2265 35.4676 16.2798 35.3896L16.3617 35.5001C16.2971 35.5919 16.2282 35.6782 16.155 35.7583C16.0817 35.8385 16.0068 35.9052 15.9305 35.9581C15.8542 36.011 15.7836 36.0396 15.7186 36.0439C15.6618 36.0465 15.6124 36.0374 15.57 36.0166L15.5695 36.017ZM16.1857 35.8411C16.1979 35.8576 16.2139 35.871 16.2338 35.8814C16.2538 35.8922 16.2772 35.897 16.304 35.8966C16.3439 35.8957 16.3799 35.8896 16.4124 35.8792V36.0192C16.3612 36.0331 16.314 36.0396 16.2707 36.0396C16.2338 36.0396 16.2009 36.0322 16.1723 36.0175C16.1433 36.0027 16.1203 35.9841 16.1021 35.9611C16.08 35.9338 16.0601 35.9039 16.0432 35.8719C16.0263 35.8398 16.0072 35.8004 15.9864 35.754L16.1004 35.6786C16.1259 35.7462 16.1545 35.8004 16.1853 35.8407L16.1857 35.8411Z" fill="#C4090B"/>
<path d="M17.8913 35.803C17.8432 35.881 17.7778 35.9416 17.6942 35.985C17.6105 36.0283 17.5165 36.05 17.4112 36.05C17.2894 36.0495 17.1811 36.0222 17.0853 35.9676C16.9896 35.9135 16.915 35.8381 16.8617 35.7414C16.8084 35.6448 16.7816 35.5352 16.7816 35.4125C16.7816 35.2899 16.808 35.1729 16.8604 35.0737C16.9129 34.9744 16.9861 34.8964 17.0801 34.841C17.1742 34.7855 17.2808 34.7578 17.4004 34.7578C17.497 34.7578 17.5858 34.7773 17.6664 34.8163C17.747 34.8553 17.812 34.9099 17.8627 34.9792C17.913 35.049 17.9433 35.1278 17.9537 35.2162L17.8047 35.2431C17.7982 35.1759 17.7769 35.1161 17.7405 35.0637C17.7041 35.0113 17.656 34.9701 17.5971 34.9411C17.5382 34.912 17.4727 34.8973 17.4008 34.8973C17.3137 34.8973 17.2357 34.919 17.1672 34.9627C17.0988 35.0065 17.0455 35.0672 17.0069 35.1456C16.9683 35.224 16.9497 35.3129 16.9497 35.413C16.9497 35.5131 16.9692 35.5954 17.0086 35.6708C17.0476 35.7462 17.1027 35.8051 17.1724 35.8472C17.2422 35.8892 17.3224 35.9104 17.4116 35.9104C17.4918 35.9104 17.5633 35.894 17.6257 35.8606C17.6881 35.8272 17.7358 35.7809 17.7696 35.7215C17.8034 35.6621 17.8192 35.6125 17.8175 35.5366L17.9672 35.5373C17.9646 35.637 17.9394 35.7254 17.8918 35.8034L17.8913 35.803ZM17.4628 35.536V35.4043H17.9641L17.9654 35.4576L17.9667 35.5369L17.4628 35.536Z" fill="#C4090B"/>
<path d="M18.7407 35.8909C18.7116 35.9395 18.6718 35.9776 18.6202 36.0049C18.5686 36.0322 18.5101 36.0456 18.4447 36.0456C18.3689 36.0456 18.3008 36.0279 18.2415 35.9928C18.1821 35.9577 18.1362 35.9083 18.1032 35.845C18.0703 35.7817 18.0538 35.7098 18.0538 35.6292C18.0538 35.5486 18.0707 35.4715 18.1045 35.4065C18.1383 35.3415 18.1851 35.2903 18.2449 35.2539C18.3047 35.2175 18.3732 35.1989 18.449 35.1989C18.5123 35.1989 18.5691 35.2123 18.6193 35.2396C18.6696 35.2669 18.7086 35.3046 18.7372 35.3536C18.7658 35.4021 18.7805 35.458 18.7814 35.5204C18.7823 35.5828 18.745 35.6179 18.745 35.6179C18.745 35.562 18.7342 35.5122 18.7121 35.4684C18.69 35.4247 18.6592 35.3904 18.6198 35.3662C18.5803 35.3419 18.5353 35.3298 18.485 35.3298C18.4347 35.3298 18.3871 35.3428 18.3463 35.3683C18.3056 35.3939 18.274 35.4294 18.251 35.4749C18.228 35.5204 18.2163 35.572 18.2163 35.6301C18.2163 35.6881 18.2276 35.7349 18.2497 35.7783C18.2718 35.8216 18.3034 35.8554 18.3437 35.8801C18.384 35.9044 18.4304 35.9165 18.482 35.9165C18.5335 35.9165 18.5782 35.9044 18.618 35.8805C18.6579 35.8563 18.6891 35.8229 18.7112 35.7796C18.7333 35.7362 18.7446 35.6873 18.7446 35.6327L18.7831 35.7254C18.7831 35.7878 18.7688 35.8433 18.7398 35.8922L18.7407 35.8909ZM18.7454 36.0279V35.2128H18.9097L18.9088 36.0279H18.7454Z" fill="#C4090B"/>
<path d="M19.047 34.7682H19.2113V36.0279H19.047V34.7682Z" fill="#C4090B"/>
<path d="M19.3018 35.2132H19.4856L19.7252 35.8004L19.9627 35.2132H20.1451L19.7464 36.0716H19.7066L19.3018 35.2132Z" fill="#C4090B"/>
<path d="M20.8246 35.8909C20.7955 35.9395 20.7557 35.9776 20.7041 36.0049C20.6525 36.0322 20.594 36.0456 20.5286 36.0456C20.4528 36.0456 20.3847 36.0279 20.3254 35.9928C20.266 35.9577 20.2201 35.9083 20.1871 35.845C20.1542 35.7817 20.1377 35.7098 20.1377 35.6292C20.1377 35.5486 20.1546 35.4715 20.1884 35.4065C20.2222 35.3415 20.269 35.2903 20.3288 35.2539C20.3886 35.2175 20.4571 35.1989 20.5329 35.1989C20.5962 35.1989 20.653 35.2123 20.7032 35.2396C20.7535 35.2669 20.7925 35.3046 20.8211 35.3536C20.8497 35.4021 20.8644 35.458 20.8653 35.5204L20.8289 35.6179C20.8289 35.562 20.8181 35.5122 20.796 35.4684C20.7739 35.4247 20.7431 35.3904 20.7037 35.3662C20.6642 35.3419 20.6192 35.3298 20.5689 35.3298C20.5186 35.3298 20.471 35.3428 20.4302 35.3683C20.3895 35.3939 20.3579 35.4294 20.3349 35.4749C20.3119 35.5204 20.3002 35.572 20.3002 35.6301C20.3002 35.6881 20.3115 35.7349 20.3336 35.7783C20.3557 35.8216 20.3873 35.8554 20.4276 35.8801C20.4679 35.9044 20.5143 35.9165 20.5659 35.9165C20.6174 35.9165 20.6621 35.9044 20.7019 35.8805C20.7418 35.8563 20.773 35.8229 20.7951 35.7796C20.8172 35.7362 20.8285 35.6873 20.8285 35.6327L20.867 35.7254C20.867 35.7878 20.8527 35.8433 20.8237 35.8922L20.8246 35.8909ZM20.5117 34.9077C20.5277 34.9077 20.5429 34.9103 20.5572 34.9155C20.5715 34.9207 20.5884 34.9281 20.6079 34.9376C20.6244 34.9458 20.6382 34.9519 20.6491 34.9554C20.6599 34.9588 20.6703 34.961 20.6807 34.961C20.7002 34.961 20.7193 34.9571 20.7383 34.9497C20.7574 34.9419 20.7752 34.9311 20.7912 34.9164V35.0451C20.7765 35.0563 20.76 35.065 20.7405 35.0719C20.7214 35.0784 20.7015 35.0819 20.6807 35.0819C20.6664 35.0819 20.6521 35.0797 20.6391 35.075C20.6257 35.0702 20.6101 35.0637 20.5923 35.0546C20.575 35.0459 20.5602 35.0394 20.5485 35.0351C20.5368 35.0308 20.5247 35.0286 20.5126 35.0286C20.4666 35.0286 20.4285 35.0399 20.3977 35.0628V34.9385C20.4302 34.9181 20.4684 34.9081 20.5126 34.9081L20.5117 34.9077ZM20.8293 36.0283V35.2132H20.9936L20.9927 36.0283H20.8293Z" fill="#C4090B"/>
<path d="M21.3138 35.9889C21.2484 35.9529 21.1972 35.9031 21.1608 35.8389C21.1244 35.7748 21.1058 35.7016 21.1058 35.6201C21.1058 35.5386 21.124 35.4663 21.1608 35.4017C21.1977 35.3376 21.2488 35.2873 21.3142 35.2518C21.3797 35.2158 21.4538 35.198 21.5365 35.198C21.6193 35.198 21.6934 35.2158 21.7588 35.2518C21.8243 35.2877 21.875 35.3376 21.9118 35.4017C21.9486 35.4658 21.9668 35.5386 21.9668 35.6201C21.9668 35.7016 21.9486 35.7748 21.9118 35.8389C21.875 35.9031 21.8243 35.9533 21.7588 35.9889C21.6934 36.0248 21.6193 36.0426 21.5365 36.0426C21.4538 36.0426 21.3788 36.0248 21.3134 35.9889H21.3138ZM21.673 35.8736C21.7129 35.8489 21.7441 35.8142 21.7662 35.7705C21.7883 35.7267 21.7996 35.6764 21.7996 35.621C21.7996 35.5655 21.7883 35.5152 21.7658 35.4715C21.7432 35.4277 21.712 35.3935 21.6722 35.3688C21.6323 35.3441 21.5864 35.3315 21.5352 35.3315C21.4841 35.3315 21.4382 35.3436 21.3979 35.3683C21.3576 35.393 21.3264 35.4273 21.3038 35.471C21.2813 35.5148 21.27 35.5651 21.27 35.6205C21.27 35.676 21.2813 35.7271 21.3043 35.7709C21.3268 35.8147 21.3584 35.8489 21.3987 35.8736C21.439 35.8983 21.4845 35.9104 21.5361 35.9104C21.5877 35.9104 21.6332 35.8979 21.673 35.8732V35.8736Z" fill="#C4090B"/>
<defs>
<linearGradient id="paint0_linear_61_266" x1="-55.9614" y1="26.0001" x2="322.603" y2="26.0001" gradientUnits="userSpaceOnUse">
<stop stop-color="#34495E"/>
<stop offset="1" stop-color="#34495E"/>
</linearGradient>
<linearGradient id="paint1_linear_61_266" x1="13.2685" y1="26.0005" x2="37.2873" y2="26.0005" gradientUnits="userSpaceOnUse">
<stop stop-color="#34495E"/>
<stop offset="1" stop-color="#34495E"/>
</linearGradient>
<linearGradient id="paint2_linear_61_266" x1="13.2685" y1="26.4689" x2="27.3146" y2="26.4689" gradientUnits="userSpaceOnUse">
<stop stop-color="#C4090B"/>
<stop offset="1" stop-color="#C4090B"/>
</linearGradient>
</defs>
</svg>
