<svg width="32768" height="32768" viewBox="0 0 32768 32768" fill="none" xmlns="http://www.w3.org/2000/svg">
<path d="M17625.3 19679.8L17243.8 20240.1L16965.3 19415.4C17164.9 19299.4 17382.8 19201.7 17621 19124.7L17625.3 19679.8Z" fill="url(#paint0_linear_29_2)"/>
<path d="M20152.3 18612.2V5833.36L17937.2 4128.77L17924.1 18645L20152.3 18612.2Z" fill="#202D3B"/>
<path d="M17937.2 4128.77L14984.2 6456.94L15007.7 10747.9L17937.2 4128.77Z" fill="#202D3B"/>
<path d="M12230.7 2457.6L14594.9 3572.7L14647.3 10747.9H12058.6" fill="#202D3B"/>
<path d="M10518.5 8198.23L12230.7 2457.6L10518.5 3820.75V8198.23Z" fill="#202D3B"/>
<path d="M10518.5 8198.23L12067.5 7707.36L10518.5 10747.9L10518.5 8198.23Z" fill="#202D3B"/>
<path d="M20537 11816.5L23953.4 14581.8V14890.8H25460.7L20537 11816.5Z" fill="#202D3B"/>
<path d="M20545.5 11829.2V18645H23953.4V14581.8L20545.5 11829.2Z" fill="#202D3B"/>
<path d="M25351.6 23148.6L25385.7 27555.9L25003.9 28116.6L24589.1 26887.5C24182.5 27424.2 23652.6 27848.2 22998.2 28158.9C22278 28501 21468.6 28672 20570.4 28672C19502.5 28672 18551.6 28448.2 17717.3 28000.3C16883.4 27552.3 16232.3 26930.4 15764.7 26134.4C15296.8 25338.2 15063.1 24432.1 15063.1 23416.3C15063.1 22400.5 15295.8 21462.4 15761.4 20651.4C16027.5 20188.4 16374.5 19797.1 16822.1 19503.8L17194 20604.5L17789.7 19729.6L17784.5 19076.2C17857.2 19055.9 17932 19037.6 18008.6 19021.5C19202.7 18766.6 25465.3 19072.3 25465.3 19072.3L24138.5 20473.4C24138.5 20473.4 20317.1 20499 19123.1 20575.4C18333 20626.1 17721.3 21071.1 17425 21645.6C17129.1 22220 17056.1 22686.6 17056.1 23416.3C17056.1 24146.1 17205.2 24766.1 17503 25325.7C17801.2 25885.4 18217.4 26323.2 18751.2 26638.1C19285.3 26953.3 19891.5 27110.9 20570.4 27110.9C21174.7 27110.9 21712.1 26995.6 22181.6 26765.6C22651.5 26535.5 23012.6 26215.1 23265.3 25804.8C23517.6 25394.2 23646.7 25072.4 23634.2 24549.8L24942.3 24568.5L19129.3 23505.1L19968.5 23148.6H25351.6Z" fill="url(#paint1_linear_29_2)"/>
<path d="M17591.2 15272.5H12208.4L11368.9 15629L17188.8 16669.1L17182.2 16692L15874.1 16673.3C15886.3 17196 15757.5 17517.8 15505.2 17928.4C15252.5 18338.9 14891.4 18659.1 14421.5 18889.1C13951.6 19119.5 13414.6 19234.5 12810.3 19234.5C12131.4 19234.5 11525.2 19076.9 10991 18761.6C10456.9 18446.7 10041.1 18009.3 9742.91 17449.3C9445.05 16889.6 9295.95 16253.3 9295.95 15539.9C9295.95 14826.5 9369.03 14343.5 9664.92 13769.1C9960.82 13195 10572.9 12749.7 11363 12699.2C12557 12622.6 16378.1 12597.3 16378.1 12597.3L16529.8 12437.1L17924.1 11042.8H13500.4L13523.7 11055.3C12099.6 11030.4 10741.7 11039.9 10248.2 11145.1C9179.96 11373.1 8466.92 11964.6 8001.29 12775.3C7535.66 13585.9 7302.68 14507.4 7302.68 15539.9C7302.68 16572.4 7536.64 17461.7 8004.57 18258C8472.17 19054.3 9122.94 19676.2 9957.21 20123.8C10791.2 20571.8 11742.4 20795.6 12810.3 20795.6C13708.5 20795.6 14517.9 20624.5 15238.1 20282.4C15892.2 19971.8 16422.3 19547.8 16829 19011.3L17243.8 20240.1L17625.3 19679.8L17591.2 15272.5Z" fill="url(#paint2_linear_29_2)"/>
<path d="M9775.68 23589H10170.9V23660.5H9868.74V23916.1H10141.4V23987.8H9868.74V24250.6H9775.68V23589Z" fill="#202D3B"/>
<path d="M10128.6 24250.9L10445.5 23564.1H10462.5L10490.7 23652.9L10227.2 24250.9H10128.6ZM10629 24053L10653.2 24119.9H10246.9L10275.1 24053.3H10629V24053ZM10420.9 23652.9L10447.4 23564.1H10464.5L10775.4 24250.9H10678.8L10421.2 23652.9H10420.9Z" fill="#202D3B"/>
<path d="M10817 23742.1C10846.9 23690 10888.5 23649.6 10941.6 23620.5C10994.6 23591.3 11054.6 23576.9 11121.8 23576.9C11155.2 23576.9 11188.3 23581.8 11221.1 23592C11253.8 23601.8 11283.3 23615.9 11309.5 23633.6C11335.8 23651.3 11356.4 23671.6 11371.2 23694.2L11321 23743C11309.9 23724.7 11293.8 23708.6 11272.8 23694.2C11251.9 23680.1 11228.3 23669 11202.1 23660.8C11175.9 23652.6 11149 23648.7 11121.8 23648.7C11072.6 23648.7 11028.7 23660.1 10989.7 23683.1C10950.7 23706 10920.6 23738.1 10898.3 23779.1C10876.4 23820 10864.9 23866.9 10864.6 23919.3H10771.5C10772.2 23853.1 10787.2 23794.2 10817.4 23742.1H10817ZM10898.3 24059.9C10920.3 24101.2 10950.7 24133.3 10989.7 24156.2C11028.7 24179.2 11072.6 24190.6 11121.8 24190.6C11149.3 24190.6 11176.5 24186.4 11203.4 24178.2C11230.2 24170 11254.5 24158.2 11276.5 24143.1C11298.4 24128.1 11315.4 24111 11327.9 24092L11377.1 24145.1C11361 24167.7 11339.4 24187.7 11311.8 24205.7C11284.6 24223.4 11254.2 24237.2 11221.1 24247.3C11188 24257.2 11154.9 24262.4 11121.8 24262.4C11054.6 24262.4 10994.6 24247.7 10941.6 24218.8C10888.5 24189.7 10847.2 24149 10817 24097.3C10786.9 24045.5 10771.8 23986.2 10771.2 23920H10864.2C10864.9 23972.4 10876 24019.3 10898 24060.6L10898.3 24059.9Z" fill="#202D3B"/>
<path d="M11447.5 23588.4H11540.6V24250.9H11447.5V23588.4Z" fill="#202D3B"/>
<path d="M11722.4 23588.4V24250.9H11629.4V23588.4H11722.4ZM12011.4 24179.2V24250.9H11649.4V24179.2H12011.4Z" fill="#202D3B"/>
<path d="M12070.1 23588.4H12163.2V24250.9H12070.1V23588.4Z" fill="#202D3B"/>
<path d="M12733.6 23588V23659.8H12219.5V23588H12733.6ZM12523.6 23588.4V24250.9H12430.2V23588.4H12523.6Z" fill="#202D3B"/>
<path d="M12790 23588.4H12883.1V24250.9H12790V23588.4Z" fill="#202D3B"/>
<path d="M12971.9 24250.9V23589H13356.6V23660.8H13064.9V24250.9H12971.9ZM13366.1 24179.2V24250.9H13035.1V24179.2H13366.1ZM13334.9 23923.9V23995.7H13041.3V23923.9H13334.9Z" fill="#202D3B"/>
<path d="M13527 24239.8C13485.3 24225.7 13447.3 24205.7 13412.9 24179.8L13439.8 24112.7C13472.2 24136.3 13505.7 24154.6 13539.7 24167.4C13573.8 24180.2 13605.9 24186.4 13636.7 24186.4C13682.3 24186.4 13717.3 24176.9 13742.2 24157.9C13767.1 24138.9 13779.9 24112.3 13780.3 24077.9C13780.3 24048.8 13767.8 24021.6 13742.9 23997C13718 23972.4 13682.6 23952.1 13636.4 23936C13574.5 23914.7 13527 23887.5 13493.5 23853.8C13460.1 23820 13443.4 23782.7 13443.4 23741.4C13443.4 23706.7 13451.6 23677.2 13467.6 23652.6C13483.7 23628 13507.3 23609.7 13538.4 23596.6C13569.6 23583.8 13607.2 23577.6 13651.5 23577.6C13683.9 23577.6 13716.4 23582.1 13748.8 23591.3C13780.9 23600.5 13810.7 23613.6 13838.3 23630.3L13811.4 23694.9C13789.8 23680.4 13765.8 23669.3 13740 23661.4C13714.1 23653.6 13688.2 23649.6 13661.6 23649.6C13621.3 23649.6 13590.2 23657.8 13568.2 23674.2C13546.3 23690.6 13535.5 23713.9 13535.5 23744C13535.5 23769.9 13547.9 23793.8 13572.5 23816.4C13597.1 23838.7 13632.1 23857.7 13677.7 23873.5C13739.6 23894.1 13787.1 23922.9 13820.6 23959.3C13854 23996 13870.7 24037.9 13870.7 24085.1C13870.7 24122.5 13862.2 24154.3 13845.5 24180.5C13828.8 24206.7 13804.2 24226.7 13771.7 24240.5C13739.3 24254.2 13700 24261.1 13653.8 24261.1C13611.2 24261.1 13568.9 24254.2 13527.3 24240.1L13527 24239.8Z" fill="#202D3B"/>
<path d="M5686.56 22977.6C5650.19 23036.6 5600.71 23082.4 5537.46 23115.2C5474.22 23148 5403.12 23164.4 5323.49 23164.4C5231.41 23164 5149.49 23143.4 5077.07 23102.1C5004.66 23061.1 4948.3 23004.1 4907.99 22931C4867.69 22858 4847.37 22775.1 4847.37 22682.3C4847.37 22589.6 4867.36 22501.1 4907.01 22426.1C4946.66 22351.1 5002.04 22292.1 5073.14 22250.1C5144.25 22208.2 5224.86 22187.2 5315.3 22187.2C5388.37 22187.2 5455.54 22202 5516.49 22231.4C5577.44 22260.9 5626.59 22302.2 5664.93 22354.7C5702.94 22407.4 5725.88 22467.1 5733.74 22533.9L5621.02 22554.2C5616.11 22503.4 5600.05 22458.2 5572.53 22418.6C5545 22378.9 5508.63 22347.8 5464.06 22325.8C5419.5 22303.9 5370.02 22292.7 5315.63 22292.7C5249.76 22292.7 5190.78 22309.1 5139.01 22342.2C5087.23 22375.3 5046.93 22421.2 5017.76 22480.5C4988.6 22539.8 4974.51 22607 4974.51 22682.7C4974.51 22758.4 4989.26 22820.6 5019.07 22877.6C5048.57 22934.6 5090.18 22979.2 5142.94 23011C5195.69 23042.8 5256.32 23058.8 5323.82 23058.8C5384.44 23058.8 5438.51 23046.4 5485.69 23021.2C5532.88 22995.9 5568.92 22960.9 5594.48 22916C5620.04 22871.1 5632.16 22819.6 5630.85 22762.3L5743.9 22776.7C5741.94 22852.1 5722.93 22918.9 5686.89 22977.9L5686.56 22977.6ZM5362.48 22775.7V22676.1H5741.61L5742.59 22716.4L5743.58 22776.4L5362.48 22775.7Z" fill="#C4090B"/>
<path d="M5966.4 23118.2C5916.92 23091 5878.25 23053.3 5850.73 23004.8C5823.2 22956.3 5809.11 22900.9 5809.11 22839.3C5809.11 22777.7 5822.87 22723 5850.73 22674.1C5878.58 22625.6 5917.25 22587.6 5966.73 22560.8C6016.21 22533.6 6072.24 22520.1 6134.83 22520.1C6197.41 22520.1 6253.45 22533.6 6302.93 22560.8C6352.41 22588 6390.74 22625.6 6418.6 22674.1C6446.45 22722.6 6460.21 22777.7 6460.21 22839.3C6460.21 22900.9 6446.45 22956.3 6418.6 23004.8C6390.74 23053.3 6352.41 23091.3 6302.93 23118.2C6253.45 23145.3 6197.41 23158.8 6134.83 23158.8C6072.24 23158.8 6015.55 23145.3 5966.07 23118.2H5966.4ZM6238.04 23031C6268.19 23012.3 6291.78 22986.1 6308.5 22953C6325.21 22919.9 6333.73 22881.9 6333.73 22840C6333.73 22798 6325.21 22760 6308.17 22726.9C6291.13 22693.8 6267.54 22667.9 6237.39 22649.2C6207.24 22630.6 6172.51 22621.1 6133.84 22621.1C6095.18 22621.1 6060.44 22630.2 6029.97 22648.9C5999.49 22667.6 5975.9 22693.5 5958.86 22726.6C5941.82 22759.7 5933.3 22797.7 5933.3 22839.6C5933.3 22881.6 5941.82 22920.2 5959.19 22953.3C5976.23 22986.4 6000.15 23012.3 6030.62 23031C6061.1 23049.7 6095.5 23058.8 6134.5 23058.8C6173.49 23058.8 6207.9 23049.3 6238.04 23030.7V23031Z" fill="#C4090B"/>
<path d="M6545.41 22531.6H6669.6V23148H6545.41V22531.6ZM6680.08 22604C6698.76 22576.5 6721.37 22555.5 6747.91 22541.1C6774.46 22527 6802.96 22519.8 6833.77 22519.8C6875.71 22519.8 6913.07 22529.6 6944.85 22549.6C6976.96 22569.3 7001.54 22597.5 7019.23 22633.8C7036.93 22670.2 7045.45 22712.2 7045.45 22760.3L6921.26 22761.6C6921.26 22733.1 6916.01 22708.2 6905.53 22686.6C6895.04 22665 6880.62 22648.3 6861.95 22636.1C6843.27 22624 6821.97 22618.4 6797.72 22618.4C6773.47 22618.4 6753.16 22624.3 6734.15 22636.1C6715.15 22647.9 6700.07 22664.6 6688.93 22685.9C6677.46 22707.2 6670.91 22731.8 6669.27 22759.3L6640.76 22704.6C6647.97 22665.3 6661.08 22632.2 6679.76 22604.3L6680.08 22604ZM6921.91 22759H7046.1V23147.3H6921.91V22759ZM7041.84 22605C7061.18 22577.5 7084.77 22556.5 7112.95 22542.1C7141.13 22527.7 7171.93 22520.5 7205.36 22520.5C7248.61 22520.5 7286.29 22530.3 7318.41 22550.3C7350.52 22570.3 7375.42 22598.5 7393.12 22634.8C7410.81 22671.2 7419.33 22713.8 7419.33 22762.6L7295.14 22763.9C7295.14 22734.8 7290.22 22709.2 7280.39 22686.9C7270.56 22664.6 7256.47 22647.6 7238.45 22635.8C7220.43 22624 7199.46 22617.8 7175.54 22617.8C7151.62 22617.8 7129.66 22623.7 7110.66 22635.2C7091.65 22646.6 7076.58 22663 7065.11 22684C7053.64 22704.9 7047.09 22729.2 7045.45 22756.4L7002.52 22703C7009.4 22665 7022.51 22632.2 7041.84 22604.7V22605ZM7295.47 22762.6H7419.66V23148H7295.47V22762.6Z" fill="#C4090B"/>
<path d="M7647.07 23122.7C7597.26 23096.2 7558.59 23058.2 7531.4 23009.7C7504.2 22961.2 7490.44 22904.5 7490.44 22840.9C7490.44 22777.4 7503.22 22721 7528.45 22672.8C7553.68 22624.3 7589.07 22587 7634.94 22560.4C7680.82 22533.9 7733.58 22520.8 7793.21 22520.8C7852.85 22520.8 7905.61 22532.6 7951.81 22556.2C7998.01 22579.8 8034.06 22613.2 8060.27 22656.1C8086.49 22699 8100.58 22748.5 8102.54 22804.2C8102.87 22809.5 8102.54 22817.3 8102.54 22826.8C8101.89 22836.7 8101.56 22843.6 8101.56 22847.8L8100.91 22877.3H7614.63C7615.28 22914 7624.13 22946.8 7641.17 22975.6C7658.21 23004.4 7681.8 23026.4 7711.62 23042.1C7741.77 23057.9 7775.85 23065.7 7813.86 23065.7C7848.92 23065.7 7882.67 23058.8 7914.78 23045.1C7946.9 23031.3 7971.14 23013.3 7987.53 22991L8074.36 23049.7C8048.15 23083.7 8011.45 23111.3 7964.92 23131.9C7918.39 23152.6 7869.89 23163 7819.43 23163C7754.22 23163 7696.88 23149.6 7647.07 23123.1V23122.7ZM7952.47 22696.4C7937.72 22672.2 7917.08 22653.2 7890.53 22639.4C7863.99 22625.6 7833.19 22619.1 7798.46 22619.1C7763.72 22619.1 7731.28 22626 7703.1 22639.4C7675.25 22653.2 7653.29 22672.2 7637.57 22696.8C7621.84 22721.3 7613.64 22749.5 7613.32 22781H7974.75C7974.42 22749.2 7966.88 22721 7952.14 22696.4H7952.47Z" fill="#C4090B"/>
<path d="M8289.32 23139.8C8245.08 23127 8204.78 23110 8168.08 23088L8206.09 22995.9C8242.13 23016.6 8276.54 23032.3 8310.29 23042.8C8344.04 23053.3 8373.53 23058.5 8399.42 23058.5C8437.1 23058.5 8465.94 23051.6 8485.93 23038.2C8505.92 23024.8 8515.75 23004.4 8515.75 22977.6C8515.42 22952.3 8504.93 22930.7 8484.29 22912.7C8463.65 22895 8428.26 22878.9 8378.45 22864.5C8312.26 22845.8 8263.11 22820.6 8231.32 22789.5C8199.54 22758 8183.48 22722.3 8183.48 22681.4C8183.48 22646 8192.33 22616.5 8210.02 22592.2C8227.72 22568.3 8251.97 22550.3 8283.09 22538.2C8313.9 22526 8348.96 22520.1 8388.28 22520.1C8467.58 22520.1 8538.36 22538.8 8600.29 22576.5L8578.33 22669.9C8553.43 22653.5 8524.27 22640.4 8490.84 22630.9C8457.42 22621.4 8426.62 22616.8 8398.44 22616.8C8332.9 22616.8 8300.13 22639.4 8300.13 22684.6C8300.13 22704.9 8312.91 22723 8338.8 22738C8364.69 22753.4 8404.01 22769.5 8456.76 22786.5C8516.73 22805.9 8561.3 22831.1 8589.8 22862.9C8618.31 22894.7 8632.73 22933.7 8632.73 22980.2C8632.73 23038.9 8613.4 23083.4 8575.06 23113.6C8536.72 23143.7 8483.63 23158.5 8415.8 23158.1C8375.83 23158.1 8333.88 23151.9 8289.65 23139.1L8289.32 23139.8Z" fill="#C4090B"/>
<path d="M9042.66 23139.4C9010.54 23123.7 8985.97 23100.5 8968.93 23070C8951.89 23039.5 8943.37 23003.5 8943.37 22961.8C8943.37 22952.3 8943.37 22944.8 8944.03 22939.9C8946.65 22902.2 8958.77 22868.1 8980.73 22837.3C9002.68 22806.5 9031.84 22777.4 9068.54 22749.5C9105.24 22721.7 9158.66 22685 9229.11 22639.7C9267.45 22615.2 9298.9 22593.2 9323.15 22573.9C9347.4 22554.5 9366.4 22534.2 9380.17 22513.3C9393.93 22492.3 9401.47 22469.7 9402.12 22445.8C9402.45 22419.5 9396.22 22395.3 9382.79 22373C9369.35 22350.7 9351.66 22332.7 9329.38 22319.6C9307.09 22306.5 9282.85 22299.6 9257.61 22299.6C9233.69 22299.6 9211.41 22306.2 9190.11 22319.6C9168.81 22333 9151.77 22350.7 9139.32 22373C9126.54 22395.6 9120.32 22419.9 9120.32 22445.8C9120.32 22471.6 9125.23 22493.9 9134.73 22514.2C9144.57 22534.6 9156.69 22552.6 9171.44 22568.6C9186.18 22584.7 9206.17 22604 9231.73 22626.6C9237.63 22631.9 9243.52 22637.4 9249.75 22643.3C9255.98 22649.2 9262.53 22655.1 9269.08 22661L9199.94 22726.6C9158.98 22695.8 9124.58 22666.3 9097.05 22638.1C9069.53 22609.9 9047.57 22579.8 9031.52 22547.3C9015.46 22515.2 9007.27 22480.5 9007.27 22443.1C9007.27 22397.6 9018.41 22356.3 9040.69 22319.3C9062.97 22282.2 9093.45 22253.4 9132.11 22232.4C9170.78 22211.5 9213.71 22201 9260.89 22201C9308.08 22201 9350.02 22211.5 9389.01 22232.1C9428.01 22252.7 9458.48 22281.6 9481.09 22318.6C9503.7 22355.3 9514.84 22396.6 9514.84 22442.5C9514.84 22482.5 9505.34 22518.5 9486.01 22550.6C9466.67 22582.7 9442.1 22611.2 9411.95 22636.1C9381.81 22661 9343.79 22688.2 9297.92 22717.4L9257.94 22744.6C9208.13 22778 9170.45 22804.2 9145.22 22823.6C9119.66 22842.9 9099.02 22862.2 9082.63 22881.9C9066.25 22901.6 9056.75 22922.2 9054.45 22943.2C9053.8 22951.7 9053.47 22957.6 9053.47 22960.9C9053.47 22987.7 9060.68 23009.7 9075.42 23026.4C9090.17 23043.1 9110.49 23051.3 9137.03 23051.3C9144.24 23051.3 9153.41 23050.3 9164.55 23048.4C9200.93 23041.5 9243.52 23018.9 9293 22980.5C9342.48 22942.2 9392.62 22894.7 9443.08 22838.3C9493.54 22781.9 9539.42 22724 9579.72 22665L9641.66 22748.5C9592.83 22818 9540.73 22883.2 9485.35 22943.8C9429.97 23004.4 9373.29 23054.9 9315.61 23094.9C9257.94 23134.9 9204.53 23156.5 9155.38 23159.8C9112.45 23161.7 9075.1 23154.9 9042.98 23139.1L9042.66 23139.4ZM9508.62 23006.4C9517.79 23018.9 9529.92 23029 9544.99 23036.9C9560.06 23045.1 9577.76 23048.7 9598.07 23048.4C9628.22 23047.7 9655.42 23043.1 9679.99 23035.2V23141.1C9641.33 23151.6 9605.61 23156.5 9572.84 23156.5C9544.99 23156.5 9520.09 23150.9 9498.46 23139.8C9476.51 23128.6 9459.14 23114.5 9445.38 23097.2C9428.66 23076.5 9413.59 23053.9 9400.81 23029.7C9388.03 23005.4 9373.61 22975.6 9357.88 22940.5L9444.06 22883.5C9463.4 22934.6 9485.03 22975.6 9508.29 23006.1L9508.62 23006.4Z" fill="#C4090B"/>
<path d="M10798.4 22977.6C10762 23036.6 10712.5 23082.4 10649.3 23115.2C10586 23148 10514.9 23164.4 10435.3 23164.4C10343.2 23164 10261.3 23143.4 10188.9 23102.1C10116.5 23061.1 10060.1 23004.1 10019.8 22931C9979.49 22858 9959.18 22775.1 9959.18 22682.3C9959.18 22589.6 9979.17 22501.1 10018.8 22426.1C10058.5 22351.1 10113.8 22292.1 10184.9 22250.1C10256.1 22208.2 10336.7 22187.2 10427.1 22187.2C10500.2 22187.2 10567.4 22202 10628.3 22231.4C10689.2 22260.9 10738.4 22302.2 10776.7 22354.7C10814.8 22407.4 10837.7 22467.1 10845.6 22533.9L10732.8 22554.2C10727.9 22503.4 10711.9 22458.2 10684.3 22418.6C10656.8 22378.9 10620.4 22347.8 10575.9 22325.8C10531.3 22303.9 10481.8 22292.7 10427.4 22292.7C10361.6 22292.7 10302.6 22309.1 10250.8 22342.2C10199 22375.3 10158.7 22421.2 10129.6 22480.5C10100.4 22539.8 10086.3 22607 10086.3 22682.7C10086.3 22758.4 10101.1 22820.6 10130.9 22877.6C10160.4 22934.6 10202 22979.2 10254.7 23011C10307.5 23042.8 10368.1 23058.8 10435.6 23058.8C10496.2 23058.8 10550.3 23046.4 10597.5 23021.2C10644.7 22995.9 10680.7 22960.9 10706.3 22916C10731.8 22871.1 10743.8 22833.5 10742.5 22776.2L10855.7 22776.7C10853.7 22852.1 10834.7 22918.9 10798.7 22977.9L10798.4 22977.6ZM10474.3 22775.7V22676.1H10853.4L10854.4 22716.4L10855.4 22776.4L10474.3 22775.7Z" fill="#C4090B"/>
<path d="M11440.6 23044.1C11418.7 23080.8 11388.5 23109.6 11349.5 23130.3C11310.5 23150.9 11266.3 23161.1 11216.8 23161.1C11159.5 23161.1 11108 23147.6 11063.1 23121.1C11018.2 23094.6 10983.5 23057.2 10958.6 23009.4C10933.7 22961.5 10921.2 22907.1 10921.2 22846.2C10921.2 22785.2 10934 22726.9 10959.6 22677.7C10985.1 22628.6 11020.5 22589.9 11065.8 22562.4C11111 22534.9 11162.7 22520.8 11220.1 22520.8C11267.9 22520.8 11310.9 22530.9 11348.9 22551.6C11386.9 22572.2 11416.4 22600.7 11438 22637.8C11459.6 22674.5 11470.8 22716.7 11471.4 22763.9C11472.1 22811.1 11443.9 22837.7 11443.9 22837.7C11443.9 22795.4 11435.7 22757.7 11419 22724.6C11402.3 22691.5 11379 22665.6 11349.2 22647.3C11319.4 22628.9 11285.3 22619.7 11247.3 22619.7C11209.3 22619.7 11173.2 22629.6 11142.4 22648.9C11111.6 22668.2 11087.7 22695.1 11070.3 22729.5C11053 22763.9 11044.1 22802.9 11044.1 22846.8C11044.1 22890.7 11052.6 22926.1 11069.4 22958.9C11086.1 22991.7 11110 23017.2 11140.5 23035.9C11170.9 23054.3 11206 23063.4 11245 23063.4C11284 23063.4 11317.7 23054.3 11347.9 23036.2C11378 23017.9 11401.6 22992.6 11418.3 22959.9C11435 22927.1 11443.6 22890.1 11443.6 22848.8L11472.7 22918.9C11472.7 22966.1 11461.9 23008.1 11440 23045.1L11440.6 23044.1ZM11444.2 23147.6V22531.3H11568.4L11567.8 23147.6H11444.2Z" fill="#C4090B"/>
<path d="M11672.3 22195.1H11796.5V23147.6H11672.3V22195.1Z" fill="#C4090B"/>
<path d="M11865 22531.6H12003.9L12185.1 22975.6L12364.7 22531.6H12502.6L12201.2 23180.7H12171L11865 22531.6Z" fill="#C4090B"/>
<path d="M13016.4 23044.1C12994.5 23080.8 12964.3 23109.6 12925.3 23130.3C12886.3 23150.9 12842.1 23161.1 12792.6 23161.1C12735.3 23161.1 12683.8 23147.6 12638.9 23121.1C12594.1 23094.6 12559.3 23057.2 12534.4 23009.4C12509.5 22961.5 12497.1 22907.1 12497.1 22846.2C12497.1 22785.2 12509.8 22726.9 12535.4 22677.7C12561 22628.6 12596.3 22589.9 12641.6 22562.4C12686.8 22534.9 12738.6 22520.8 12795.9 22520.8C12843.7 22520.8 12886.7 22530.9 12924.7 22551.6C12962.7 22572.2 12992.2 22600.7 13013.8 22637.8C13035.4 22674.5 13046.6 22716.7 13047.2 22763.9L13019.7 22837.7C13019.7 22795.4 13011.5 22757.7 12994.8 22724.6C12978.1 22691.5 12954.8 22665.6 12925 22647.3C12895.2 22628.9 12861.1 22619.7 12823.1 22619.7C12785.1 22619.7 12749 22629.6 12718.2 22648.9C12687.4 22668.2 12663.5 22695.1 12646.2 22729.5C12628.8 22763.9 12619.9 22802.9 12619.9 22846.8C12619.9 22890.7 12628.5 22926.1 12645.2 22958.9C12661.9 22991.7 12685.8 23017.2 12716.3 23035.9C12746.8 23054.3 12781.8 23063.4 12820.8 23063.4C12859.8 23063.4 12893.6 23054.3 12923.7 23036.2C12953.8 23017.9 12977.4 22992.6 12994.1 22959.9C13010.9 22927.1 13019.4 22890.1 13019.4 22848.8L13048.5 22918.9C13048.5 22966.1 13037.7 23008.1 13015.8 23045.1L13016.4 23044.1ZM12779.8 22300.6C12792 22300.6 12803.4 22302.6 12814.3 22306.5C12825.1 22310.4 12837.8 22316 12852.6 22323.2C12865 22329.4 12875.5 22334 12883.7 22336.6C12891.9 22339.3 12899.8 22340.9 12907.6 22340.9C12922.4 22340.9 12936.8 22337.9 12951.2 22332.4C12965.6 22326.5 12979.1 22318.3 12991.2 22307.1V22404.5C12980.1 22413 12967.6 22419.5 12952.9 22424.8C12938.4 22429.7 12923.4 22432.3 12907.6 22432.3C12896.8 22432.3 12886 22430.7 12876.2 22427.1C12866 22423.5 12854.2 22418.6 12840.8 22411.7C12827.7 22405.1 12816.5 22400.2 12807.7 22396.9C12798.9 22393.6 12789.7 22392 12780.5 22392C12745.8 22392 12716.9 22400.5 12693.7 22417.9V22323.9C12718.2 22308.5 12747.1 22300.9 12780.5 22300.9L12779.8 22300.6ZM13020 23148V22531.6H13144.2L13143.6 23148H13020Z" fill="#C4090B"/>
<path d="M13386.4 23118.2C13336.9 23091 13298.2 23053.3 13270.7 23004.8C13243.2 22956.3 13229.1 22900.9 13229.1 22839.3C13229.1 22777.7 13242.9 22723 13270.7 22674.1C13298.6 22625.6 13337.2 22587.6 13386.7 22560.8C13436.2 22533.6 13492.2 22520.1 13554.8 22520.1C13617.4 22520.1 13673.4 22533.6 13722.9 22560.8C13772.4 22588 13810.7 22625.6 13838.6 22674.1C13866.4 22722.6 13880.2 22777.7 13880.2 22839.3C13880.2 22900.9 13866.4 22956.3 13838.6 23004.8C13810.7 23053.3 13772.4 23091.3 13722.9 23118.2C13673.4 23145.3 13617.4 23158.8 13554.8 23158.8C13492.2 23158.8 13435.5 23145.3 13386.1 23118.2H13386.4ZM13658 23031C13688.2 23012.3 13711.8 22986.1 13728.5 22953C13745.2 22919.9 13753.7 22881.9 13753.7 22840C13753.7 22798 13745.2 22760 13728.2 22726.9C13711.1 22693.8 13687.5 22667.9 13657.4 22649.2C13627.2 22630.6 13592.5 22621.1 13553.8 22621.1C13515.2 22621.1 13480.4 22630.2 13450 22648.9C13419.5 22667.6 13395.9 22693.5 13378.8 22726.6C13361.8 22759.7 13353.3 22797.7 13353.3 22839.6C13353.3 22881.6 13361.8 22920.2 13379.2 22953.3C13396.2 22986.4 13420.1 23012.3 13450.6 23031C13481.1 23049.7 13515.5 23058.8 13554.5 23058.8C13593.5 23058.8 13627.9 23049.3 13658 23030.7V23031Z" fill="#C4090B"/>
<defs>
<linearGradient id="paint0_linear_29_2" x1="-45048" y1="15564.8" x2="241217" y2="15564.8" gradientUnits="userSpaceOnUse">
<stop stop-color="#34495E"/>
<stop offset="1" stop-color="#34495E"/>
</linearGradient>
<linearGradient id="paint1_linear_29_2" x1="7302.68" y1="15565.1" x2="25465.3" y2="15565.1" gradientUnits="userSpaceOnUse">
<stop stop-color="#34495E"/>
<stop offset="1" stop-color="#34495E"/>
</linearGradient>
<linearGradient id="paint2_linear_29_2" x1="7302.68" y1="15919.3" x2="17924.1" y2="15919.3" gradientUnits="userSpaceOnUse">
<stop stop-color="#C4090B"/>
<stop offset="1" stop-color="#C4090B"/>
</linearGradient>
</defs>
</svg>
