<svg width="276" height="74" viewBox="0 0 276 74" fill="none" xmlns="http://www.w3.org/2000/svg">
<path d="M39.8032 44.4429L38.9418 45.7083L38.3128 43.8457C38.7635 43.5838 39.2556 43.3633 39.7936 43.1894L39.8032 44.4429Z" fill="url(#paint0_linear_160_8)"/>
<path d="M45.5101 42.032V13.1735L40.5077 9.32399L40.4781 42.106L45.5101 42.032Z" fill="#202D3B"/>
<path d="M40.5077 9.32399L33.8388 14.5817L33.8921 24.272L40.5077 9.32399Z" fill="#202D3B"/>
<path d="M27.6206 5.54999L32.9597 8.06821L33.0781 24.272H27.2321" fill="#202D3B"/>
<path d="M23.7541 18.514L27.6206 5.54999L23.7541 8.62839V18.514Z" fill="#202D3B"/>
<path d="M23.7541 18.514L27.252 17.4055L23.7541 24.272L23.7541 18.514Z" fill="#202D3B"/>
<path d="M46.3788 26.6851L54.0941 32.93V33.6278H57.4981L46.3788 26.6851Z" fill="#202D3B"/>
<path d="M46.3981 26.714V42.106H54.0941V32.93L46.3981 26.714Z" fill="#202D3B"/>
<path d="M57.2516 52.2766L57.3286 62.2296L56.4665 63.4957L55.5297 60.72C54.6113 61.9321 53.4147 62.8896 51.937 63.5912C50.3104 64.3637 48.4826 64.75 46.4543 64.75C44.0426 64.75 41.8952 64.2446 40.0111 63.233C38.1278 62.2214 36.6574 60.8169 35.6015 59.0194C34.5447 57.2212 34.0171 55.1751 34.0171 52.8811C34.0171 50.5871 34.5425 48.4685 35.5941 46.637C36.1949 45.5914 36.9786 44.7078 37.9894 44.0455L38.8293 46.5312L40.1747 44.5554L40.1628 43.0798C40.3271 43.034 40.4958 42.9925 40.669 42.9562C43.3655 42.3805 57.5084 43.071 57.5084 43.071L54.5122 46.2352C54.5122 46.2352 45.8823 46.2929 43.1857 46.4653C41.4016 46.58 40.02 47.5849 39.351 48.8822C38.6828 50.1794 38.5178 51.2332 38.5178 52.8811C38.5178 54.5291 38.8545 55.9292 39.5272 57.1931C40.2006 58.457 41.1404 59.4457 42.3458 60.1568C43.552 60.8687 44.921 61.2246 46.4543 61.2246C47.8189 61.2246 49.0325 60.9642 50.0929 60.4447C51.154 59.9252 51.9695 59.2015 52.5401 58.275C53.1099 57.3478 53.4014 56.6211 53.3733 55.4408L56.3274 55.483L43.1998 53.0817L45.0949 52.2766H57.2516Z" fill="url(#paint1_linear_160_8)"/>
<path d="M39.7262 34.4899H27.5702L25.6744 35.295L38.8175 37.6438L38.8027 37.6956L35.8486 37.6534C35.876 38.8337 35.5852 39.5604 35.0154 40.4876C34.4448 41.4148 33.6294 42.1378 32.5682 42.6573C31.507 43.1775 30.2942 43.4373 28.9296 43.4373C27.3963 43.4373 26.0273 43.0813 24.8211 42.3694C23.6149 41.6583 22.6759 40.6704 22.0025 39.4057C21.3298 38.1418 20.9931 36.7047 20.9931 35.0938C20.9931 33.4828 21.1581 32.392 21.8264 31.0948C22.4946 29.7983 23.8769 28.7926 25.661 28.6787C28.3576 28.5055 36.9867 28.4486 36.9867 28.4486L37.3294 28.0867L40.4781 24.938H30.4881L30.5406 24.9661C27.3246 24.9099 24.258 24.9313 23.1436 25.1689C20.7312 25.6839 19.1209 27.0196 18.0694 28.8504C17.0178 30.6811 16.4917 32.762 16.4917 35.0938C16.4917 37.4255 17.0201 39.4339 18.0768 41.2321C19.1328 43.0303 20.6024 44.4348 22.4864 45.4456C24.3697 46.4572 26.518 46.9626 28.9296 46.9626C30.958 46.9626 32.7858 46.5763 34.4123 45.8038C35.8893 45.1022 37.0866 44.1447 38.005 42.9333L38.9418 45.7083L39.8032 44.4429L39.7262 34.4899Z" fill="url(#paint2_linear_160_8)"/>
<path d="M22.0764 53.2711H22.9689V53.4324H22.2866V54.0096H22.9023V54.1717H22.2866V54.7652H22.0764V53.2711Z" fill="#202D3B"/>
<path d="M22.8734 54.7659L23.589 53.2149H23.6275L23.6911 53.4154L23.0961 54.7659H22.8734ZM24.0034 54.319L24.0581 54.4699H23.1405L23.2042 54.3197H24.0034V54.319ZM23.5335 53.4154L23.5934 53.2149H23.6319L24.3342 54.7659H24.1159L23.5342 53.4154H23.5335Z" fill="#202D3B"/>
<path d="M24.4281 53.6167C24.4955 53.499 24.5895 53.408 24.7093 53.3422C24.8292 53.2763 24.9646 53.2437 25.1163 53.2437C25.1918 53.2437 25.2666 53.2548 25.3406 53.2778C25.4146 53.3 25.4812 53.3318 25.5404 53.3718C25.5996 53.4117 25.6462 53.4576 25.6795 53.5087L25.5663 53.6189C25.5411 53.5775 25.5048 53.5412 25.4575 53.5087C25.4101 53.4768 25.3568 53.4517 25.2976 53.4332C25.2384 53.4147 25.1778 53.4058 25.1163 53.4058C25.0053 53.4058 24.9062 53.4317 24.8181 53.4835C24.7301 53.5353 24.662 53.6078 24.6117 53.7003C24.5621 53.7928 24.5362 53.8986 24.5354 54.017H24.3253C24.3268 53.8676 24.3608 53.7344 24.4289 53.6167H24.4281ZM24.6117 54.3345C24.6612 54.4277 24.7301 54.5003 24.8181 54.5521C24.9062 54.6039 25.0053 54.6298 25.1163 54.6298C25.1785 54.6298 25.2399 54.6201 25.3006 54.6016C25.3613 54.5831 25.416 54.5565 25.4656 54.5225C25.5152 54.4884 25.5537 54.4499 25.5818 54.407L25.6928 54.5269C25.6565 54.578 25.6077 54.6231 25.5455 54.6638C25.4841 54.7038 25.4153 54.7348 25.3406 54.7578C25.2658 54.78 25.1911 54.7918 25.1163 54.7918C24.9646 54.7918 24.8292 54.7585 24.7093 54.6934C24.5895 54.6275 24.4962 54.5358 24.4281 54.4189C24.3601 54.3019 24.326 54.168 24.3245 54.0185H24.5347C24.5362 54.1369 24.5613 54.2427 24.6109 54.336L24.6117 54.3345Z" fill="#202D3B"/>
<path d="M25.8519 53.2696H26.0621V54.7659H25.8519V53.2696Z" fill="#202D3B"/>
<path d="M26.4728 53.2696V54.7659H26.2626V53.2696H26.4728ZM27.1254 54.6039V54.7659H26.3077V54.6039H27.1254Z" fill="#202D3B"/>
<path d="M27.2579 53.2696H27.4681V54.7659H27.2579V53.2696Z" fill="#202D3B"/>
<path d="M28.7564 53.2689V53.431H27.5953V53.2689H28.7564ZM28.2821 53.2696V54.7659H28.0712V53.2696H28.2821Z" fill="#202D3B"/>
<path d="M28.8837 53.2696H29.0938V54.7659H28.8837V53.2696Z" fill="#202D3B"/>
<path d="M29.2944 54.7659V53.2711H30.1631V53.4332H29.5045V54.7659H29.2944ZM30.1846 54.6039V54.7659H29.4372V54.6039H30.1846ZM30.1143 54.0274V54.1895H29.4513V54.0274H30.1143Z" fill="#202D3B"/>
<path d="M30.5479 54.7408C30.454 54.7089 30.3681 54.6638 30.2904 54.6053L30.3511 54.4536C30.4244 54.5069 30.4998 54.5484 30.5768 54.5772C30.6538 54.6061 30.7263 54.6201 30.7958 54.6201C30.8987 54.6201 30.9779 54.5987 31.0341 54.5558C31.0904 54.5128 31.1192 54.4529 31.12 54.3752C31.12 54.3093 31.0918 54.2479 31.0356 54.1924C30.9794 54.1369 30.8994 54.091 30.7951 54.0548C30.6552 54.0067 30.5479 53.9453 30.4725 53.869C30.397 53.7928 30.3592 53.7085 30.3592 53.6152C30.3592 53.5368 30.3777 53.4702 30.414 53.4147C30.4503 53.3592 30.5035 53.3177 30.5738 53.2881C30.6441 53.2593 30.7292 53.2452 30.8291 53.2452C30.9024 53.2452 30.9757 53.2556 31.0489 53.2763C31.1214 53.297 31.1888 53.3266 31.2509 53.3644L31.1903 53.5101C31.1414 53.4776 31.0874 53.4524 31.0289 53.4347C30.9705 53.4169 30.912 53.408 30.8521 53.408C30.7611 53.408 30.6908 53.4265 30.6412 53.4635C30.5916 53.5005 30.5672 53.5531 30.5672 53.6211C30.5672 53.6796 30.5953 53.7336 30.6508 53.7847C30.7063 53.835 30.7855 53.8779 30.8883 53.9134C31.0282 53.9601 31.1355 54.0252 31.211 54.1073C31.2865 54.1902 31.3242 54.2849 31.3242 54.3915C31.3242 54.4758 31.305 54.5476 31.2672 54.6068C31.2295 54.666 31.174 54.7112 31.1007 54.7422C31.0275 54.7733 30.9387 54.7889 30.8343 54.7889C30.7381 54.7889 30.6427 54.7733 30.5487 54.7415L30.5479 54.7408Z" fill="#202D3B"/>
<path d="M12.8419 51.8903C12.7598 52.0235 12.648 52.1271 12.5052 52.2011C12.3624 52.2751 12.2018 52.3121 12.022 52.3121C11.8141 52.3113 11.6291 52.2647 11.4655 52.1715C11.302 52.079 11.1747 51.9502 11.0837 51.7852C10.9927 51.6202 10.9468 51.433 10.9468 51.2235C10.9468 51.0141 10.9919 50.8143 11.0815 50.6449C11.171 50.4754 11.2961 50.3422 11.4566 50.2475C11.6172 50.1528 11.7993 50.1054 12.0035 50.1054C12.1685 50.1054 12.3202 50.1387 12.4579 50.2053C12.5955 50.2719 12.7065 50.3651 12.7931 50.4835C12.8789 50.6027 12.9307 50.7374 12.9485 50.8883L12.6939 50.9342C12.6828 50.8195 12.6466 50.7174 12.5844 50.6278C12.5222 50.5383 12.4401 50.468 12.3395 50.4184C12.2388 50.3688 12.1271 50.3437 12.0042 50.3437C11.8555 50.3437 11.7223 50.3807 11.6054 50.4554C11.4885 50.5302 11.3974 50.6338 11.3316 50.7677C11.2657 50.9016 11.2339 51.0533 11.2339 51.2243C11.2339 51.3952 11.2672 51.5358 11.3345 51.6646C11.4011 51.7933 11.4951 51.894 11.6143 51.9658C11.7334 52.0375 11.8703 52.0738 12.0227 52.0738C12.1596 52.0738 12.2817 52.0457 12.3883 51.9887C12.4949 51.9317 12.5763 51.8525 12.634 51.7512C12.6917 51.6498 12.7191 51.5336 12.7161 51.4041L12.9714 51.4367C12.967 51.6069 12.9241 51.7578 12.8427 51.891L12.8419 51.8903ZM12.1101 51.4344V51.2095H12.9662L12.9685 51.3005L12.9707 51.4359L12.1101 51.4344Z" fill="#C4090B"/>
<path d="M13.4739 52.2077C13.3621 52.1463 13.2748 52.0612 13.2127 51.9517C13.1505 51.8422 13.1187 51.7171 13.1187 51.578C13.1187 51.4389 13.1498 51.3153 13.2127 51.205C13.2756 51.0955 13.3629 51.0097 13.4746 50.949C13.5864 50.8876 13.7129 50.8572 13.8542 50.8572C13.9956 50.8572 14.1221 50.8876 14.2339 50.949C14.3456 51.0104 14.4322 51.0955 14.4951 51.205C14.558 51.3146 14.5891 51.4389 14.5891 51.578C14.5891 51.7171 14.558 51.8422 14.4951 51.9517C14.4322 52.0612 14.3456 52.1471 14.2339 52.2077C14.1221 52.2692 13.9956 52.2995 13.8542 52.2995C13.7129 52.2995 13.5849 52.2692 13.4731 52.2077H13.4739ZM14.0873 52.0109C14.1554 51.9687 14.2087 51.9095 14.2464 51.8348C14.2842 51.76 14.3034 51.6742 14.3034 51.5795C14.3034 51.4848 14.2842 51.3989 14.2457 51.3242C14.2072 51.2494 14.1539 51.191 14.0859 51.1488C14.0178 51.1066 13.9393 51.0852 13.852 51.0852C13.7647 51.0852 13.6863 51.1059 13.6174 51.1481C13.5486 51.1902 13.4953 51.2487 13.4569 51.3234C13.4184 51.3982 13.3991 51.484 13.3991 51.5787C13.3991 51.6735 13.4184 51.7608 13.4576 51.8355C13.4961 51.9103 13.5501 51.9687 13.6189 52.0109C13.6877 52.0531 13.7654 52.0738 13.8535 52.0738C13.9416 52.0738 14.0193 52.0523 14.0873 52.0102V52.0109Z" fill="#C4090B"/>
<path d="M14.7815 50.8831H15.0619V52.2751H14.7815V50.8831ZM15.0856 51.0467C15.1278 50.9845 15.1788 50.9372 15.2388 50.9046C15.2987 50.8728 15.3631 50.8565 15.4327 50.8565C15.5274 50.8565 15.6117 50.8787 15.6835 50.9238C15.756 50.9682 15.8115 51.0319 15.8515 51.114C15.8915 51.1962 15.9107 51.2909 15.9107 51.3997L15.6302 51.4026C15.6302 51.3382 15.6184 51.282 15.5947 51.2332C15.571 51.1843 15.5385 51.1466 15.4963 51.1192C15.4541 51.0918 15.406 51.0792 15.3513 51.0792C15.2965 51.0792 15.2506 51.0926 15.2077 51.1192C15.1648 51.1458 15.1307 51.1836 15.1056 51.2317C15.0797 51.2798 15.0649 51.3353 15.0612 51.3974L14.9968 51.2739C15.0131 51.1851 15.0427 51.1103 15.0849 51.0474L15.0856 51.0467ZM15.6317 51.3967H15.9122V52.2736H15.6317V51.3967ZM15.9026 51.0489C15.9462 50.9867 15.9995 50.9394 16.0631 50.9068C16.1268 50.8743 16.1963 50.858 16.2718 50.858C16.3695 50.858 16.4546 50.8802 16.5271 50.9253C16.5996 50.9705 16.6559 51.0341 16.6958 51.1162C16.7358 51.1984 16.755 51.2946 16.755 51.4048L16.4746 51.4078C16.4746 51.3419 16.4635 51.2842 16.4413 51.2339C16.4191 51.1836 16.3873 51.1451 16.3466 51.1185C16.3059 51.0918 16.2585 51.0778 16.2045 51.0778C16.1505 51.0778 16.1009 51.0911 16.058 51.117C16.015 51.1429 15.981 51.1799 15.9551 51.2272C15.9292 51.2746 15.9144 51.3294 15.9107 51.3908L15.8138 51.2702C15.8293 51.1843 15.8589 51.1103 15.9026 51.0482V51.0489ZM16.4753 51.4048H16.7558V52.2751H16.4753V51.4048Z" fill="#C4090B"/>
<path d="M17.2693 52.2181C17.1569 52.1582 17.0695 52.0723 17.0081 51.9628C16.9467 51.8533 16.9156 51.7253 16.9156 51.5817C16.9156 51.4381 16.9445 51.3109 17.0015 51.2021C17.0584 51.0926 17.1384 51.0082 17.242 50.9483C17.3456 50.8883 17.4647 50.8587 17.5994 50.8587C17.7341 50.8587 17.8532 50.8854 17.9575 50.9386C18.0619 50.9919 18.1433 51.0674 18.2025 51.1643C18.2617 51.2613 18.2935 51.373 18.2979 51.4988C18.2987 51.5107 18.2979 51.5284 18.2979 51.5499C18.2965 51.5721 18.2957 51.5876 18.2957 51.5972L18.2942 51.6638H17.1961C17.1976 51.7467 17.2175 51.8207 17.256 51.8858C17.2945 51.951 17.3478 52.0005 17.4151 52.0361C17.4832 52.0716 17.5602 52.0893 17.646 52.0893C17.7252 52.0893 17.8014 52.0738 17.8739 52.0427C17.9464 52.0116 18.0012 51.9709 18.0382 51.9206L18.2343 52.0531C18.1751 52.13 18.0922 52.1922 17.9871 52.2388C17.8821 52.2854 17.7725 52.3091 17.6586 52.3091C17.5113 52.3091 17.3818 52.2788 17.2693 52.2188V52.2181ZM17.959 51.2554C17.9257 51.2006 17.8791 51.1577 17.8192 51.1266C17.7592 51.0955 17.6897 51.0807 17.6112 51.0807C17.5328 51.0807 17.4595 51.0963 17.3959 51.1266C17.333 51.1577 17.2834 51.2006 17.2479 51.2561C17.2124 51.3116 17.1939 51.3752 17.1931 51.4463H18.0093C18.0086 51.3745 17.9916 51.3109 17.9583 51.2554H17.959Z" fill="#C4090B"/>
<path d="M18.7197 52.2566C18.6198 52.2277 18.5288 52.1892 18.4459 52.1397L18.5318 51.9317C18.6132 51.9783 18.6909 52.0139 18.7671 52.0375C18.8433 52.0612 18.9099 52.0731 18.9684 52.0731C19.0535 52.0731 19.1186 52.0575 19.1637 52.0272C19.2089 51.9968 19.2311 51.951 19.2311 51.8903C19.2303 51.8333 19.2067 51.7845 19.16 51.7438C19.1134 51.7038 19.0335 51.6675 18.921 51.635C18.7715 51.5928 18.6605 51.5358 18.5888 51.4655C18.517 51.3945 18.4807 51.3138 18.4807 51.2213C18.4807 51.1414 18.5007 51.0748 18.5407 51.02C18.5806 50.966 18.6354 50.9253 18.7057 50.8979C18.7752 50.8706 18.8544 50.8572 18.9432 50.8572C19.1223 50.8572 19.2821 50.8994 19.422 50.9845L19.3724 51.1954C19.3162 51.1584 19.2503 51.1288 19.1748 51.1074C19.0994 51.0859 19.0298 51.0755 18.9662 51.0755C18.8182 51.0755 18.7442 51.1266 18.7442 51.2287C18.7442 51.2746 18.773 51.3153 18.8315 51.3493C18.8899 51.3841 18.9787 51.4204 19.0979 51.4589C19.2333 51.5025 19.3339 51.5595 19.3983 51.6313C19.4627 51.7031 19.4953 51.7911 19.4953 51.8962C19.4953 52.0287 19.4516 52.1293 19.365 52.1974C19.2784 52.2655 19.1586 52.2988 19.0054 52.298C18.9151 52.298 18.8204 52.284 18.7205 52.2551L18.7197 52.2566Z" fill="#C4090B"/>
<path d="M20.421 52.2558C20.3485 52.2203 20.293 52.1678 20.2545 52.099C20.216 52.0301 20.1968 51.9487 20.1968 51.8548C20.1968 51.8333 20.1968 51.8163 20.1983 51.8052C20.2042 51.7201 20.2316 51.6431 20.2811 51.5736C20.3307 51.504 20.3966 51.4381 20.4795 51.3752C20.5623 51.3123 20.683 51.2295 20.8421 51.1273C20.9286 51.0718 20.9997 51.0223 21.0544 50.9786C21.1092 50.9349 21.1521 50.8891 21.1832 50.8417C21.2143 50.7943 21.2313 50.7433 21.2328 50.6893C21.2335 50.6301 21.2195 50.5753 21.1891 50.525C21.1588 50.4747 21.1188 50.434 21.0685 50.4044C21.0182 50.3748 20.9634 50.3592 20.9064 50.3592C20.8524 50.3592 20.8021 50.374 20.754 50.4044C20.7059 50.4347 20.6674 50.4747 20.6393 50.525C20.6104 50.576 20.5964 50.6308 20.5964 50.6893C20.5964 50.7477 20.6075 50.798 20.6289 50.8439C20.6511 50.8898 20.6785 50.9305 20.7118 50.9668C20.7451 51.003 20.7903 51.0467 20.848 51.0977C20.8613 51.1096 20.8746 51.1222 20.8887 51.1355C20.9027 51.1488 20.9175 51.1621 20.9323 51.1754L20.7762 51.3234C20.6837 51.2539 20.606 51.1873 20.5438 51.1236C20.4817 51.06 20.4321 50.9919 20.3958 50.9187C20.3596 50.8461 20.3411 50.7677 20.3411 50.6833C20.3411 50.5805 20.3662 50.4872 20.4166 50.4036C20.4669 50.32 20.5357 50.2549 20.623 50.2075C20.7103 50.1602 20.8073 50.1365 20.9138 50.1365C21.0204 50.1365 21.1151 50.1602 21.2032 50.2068C21.2912 50.2534 21.3601 50.3185 21.4111 50.4021C21.4622 50.485 21.4873 50.5783 21.4873 50.6819C21.4873 50.7721 21.4659 50.8535 21.4222 50.9261C21.3786 50.9986 21.3231 51.063 21.255 51.1192C21.1869 51.1754 21.1011 51.2369 20.9975 51.3027L20.9072 51.3641C20.7947 51.4396 20.7096 51.4988 20.6526 51.5425C20.5949 51.5861 20.5483 51.6298 20.5113 51.6742C20.4743 51.7186 20.4528 51.7652 20.4476 51.8126C20.4462 51.8318 20.4454 51.8451 20.4454 51.8525C20.4454 51.9132 20.4617 51.9628 20.495 52.0005C20.5283 52.0383 20.5742 52.0568 20.6341 52.0568C20.6504 52.0568 20.6711 52.0546 20.6963 52.0501C20.7784 52.0346 20.8746 51.9835 20.9864 51.8969C21.0981 51.8104 21.2113 51.7031 21.3253 51.5758C21.4392 51.4485 21.5428 51.3175 21.6339 51.1843L21.7737 51.373C21.6635 51.5299 21.5458 51.6772 21.4207 51.8141C21.2957 51.951 21.1677 52.0649 21.0374 52.1552C20.9072 52.2455 20.7866 52.2943 20.6756 52.3017C20.5786 52.3062 20.4943 52.2906 20.4217 52.2551L20.421 52.2558ZM21.4733 51.9554C21.494 51.9835 21.5214 52.0065 21.5554 52.0242C21.5895 52.0427 21.6294 52.0509 21.6753 52.0501C21.7434 52.0486 21.8048 52.0383 21.8603 52.0205V52.2595C21.773 52.2832 21.6923 52.2943 21.6183 52.2943C21.5554 52.2943 21.4992 52.2817 21.4503 52.2566C21.4008 52.2314 21.3615 52.1996 21.3305 52.1604C21.2927 52.1138 21.2587 52.0627 21.2298 52.0079C21.201 51.9532 21.1684 51.8858 21.1329 51.8067L21.3275 51.6779C21.3712 51.7933 21.42 51.8858 21.4725 51.9547L21.4733 51.9554Z" fill="#C4090B"/>
<path d="M24.3859 51.8903C24.3038 52.0235 24.192 52.1271 24.0492 52.2011C23.9064 52.2751 23.7458 52.3121 23.566 52.3121C23.3581 52.3113 23.1731 52.2647 23.0095 52.1715C22.846 52.079 22.7187 51.9502 22.6277 51.7852C22.5367 51.6202 22.4908 51.433 22.4908 51.2235C22.4908 51.0141 22.5359 50.8143 22.6255 50.6449C22.715 50.4754 22.8401 50.3422 23.0006 50.2475C23.1612 50.1528 23.3433 50.1054 23.5475 50.1054C23.7125 50.1054 23.8642 50.1387 24.0019 50.2053C24.1395 50.2719 24.2505 50.3651 24.3371 50.4835C24.4229 50.6027 24.4747 50.7374 24.4925 50.8883L24.2379 50.9342C24.2268 50.8195 24.1906 50.7174 24.1284 50.6278C24.0662 50.5383 23.9841 50.468 23.8835 50.4184C23.7828 50.3688 23.6711 50.3437 23.5482 50.3437C23.3995 50.3437 23.2663 50.3807 23.1494 50.4554C23.0325 50.5302 22.9414 50.6338 22.8756 50.7677C22.8097 50.9016 22.7779 51.0533 22.7779 51.2243C22.7779 51.3952 22.8112 51.5358 22.8785 51.6646C22.9451 51.7933 23.0391 51.894 23.1583 51.9658C23.2774 52.0375 23.4143 52.0738 23.5667 52.0738C23.7036 52.0738 23.8257 52.0457 23.9323 51.9887C24.0389 51.9317 24.1203 51.8525 24.178 51.7512C24.2357 51.6498 24.2628 51.565 24.2598 51.4355L24.5154 51.4367C24.511 51.6069 24.4681 51.7578 24.3867 51.891L24.3859 51.8903ZM23.6541 51.4344V51.2095H24.5102L24.5125 51.3005L24.5147 51.4359L23.6541 51.4344Z" fill="#C4090B"/>
<path d="M25.8363 52.0405C25.7867 52.1234 25.7187 52.1885 25.6306 52.2351C25.5425 52.2817 25.4426 52.3047 25.3309 52.3047C25.2014 52.3047 25.0852 52.2743 24.9838 52.2144C24.8825 52.1545 24.804 52.0701 24.7478 51.9621C24.6915 51.854 24.6634 51.7312 24.6634 51.5935C24.6634 51.4559 24.6923 51.3242 24.75 51.2132C24.8077 51.1022 24.8876 51.0149 24.9898 50.9527C25.0919 50.8905 25.2088 50.8587 25.3383 50.8587C25.4463 50.8587 25.5433 50.8817 25.6291 50.9283C25.715 50.9749 25.7816 51.0393 25.8304 51.1229C25.8792 51.2058 25.9044 51.3012 25.9059 51.4078C25.9074 51.5144 25.8437 51.5743 25.8437 51.5743C25.8437 51.4788 25.8252 51.3937 25.7875 51.319C25.7497 51.2443 25.6972 51.1858 25.6299 51.1444C25.5625 51.1029 25.4856 51.0822 25.3997 51.0822C25.3139 51.0822 25.2325 51.1044 25.1629 51.1481C25.0934 51.1917 25.0393 51.2524 25.0001 51.3301C24.9609 51.4078 24.9409 51.4959 24.9409 51.595C24.9409 51.6942 24.9602 51.7741 24.9979 51.8481C25.0356 51.9221 25.0897 51.9798 25.1585 52.022C25.2273 52.0634 25.3065 52.0842 25.3945 52.0842C25.4826 52.0842 25.5588 52.0634 25.6269 52.0227C25.695 51.9813 25.7483 51.9243 25.786 51.8503C25.8237 51.7763 25.843 51.6927 25.843 51.5995L25.9088 51.7578C25.9088 51.8644 25.8844 51.9591 25.8348 52.0427L25.8363 52.0405ZM25.8445 52.2743V50.8824H26.1249L26.1234 52.2743H25.8445Z" fill="#C4090B"/>
<path d="M26.3595 50.1232H26.64V52.2743H26.3595V50.1232Z" fill="#C4090B"/>
<path d="M26.7946 50.8831H27.1084L27.5176 51.8858L27.9231 50.8831H28.2347L27.5539 52.3491H27.4858L26.7946 50.8831Z" fill="#C4090B"/>
<path d="M29.395 52.0405C29.3454 52.1234 29.2773 52.1885 29.1893 52.2351C29.1012 52.2817 29.0013 52.3047 28.8896 52.3047C28.7601 52.3047 28.6439 52.2743 28.5425 52.2144C28.4411 52.1545 28.3627 52.0701 28.3064 51.9621C28.2502 51.854 28.2221 51.7312 28.2221 51.5935C28.2221 51.4559 28.2509 51.3242 28.3087 51.2132C28.3664 51.1022 28.4463 51.0149 28.5484 50.9527C28.6505 50.8905 28.7675 50.8587 28.897 50.8587C29.005 50.8587 29.1019 50.8817 29.1878 50.9283C29.2736 50.9749 29.3402 51.0393 29.3891 51.1229C29.4379 51.2058 29.4631 51.3012 29.4645 51.4078L29.4024 51.5743C29.4024 51.4788 29.3839 51.3937 29.3461 51.319C29.3084 51.2443 29.2559 51.1858 29.1885 51.1444C29.1212 51.1029 29.0442 51.0822 28.9584 51.0822C28.8725 51.0822 28.7911 51.1044 28.7216 51.1481C28.652 51.1917 28.598 51.2524 28.5588 51.3301C28.5196 51.4078 28.4996 51.4959 28.4996 51.595C28.4996 51.6942 28.5188 51.7741 28.5566 51.8481C28.5943 51.9221 28.6483 51.9798 28.7171 52.022C28.786 52.0634 28.8651 52.0842 28.9532 52.0842C29.0413 52.0842 29.1175 52.0634 29.1856 52.0227C29.2536 51.9813 29.3069 51.9243 29.3447 51.8503C29.3824 51.7763 29.4016 51.6927 29.4016 51.5995L29.4675 51.7578C29.4675 51.8644 29.4431 51.9591 29.3935 52.0427L29.395 52.0405ZM28.8607 50.3614C28.8881 50.3614 28.914 50.3659 28.9384 50.3748C28.9628 50.3836 28.9917 50.3962 29.025 50.4125C29.0531 50.4266 29.0768 50.4369 29.0953 50.4428C29.1138 50.4488 29.1315 50.4525 29.1493 50.4525C29.1826 50.4525 29.2152 50.4458 29.2477 50.4332C29.2803 50.4199 29.3106 50.4014 29.338 50.3762V50.596C29.3128 50.6153 29.2847 50.6301 29.2514 50.6419C29.2189 50.653 29.1848 50.6589 29.1493 50.6589C29.1249 50.6589 29.1005 50.6552 29.0783 50.6471C29.0553 50.6389 29.0287 50.6278 28.9983 50.6123C28.9687 50.5975 28.9436 50.5864 28.9236 50.579C28.9036 50.5716 28.8829 50.5679 28.8622 50.5679C28.7837 50.5679 28.7186 50.5871 28.6661 50.6264V50.414C28.7216 50.3792 28.7867 50.3622 28.8622 50.3622L28.8607 50.3614ZM29.4031 52.2751V50.8831H29.6836L29.6821 52.2751H29.4031Z" fill="#C4090B"/>
<path d="M30.2304 52.2077C30.1187 52.1463 30.0314 52.0612 29.9692 51.9517C29.9071 51.8422 29.8752 51.7171 29.8752 51.578C29.8752 51.4389 29.9063 51.3153 29.9692 51.205C30.0321 51.0955 30.1194 51.0097 30.2312 50.949C30.3429 50.8876 30.4695 50.8572 30.6108 50.8572C30.7521 50.8572 30.8787 50.8876 30.9904 50.949C31.1022 51.0104 31.1887 51.0955 31.2516 51.205C31.3145 51.3146 31.3456 51.4389 31.3456 51.578C31.3456 51.7171 31.3145 51.8422 31.2516 51.9517C31.1887 52.0612 31.1022 52.1471 30.9904 52.2077C30.8787 52.2692 30.7521 52.2995 30.6108 52.2995C30.4695 52.2995 30.3414 52.2692 30.2297 52.2077H30.2304ZM30.8439 52.0109C30.912 51.9687 30.9653 51.9095 31.003 51.8348C31.0407 51.76 31.06 51.6742 31.06 51.5795C31.06 51.4848 31.0407 51.3989 31.0023 51.3242C30.9638 51.2494 30.9105 51.191 30.8424 51.1488C30.7743 51.1066 30.6959 51.0852 30.6086 51.0852C30.5213 51.0852 30.4428 51.1059 30.374 51.1481C30.3052 51.1902 30.2519 51.2487 30.2134 51.3234C30.1749 51.3982 30.1557 51.484 30.1557 51.5787C30.1557 51.6735 30.1749 51.7608 30.2142 51.8355C30.2526 51.9103 30.3067 51.9687 30.3755 52.0109C30.4443 52.0531 30.522 52.0738 30.6101 52.0738C30.6981 52.0738 30.7758 52.0523 30.8439 52.0102V52.0109Z" fill="#C4090B"/>
<path d="M184 44.5706H192.878V46.2074H186.091V52.0638H192.216V53.7081H186.091V59.7297H184V44.5706Z" fill="#202D3B"/>
<path d="M191.929 59.7372L199.047 44H199.43L200.063 46.0347L194.145 59.7372H191.929ZM203.17 55.2022L203.715 56.7339H194.586L195.219 55.2098H203.17V55.2022ZM198.495 46.0347L199.092 44H199.474L206.461 59.7372H204.289L198.503 46.0347H198.495Z" fill="#202D3B"/>
<path d="M207.396 48.077C208.066 46.8831 209.001 45.9597 210.193 45.2914C211.386 44.6232 212.733 44.2928 214.242 44.2928C214.993 44.2928 215.737 44.4054 216.473 44.6382C217.209 44.8634 217.872 45.1863 218.46 45.5917C219.049 45.9972 219.513 46.4627 219.844 46.9808L218.718 48.0995C218.468 47.679 218.107 47.3111 217.636 46.9808C217.165 46.6579 216.635 46.4026 216.046 46.2149C215.457 46.0272 214.853 45.9371 214.242 45.9371C213.138 45.9371 212.151 46.1999 211.275 46.7255C210.399 47.2511 209.722 47.9869 209.221 48.9254C208.728 49.8639 208.471 50.9376 208.463 52.1389H206.372C206.387 50.6223 206.726 49.2708 207.403 48.077H207.396ZM209.221 55.3599C209.715 56.306 210.399 57.0418 211.275 57.5673C212.151 58.0929 213.138 58.3557 214.242 58.3557C214.861 58.3557 215.472 58.2581 216.075 58.0704C216.679 57.8827 217.224 57.6124 217.717 57.267C218.21 56.9216 218.593 56.5312 218.873 56.0957L219.977 57.312C219.616 57.8301 219.13 58.2881 218.512 58.7011C217.901 59.1065 217.216 59.4219 216.473 59.6546C215.729 59.8799 214.986 60 214.242 60C212.733 60 211.386 59.6621 210.193 59.0014C209.001 58.3332 208.073 57.4022 207.396 56.2159C206.718 55.0296 206.38 53.6706 206.365 52.1539H208.456C208.471 53.3552 208.721 54.4289 209.214 55.375L209.221 55.3599Z" fill="#202D3B"/>
<path d="M221.56 44.5556H223.65V59.7372H221.56V44.5556Z" fill="#202D3B"/>
<path d="M227.736 44.5556V59.7372H225.646V44.5556H227.736ZM234.229 58.0929V59.7372H226.095V58.0929H234.229Z" fill="#202D3B"/>
<path d="M235.547 44.5556H237.638V59.7372H235.547V44.5556Z" fill="#202D3B"/>
<path d="M250.455 44.5481V46.1924H238.904V44.5481H250.455ZM245.736 44.5556V59.7372H243.638V44.5556H245.736Z" fill="#202D3B"/>
<path d="M251.721 44.5556H253.812V59.7372H251.721V44.5556Z" fill="#202D3B"/>
<path d="M255.807 59.7372V44.5706H264.449V46.2149H257.897V59.7372H255.807ZM264.663 58.0929V59.7372H257.227V58.0929H264.663ZM263.964 52.244V53.8883H257.367V52.244H263.964Z" fill="#202D3B"/>
<path d="M268.278 59.4819C267.343 59.1591 266.489 58.7011 265.716 58.1079L266.319 56.5687C267.048 57.1093 267.799 57.5298 268.565 57.8226C269.33 58.1155 270.052 58.2581 270.744 58.2581C271.767 58.2581 272.555 58.0404 273.114 57.6049C273.674 57.1694 273.961 56.5612 273.968 55.7729C273.968 55.1046 273.688 54.4815 273.129 53.9184C272.569 53.3552 271.774 52.8897 270.736 52.5218C269.345 52.0338 268.278 51.4106 267.527 50.6373C266.776 49.8639 266.4 49.008 266.4 48.062C266.4 47.2661 266.584 46.5903 266.945 46.0272C267.306 45.4641 267.836 45.0436 268.535 44.7433C269.235 44.4505 270.081 44.3079 271.075 44.3079C271.804 44.3079 272.533 44.413 273.261 44.6232C273.983 44.8334 274.653 45.1338 275.271 45.5167L274.668 46.9958C274.182 46.6654 273.644 46.4102 273.063 46.23C272.481 46.0498 271.9 45.9596 271.303 45.9596C270.398 45.9596 269.698 46.1473 269.205 46.5227C268.712 46.8982 268.469 47.4312 268.469 48.122C268.469 48.7151 268.749 49.2633 269.301 49.7813C269.853 50.2919 270.641 50.7274 271.664 51.0878C273.055 51.5608 274.123 52.2215 274.874 53.0549C275.625 53.8958 276 54.8569 276 55.9381C276 56.794 275.809 57.5223 275.433 58.1229C275.058 58.7236 274.506 59.1816 273.777 59.497C273.048 59.8123 272.165 59.97 271.127 59.97C270.169 59.97 269.22 59.8123 268.285 59.4894L268.278 59.4819Z" fill="#202D3B"/>
<path d="M92.7667 30.5013C91.9533 31.8074 90.8468 32.8232 89.4325 33.5488C88.0182 34.2744 86.4281 34.6372 84.6474 34.6372C82.5883 34.63 80.7563 34.1729 79.1368 33.2586C77.5174 32.3516 76.257 31.0891 75.3557 29.471C74.4543 27.8529 74 26.0172 74 23.9638C74 21.9103 74.447 19.9512 75.3337 18.2896C76.2203 16.628 77.4588 15.3219 79.0489 14.3932C80.6391 13.4644 82.4417 13 84.4642 13C86.0983 13 87.6005 13.3266 88.9635 13.9796C90.3265 14.6326 91.4257 15.5469 92.283 16.7078C93.1331 17.876 93.646 19.1966 93.8219 20.6768L91.3011 21.1267C91.1912 20.002 90.8321 19.0007 90.2166 18.1227C89.601 17.2447 88.7876 16.5554 87.7911 16.0693C86.7945 15.5832 85.688 15.3364 84.4715 15.3364C82.9986 15.3364 81.6796 15.6992 80.5218 16.4321C79.364 17.1649 78.4627 18.1808 77.8105 19.4941C77.1583 20.8074 76.8432 22.2949 76.8432 23.971C76.8432 25.6471 77.173 27.0257 77.8398 28.2883C78.4993 29.5508 79.43 30.5376 80.6097 31.2414C81.7895 31.9453 83.1452 32.3008 84.6547 32.3008C86.0104 32.3008 87.2195 32.0251 88.2747 31.4664C89.3299 30.9077 90.136 30.1313 90.7075 29.1372C91.2791 28.1432 91.5502 27.004 91.5209 25.7342L94.049 26.0535C94.0051 27.7223 93.5801 29.2025 92.774 30.5086L92.7667 30.5013ZM85.5194 26.0317V23.8259H93.9978L94.0197 24.7184L94.0417 26.0462L85.5194 26.0317Z" fill="#C4090B"/>
<path d="M99.0247 33.6141C97.9182 33.0119 97.0535 32.1774 96.4379 31.1036C95.8224 30.0297 95.5073 28.8034 95.5073 27.4393C95.5073 26.0752 95.8151 24.8635 96.4379 23.7824C97.0608 22.7085 97.9255 21.8668 99.032 21.2718C100.139 20.6695 101.392 20.3721 102.791 20.3721C104.191 20.3721 105.444 20.6695 106.55 21.2718C107.657 21.874 108.514 22.7085 109.137 23.7824C109.76 24.8562 110.068 26.0752 110.068 27.4393C110.068 28.8034 109.76 30.0297 109.137 31.1036C108.514 32.1774 107.657 33.0191 106.55 33.6141C105.444 34.2164 104.191 34.5139 102.791 34.5139C101.392 34.5139 100.124 34.2164 99.0174 33.6141H99.0247ZM105.099 31.684C105.774 31.2704 106.301 30.69 106.675 29.9571C107.049 29.2243 107.239 28.3826 107.239 27.4539C107.239 26.5251 107.049 25.6834 106.668 24.9505C106.287 24.2177 105.759 23.6445 105.085 23.2309C104.411 22.8173 103.634 22.6069 102.769 22.6069C101.905 22.6069 101.128 22.81 100.446 23.2236C99.7648 23.6372 99.2372 24.2104 98.8561 24.9433C98.4751 25.6761 98.2846 26.5178 98.2846 27.4466C98.2846 28.3754 98.4751 29.2315 98.8635 29.9644C99.2445 30.6972 99.7794 31.2704 100.461 31.684C101.142 32.0976 101.912 32.3008 102.784 32.3008C103.656 32.3008 104.425 32.0904 105.099 31.6768V31.684Z" fill="#C4090B"/>
<path d="M111.973 20.626H114.75V34.2744H111.973V20.626ZM114.985 22.2296C115.402 21.6201 115.908 21.1557 116.502 20.8364C117.095 20.5244 117.733 20.3648 118.422 20.3648C119.36 20.3648 120.195 20.5824 120.906 21.0251C121.624 21.4604 122.173 22.0844 122.569 22.8898C122.965 23.6953 123.155 24.624 123.155 25.6907L120.378 25.7197C120.378 25.0884 120.261 24.537 120.026 24.0581C119.792 23.5792 119.469 23.2091 119.052 22.9406C118.634 22.6722 118.158 22.5488 117.615 22.5488C117.073 22.5488 116.619 22.6794 116.194 22.9406C115.769 23.2019 115.432 23.5719 115.183 24.0436C114.926 24.5152 114.78 25.0594 114.743 25.6689L114.105 24.4571C114.267 23.5864 114.56 22.8536 114.977 22.2368L114.985 22.2296ZM120.393 25.6616H123.17V34.2599H120.393V25.6616ZM123.075 22.2513C123.507 21.6418 124.035 21.1775 124.665 20.8582C125.295 20.5389 125.984 20.3793 126.731 20.3793C127.699 20.3793 128.541 20.597 129.259 21.0396C129.978 21.4822 130.535 22.1062 130.93 22.9116C131.326 23.717 131.516 24.6603 131.516 25.7414L128.739 25.7705C128.739 25.1247 128.629 24.5587 128.409 24.0653C128.19 23.5719 127.874 23.1946 127.471 22.9334C127.068 22.6722 126.599 22.5343 126.065 22.5343C125.53 22.5343 125.039 22.6649 124.614 22.9189C124.189 23.1729 123.851 23.5356 123.595 24C123.339 24.4644 123.192 25.0013 123.155 25.6036L122.195 24.4209C122.349 23.5792 122.642 22.8536 123.075 22.2441V22.2513ZM128.747 25.7414H131.524V34.2744H128.747V25.7414Z" fill="#C4090B"/>
<path d="M136.609 33.7157C135.495 33.128 134.631 32.2863 134.023 31.2124C133.414 30.1385 133.107 28.8833 133.107 27.4756C133.107 26.0679 133.392 24.8199 133.957 23.7533C134.521 22.6794 135.312 21.8523 136.338 21.2645C137.364 20.6768 138.544 20.3866 139.878 20.3866C141.211 20.3866 142.391 20.6478 143.424 21.1702C144.457 21.6926 145.264 22.4327 145.85 23.3832C146.436 24.3338 146.751 25.4294 146.795 26.6629C146.802 26.779 146.795 26.9532 146.795 27.1636C146.78 27.3813 146.773 27.5337 146.773 27.628L146.758 28.281H135.884C135.899 29.0937 136.096 29.8193 136.477 30.4578C136.858 31.0963 137.386 31.5825 138.053 31.9308C138.727 32.279 139.489 32.4532 140.339 32.4532C141.123 32.4532 141.878 32.3008 142.596 31.9961C143.314 31.6913 143.857 31.2922 144.223 30.7988L146.165 32.0976C145.579 32.8522 144.758 33.4617 143.717 33.9189C142.677 34.376 141.592 34.6082 140.464 34.6082C139.006 34.6082 137.723 34.3107 136.609 33.7229V33.7157ZM143.439 24.2758C143.109 23.7388 142.647 23.318 142.054 23.0132C141.46 22.7085 140.772 22.5634 139.995 22.5634C139.218 22.5634 138.493 22.7157 137.862 23.0132C137.24 23.318 136.749 23.7388 136.397 24.283C136.045 24.8272 135.862 25.4512 135.855 26.1478H143.937C143.93 25.4439 143.761 24.8199 143.432 24.2758H143.439Z" fill="#C4090B"/>
<path d="M150.972 34.093C149.983 33.81 149.081 33.4327 148.261 32.9466L149.111 30.9077C149.917 31.3648 150.686 31.7131 151.441 31.9453C152.196 32.1775 152.855 32.2935 153.434 32.2935C154.277 32.2935 154.922 32.1412 155.369 31.8437C155.816 31.5462 156.035 31.0963 156.035 30.5013C156.028 29.9426 155.794 29.4637 155.332 29.0647C154.87 28.6728 154.079 28.3173 152.965 27.998C151.485 27.5845 150.386 27.0257 149.675 26.3364C148.964 25.6398 148.605 24.849 148.605 23.942C148.605 23.1583 148.803 22.5053 149.199 21.9684C149.594 21.4387 150.137 21.0396 150.833 20.7711C151.522 20.5027 152.306 20.3721 153.185 20.3721C154.958 20.3721 156.541 20.7856 157.926 21.6201L157.435 23.688C156.878 23.3252 156.226 23.035 155.479 22.8246C154.731 22.6141 154.042 22.5126 153.412 22.5126C151.947 22.5126 151.214 23.0132 151.214 24.0145C151.214 24.4644 151.5 24.8635 152.078 25.1972C152.657 25.5383 153.537 25.8938 154.716 26.2711C156.057 26.6992 157.054 27.2579 157.692 27.9617C158.329 28.6656 158.652 29.529 158.652 30.5594C158.652 31.8582 158.219 32.845 157.362 33.5125C156.504 34.1801 155.317 34.5066 153.8 34.4993C152.906 34.4993 151.969 34.3615 150.979 34.0785L150.972 34.093Z" fill="#C4090B"/>
<path d="M167.819 34.0857C167.101 33.7375 166.551 33.2223 166.17 32.5475C165.789 31.8727 165.598 31.0745 165.598 30.153C165.598 29.9426 165.598 29.7757 165.613 29.6669C165.672 28.8325 165.943 28.0779 166.434 27.3958C166.925 26.7137 167.577 26.068 168.398 25.4512C169.218 24.8345 170.413 24.0218 171.988 23.0204C172.846 22.4762 173.549 21.9901 174.091 21.562C174.634 21.1339 175.059 20.684 175.366 20.2197C175.674 19.7553 175.843 19.2546 175.857 18.7249C175.865 18.1445 175.725 17.6076 175.425 17.1141C175.125 16.6207 174.729 16.2217 174.231 15.9314C173.732 15.6412 173.19 15.4888 172.626 15.4888C172.091 15.4888 171.593 15.6339 171.116 15.9314C170.64 16.2289 170.259 16.6207 169.98 17.1141C169.695 17.6148 169.555 18.1517 169.555 18.7249C169.555 19.2982 169.665 19.7916 169.878 20.2415C170.098 20.6913 170.369 21.0904 170.699 21.4459C171.028 21.8015 171.475 22.2296 172.047 22.7302C172.179 22.8463 172.311 22.9697 172.45 23.1003C172.589 23.2309 172.736 23.3615 172.882 23.4921L171.336 24.9433C170.42 24.2612 169.651 23.6082 169.035 22.9842C168.42 22.3602 167.929 21.6926 167.57 20.9743C167.21 20.2632 167.027 19.4941 167.027 18.6669C167.027 17.6583 167.276 16.7441 167.775 15.9242C168.273 15.1042 168.955 14.4657 169.819 14.0013C170.684 13.5369 171.644 13.3048 172.699 13.3048C173.754 13.3048 174.692 13.5369 175.564 13.9941C176.436 14.4512 177.118 15.0897 177.623 15.9096C178.129 16.7223 178.378 17.6366 178.378 18.6524C178.378 19.5376 178.166 20.3358 177.733 21.0469C177.301 21.7579 176.751 22.3892 176.077 22.9406C175.403 23.4921 174.553 24.0944 173.527 24.7401L172.633 25.3424C171.519 26.0825 170.677 26.663 170.112 27.0911C169.541 27.5192 169.079 27.9472 168.713 28.3826C168.346 28.8179 168.134 29.2751 168.082 29.7394C168.068 29.9281 168.061 30.0587 168.061 30.1313C168.061 30.7263 168.222 31.2124 168.551 31.5825C168.881 31.9525 169.336 32.1339 169.929 32.1339C170.09 32.1339 170.295 32.1122 170.545 32.0686C171.358 31.9162 172.311 31.4156 173.417 30.5666C174.524 29.7177 175.645 28.6656 176.773 27.4175C177.902 26.1695 178.928 24.8852 179.829 23.5792L181.214 25.4294C180.122 26.9677 178.957 28.4116 177.719 29.754C176.48 31.0963 175.213 32.2137 173.923 33.0989C172.633 33.9842 171.439 34.4631 170.339 34.5357C169.38 34.5792 168.544 34.4268 167.826 34.0785L167.819 34.0857ZM178.239 31.1398C178.444 31.4156 178.715 31.6405 179.052 31.8147C179.389 31.9961 179.785 32.0759 180.239 32.0686C180.914 32.0541 181.522 31.9525 182.071 31.7784V34.1221C181.207 34.3542 180.408 34.4631 179.675 34.4631C179.052 34.4631 178.495 34.3397 178.012 34.093C177.521 33.8463 177.132 33.5343 176.825 33.1497C176.451 32.6926 176.114 32.192 175.828 31.655C175.542 31.1181 175.22 30.4578 174.868 29.6814L176.795 28.4189C177.228 29.5508 177.711 30.4578 178.232 31.1326L178.239 31.1398Z" fill="#C4090B"/>
<path d="M207.081 30.5013C206.268 31.8074 205.161 32.8232 203.747 33.5488C202.333 34.2744 200.743 34.6372 198.962 34.6372C196.903 34.6299 195.071 34.1728 193.452 33.2586C191.832 32.3516 190.572 31.0891 189.67 29.471C188.769 27.8529 188.315 26.0172 188.315 23.9638C188.315 21.9103 188.762 19.9512 189.648 18.2896C190.535 16.628 191.774 15.3219 193.364 14.3932C194.954 13.4644 196.756 13 198.779 13C200.413 13 201.915 13.3265 203.278 13.9796C204.641 14.6326 205.74 15.5469 206.598 16.7078C207.448 17.876 207.961 19.1966 208.137 20.6768L205.616 21.1267C205.506 20.002 205.147 19.0007 204.531 18.1227C203.916 17.2447 203.102 16.5554 202.106 16.0693C201.109 15.5831 200.003 15.3364 198.786 15.3364C197.313 15.3364 195.994 15.6992 194.837 16.4321C193.679 17.1649 192.777 18.1807 192.125 19.4941C191.473 20.8074 191.158 22.2948 191.158 23.971C191.158 25.6471 191.488 27.0257 192.155 28.2883C192.814 29.5508 193.745 30.5376 194.924 31.2414C196.104 31.9453 197.46 32.3008 198.969 32.3008C200.325 32.3008 201.534 32.0251 202.589 31.4664C203.645 30.9077 204.451 30.1313 205.022 29.1372C205.594 28.1432 205.862 27.3117 205.833 26.0419L208.364 26.0535C208.32 27.7223 207.895 29.2025 207.089 30.5086L207.081 30.5013ZM199.834 26.0317V23.8259H208.312L208.334 24.7184L208.356 26.0462L199.834 26.0317Z" fill="#C4090B"/>
<path d="M221.444 31.9743C220.953 32.787 220.279 33.4255 219.407 33.8826C218.535 34.3397 217.546 34.5647 216.439 34.5647C215.157 34.5647 214.006 34.2671 213.002 33.6794C211.998 33.0917 211.222 32.2645 210.665 31.2052C210.108 30.1458 209.829 28.9413 209.829 27.5917C209.829 26.2421 210.115 24.9505 210.687 23.8622C211.258 22.7738 212.05 21.9176 213.061 21.3081C214.072 20.6986 215.23 20.3866 216.512 20.3866C217.582 20.3866 218.542 20.6115 219.392 21.0686C220.242 21.5257 220.902 22.157 221.385 22.9769C221.869 23.7896 222.118 24.7256 222.133 25.7705C222.148 26.8153 221.517 27.4031 221.517 27.4031C221.517 26.467 221.334 25.6326 220.96 24.8998C220.587 24.1669 220.066 23.5937 219.4 23.1874C218.733 22.781 217.971 22.5778 217.121 22.5778C216.271 22.5778 215.464 22.7955 214.776 23.2236C214.087 23.6517 213.552 24.2467 213.164 25.0086C212.775 25.7705 212.577 26.6339 212.577 27.6062C212.577 28.5785 212.768 29.3622 213.142 30.0878C213.515 30.8134 214.05 31.3793 214.732 31.7929C215.413 32.1992 216.197 32.4024 217.069 32.4024C217.941 32.4024 218.696 32.1992 219.37 31.8002C220.044 31.3938 220.572 30.8351 220.946 30.1095C221.319 29.3839 221.51 28.564 221.51 27.6497L222.162 29.2025C222.162 30.2474 221.92 31.1762 221.429 31.9961L221.444 31.9743ZM221.525 34.2671V20.6187H224.302L224.287 34.2671H221.525Z" fill="#C4090B"/>
<path d="M226.625 13.1742H229.402V34.2671H226.625V13.1742Z" fill="#C4090B"/>
<path d="M230.934 20.626H234.041L238.093 30.4578L242.109 20.626H245.194L238.452 35H237.778L230.934 20.626Z" fill="#C4090B"/>
<path d="M256.684 31.9743C256.193 32.787 255.519 33.4255 254.647 33.8826C253.775 34.3397 252.785 34.5647 251.679 34.5647C250.396 34.5647 249.246 34.2671 248.242 33.6794C247.238 33.0917 246.461 32.2645 245.904 31.2052C245.348 30.1458 245.069 28.9413 245.069 27.5917C245.069 26.2421 245.355 24.9505 245.926 23.8622C246.498 22.7738 247.289 21.9176 248.301 21.3081C249.312 20.6986 250.47 20.3866 251.752 20.3866C252.822 20.3866 253.782 20.6115 254.632 21.0686C255.482 21.5257 256.141 22.157 256.625 22.9769C257.109 23.7896 257.358 24.7256 257.373 25.7705L256.757 27.4031C256.757 26.467 256.574 25.6326 256.2 24.8997C255.826 24.1669 255.306 23.5937 254.639 23.1874C253.972 22.781 253.21 22.5778 252.36 22.5778C251.51 22.5778 250.704 22.7955 250.015 23.2236C249.327 23.6517 248.792 24.2467 248.403 25.0086C248.015 25.7705 247.817 26.6339 247.817 27.6062C247.817 28.5785 248.008 29.3622 248.381 30.0878C248.755 30.8134 249.29 31.3793 249.971 31.7929C250.653 32.1992 251.437 32.4024 252.309 32.4024C253.181 32.4024 253.936 32.1992 254.61 31.8002C255.284 31.3938 255.812 30.8351 256.185 30.1095C256.559 29.3839 256.75 28.564 256.75 27.6497L257.402 29.2025C257.402 30.2474 257.16 31.1762 256.669 31.9961L256.684 31.9743ZM251.393 15.5106C251.664 15.5106 251.921 15.5541 252.162 15.6412C252.404 15.7282 252.69 15.8516 253.02 16.0112C253.298 16.1491 253.533 16.2507 253.716 16.3087C253.899 16.3668 254.075 16.403 254.251 16.403C254.581 16.403 254.903 16.3378 255.225 16.2144C255.548 16.0838 255.848 15.9024 256.119 15.6557V17.8107C255.87 17.9993 255.592 18.1445 255.262 18.2606C254.94 18.3694 254.603 18.4275 254.251 18.4275C254.009 18.4275 253.767 18.3912 253.547 18.3113C253.32 18.2315 253.056 18.1227 252.756 17.9703C252.463 17.8252 252.214 17.7164 252.016 17.6438C251.818 17.5713 251.613 17.535 251.408 17.535C250.631 17.535 249.986 17.7236 249.466 18.1082V16.0258C250.015 15.6847 250.66 15.5178 251.408 15.5178L251.393 15.5106ZM256.764 34.2744V20.626H259.542L259.527 34.2744H256.764Z" fill="#C4090B"/>
<path d="M264.957 33.6141C263.85 33.0119 262.986 32.1774 262.37 31.1036C261.755 30.0297 261.44 28.8034 261.44 27.4393C261.44 26.0752 261.747 24.8635 262.37 23.7824C262.993 22.7085 263.858 21.8668 264.964 21.2718C266.071 20.6695 267.324 20.3721 268.723 20.3721C270.123 20.3721 271.376 20.6695 272.483 21.2718C273.589 21.874 274.447 22.7085 275.069 23.7824C275.692 24.8562 276 26.0752 276 27.4393C276 28.8034 275.692 30.0297 275.069 31.1036C274.447 32.1774 273.589 33.0191 272.483 33.6141C271.376 34.2164 270.123 34.5139 268.723 34.5139C267.324 34.5139 266.056 34.2164 264.95 33.6141H264.957ZM271.032 31.684C271.706 31.2704 272.233 30.69 272.607 29.9571C272.981 29.2243 273.171 28.3826 273.171 27.4539C273.171 26.5251 272.981 25.6834 272.6 24.9505C272.219 24.2177 271.691 23.6445 271.017 23.2309C270.343 22.8173 269.566 22.6069 268.701 22.6069C267.837 22.6069 267.06 22.81 266.379 23.2236C265.697 23.6372 265.169 24.2104 264.788 24.9433C264.407 25.6761 264.217 26.5178 264.217 27.4466C264.217 28.3754 264.407 29.2315 264.796 29.9644C265.177 30.6972 265.712 31.2704 266.393 31.684C267.075 32.0976 267.844 32.3008 268.716 32.3008C269.588 32.3008 270.358 32.0904 271.032 31.6768V31.684Z" fill="#C4090B"/>
<defs>
<linearGradient id="paint0_linear_160_8" x1="-101.732" y1="35.15" x2="544.74" y2="35.15" gradientUnits="userSpaceOnUse">
<stop stop-color="#34495E"/>
<stop offset="1" stop-color="#34495E"/>
</linearGradient>
<linearGradient id="paint1_linear_160_8" x1="16.4917" y1="35.1507" x2="57.5084" y2="35.1507" gradientUnits="userSpaceOnUse">
<stop stop-color="#34495E"/>
<stop offset="1" stop-color="#34495E"/>
</linearGradient>
<linearGradient id="paint2_linear_160_8" x1="16.4917" y1="35.9507" x2="40.4781" y2="35.9507" gradientUnits="userSpaceOnUse">
<stop stop-color="#C4090B"/>
<stop offset="1" stop-color="#C4090B"/>
</linearGradient>
</defs>
</svg>
