<svg width="31" height="22" viewBox="0 0 31 22" fill="none" xmlns="http://www.w3.org/2000/svg">
<path d="M28.8171 1.50016C28.6427 1.5069 28.4762 1.60129 28.3538 1.76648L15.4991 18.4166L2.64446 1.76648C2.51953 1.59792 2.34776 1.5069 2.16817 1.50353C1.89489 1.5069 1.65284 1.71928 1.54873 2.04291C1.44722 2.36992 1.50709 2.74074 1.70229 2.98684L15.0281 20.2472C15.2883 20.5843 15.71 20.5843 15.9702 20.2472L29.296 2.98684C29.4938 2.74074 29.5537 2.3598 29.4496 2.0328C29.3428 1.7058 29.093 1.49341 28.8171 1.50016Z" fill="white" fill-opacity="0.8"/>
<path d="M28.8049 1.00031V1.00025L28.7978 1.00053C28.4496 1.01399 28.1525 1.20068 27.9554 1.46438L15.4991 17.5984L3.04286 1.46432C2.83648 1.1884 2.52774 1.01019 2.17756 1.00362L2.16978 1.00347L2.162 1.00357C1.61076 1.01037 1.22102 1.42889 1.07275 1.8898L1.07273 1.88979L1.07121 1.89468C0.926543 2.36072 1.0014 2.90558 1.30829 3.29468L14.6323 20.5527C14.8444 20.8275 15.1541 21 15.4991 21C15.8441 21 16.1539 20.8275 16.366 20.5527L29.6892 3.29577C30.001 2.90435 30.0743 2.34701 29.926 1.88111L29.9249 1.87769C29.773 1.41228 29.3687 0.986528 28.8049 1.00031ZM28.8171 1.50009V1.50016V1.50009Z" stroke="white" stroke-opacity="0.8"/>
</svg>
